{"glyphs":{"0":{"ha":831,"x_min":0,"x_max":0,"o":"m 418 -28 b 674 47 515 -28 610 -18 b 785 396 772 146 785 260 b 669 740 785 538 751 672 b 390 806 622 779 540 806 b 140 726 267 806 197 788 b 49 339 68 649 49 564 b 135 60 49 231 68 140 b 418 -28 194 -12 307 -28 z m 303 403 b 411 607 303 532 318 607 b 533 399 513 607 533 517 b 424 172 533 283 521 172 b 303 403 306 172 303 319 z "},"1":{"ha":628,"x_min":0,"x_max":0,"o":"m 111 -18 b 406 -28 149 -24 238 -28 b 542 -22 507 -28 528 -28 b 589 78 568 -11 589 46 b 575 140 589 96 582 122 b 500 185 564 169 536 179 b 461 233 471 190 461 203 b 468 667 461 319 468 538 b 361 793 468 713 425 793 b 115 743 336 793 179 758 b 67 643 72 732 67 710 b 113 554 67 606 83 564 b 193 514 139 543 193 560 b 194 244 193 422 194 333 b 75 174 194 189 104 219 b 32 81 47 131 32 104 b 111 -18 32 50 65 -14 z "},"2":{"ha":733,"x_min":0,"x_max":0,"o":"m 46 138 b 161 -25 46 92 76 -25 b 628 -8 263 -25 599 -11 b 678 38 653 -4 669 15 b 701 136 688 68 701 126 b 631 226 701 167 660 226 l 446 226 b 424 244 432 226 424 235 b 436 268 424 256 428 261 l 583 385 b 671 567 658 446 671 506 b 599 722 671 632 654 669 b 413 794 535 779 490 794 b 132 772 335 794 207 786 b 42 664 61 761 42 679 b 61 606 42 646 44 639 b 129 546 93 542 97 546 b 339 567 142 546 313 567 b 382 525 365 567 382 546 b 364 485 382 507 378 497 l 71 226 b 46 138 47 204 46 186 z "},"3":{"ha":772,"x_min":0,"x_max":0,"o":"m 93 -151 b 201 -240 93 -212 156 -240 b 586 -97 335 -240 482 -187 b 726 226 683 -11 726 104 b 536 413 726 332 654 397 b 507 438 514 417 507 422 b 519 464 507 449 510 457 l 614 539 b 643 578 636 557 642 568 b 658 657 650 607 658 640 b 553 772 658 707 581 772 l 133 772 b 31 671 90 772 31 711 b 111 543 31 674 54 543 l 254 543 b 283 521 271 543 283 535 b 274 499 283 511 282 506 l 138 371 b 119 315 122 357 119 335 b 190 232 119 275 146 232 b 390 247 213 232 332 247 b 456 176 428 247 456 215 b 365 64 456 125 425 94 b 142 -25 294 28 219 -1 b 93 -151 103 -36 93 -107 z "},"4":{"ha":839,"x_min":0,"x_max":0,"o":"m 39 222 l 100 135 b 153 108 115 113 131 108 l 381 108 b 413 72 404 108 413 86 l 413 -8 b 439 -46 413 -25 421 -36 l 497 -79 b 539 -93 514 -90 522 -93 b 600 -75 556 -93 565 -90 b 665 57 668 -46 665 -22 b 717 114 665 101 682 111 b 818 183 772 118 778 125 b 832 226 828 196 832 210 b 792 317 832 260 822 304 b 686 356 764 328 686 313 l 686 457 b 643 514 686 481 679 490 b 596 531 621 528 614 531 b 538 514 582 531 574 528 b 472 456 496 496 478 485 l 458 346 b 421 310 456 324 442 310 l 372 310 b 344 338 358 310 344 325 b 353 365 344 349 347 356 l 519 675 b 539 732 532 700 539 715 b 525 769 539 742 535 757 l 499 800 b 431 831 479 822 464 831 b 301 790 368 831 319 826 l 36 290 b 26 258 29 278 26 268 b 39 222 26 244 32 233 z "},"5":{"ha":783,"x_min":0,"x_max":0,"o":"m 85 -174 b 132 -210 93 -185 104 -193 b 199 -240 181 -237 190 -240 b 275 -226 206 -240 213 -240 b 721 204 651 -151 721 25 b 667 378 721 294 689 356 b 525 439 619 426 582 439 b 324 414 488 439 339 414 b 278 457 294 414 278 417 b 318 518 278 482 286 514 l 575 543 b 639 660 629 550 639 646 b 614 717 639 683 628 700 b 525 758 586 750 571 758 b 125 736 478 758 250 746 b 85 696 104 735 88 718 l 44 372 b 39 319 40 347 39 332 b 92 236 39 283 40 282 b 164 200 113 218 133 200 b 392 231 196 200 328 231 b 464 167 436 231 464 217 b 347 51 464 89 396 67 l 138 -12 b 101 -46 124 -18 104 -31 l 81 -129 b 78 -147 79 -136 78 -142 b 85 -174 78 -158 81 -168 z "},"6":{"ha":804,"x_min":0,"x_max":0,"o":"m 49 317 b 425 -44 49 46 193 -44 b 768 272 607 -44 768 90 b 513 546 768 397 636 546 b 413 540 467 546 440 540 b 389 560 397 540 389 547 b 521 683 389 606 499 667 b 543 728 542 697 543 708 b 457 829 543 796 513 829 b 263 750 392 829 335 806 b 133 603 201 703 164 651 b 49 317 85 528 49 429 z m 306 253 b 413 361 306 319 346 361 b 525 261 467 361 525 319 b 415 151 525 204 474 151 b 306 253 354 151 306 193 z "},"7":{"ha":733,"x_min":0,"x_max":0,"o":"m 169 -40 b 183 -86 169 -61 172 -71 l 228 -147 b 268 -162 236 -161 254 -162 b 310 -158 289 -162 300 -161 b 433 -106 356 -149 417 -149 l 672 521 b 689 614 686 563 689 578 b 563 710 689 672 644 706 b 131 696 557 710 267 704 b 56 631 90 693 78 675 b 36 571 39 599 36 588 b 50 533 36 558 42 549 l 81 479 b 140 447 92 457 110 447 b 335 467 169 447 263 467 b 367 440 353 467 367 454 b 358 401 367 428 365 421 l 176 -12 b 169 -40 172 -21 169 -29 z "},"8":{"ha":829,"x_min":0,"x_max":0,"o":"m 413 -68 b 779 154 629 -68 779 -15 b 717 311 779 214 757 267 b 693 353 697 333 693 342 b 740 419 693 365 696 371 b 779 536 771 451 779 492 b 410 822 779 750 581 822 b 96 574 257 822 96 740 b 144 425 96 513 110 467 b 158 394 156 411 158 401 b 136 363 158 378 151 371 b 47 213 68 317 47 276 b 413 -68 47 25 214 -68 z m 311 233 b 415 315 311 299 361 315 b 528 229 474 315 528 293 b 435 144 528 169 492 144 b 311 233 376 144 311 164 z m 313 515 b 411 594 313 564 363 594 b 521 519 460 594 521 579 b 421 442 521 458 468 442 b 313 515 369 442 313 458 z "},"9":{"ha":856,"x_min":0,"x_max":0,"o":"m 319 -32 b 336 -83 319 -56 324 -68 b 457 -154 350 -103 417 -154 b 564 -108 499 -154 538 -135 b 692 118 607 -65 665 56 b 774 482 742 238 774 369 b 407 774 774 715 576 774 b 39 453 192 774 39 664 b 314 185 39 339 158 185 b 438 203 357 185 410 203 b 457 183 450 203 457 194 b 332 3 457 135 390 68 b 319 -32 324 -6 319 -21 z m 296 471 b 413 579 296 535 350 579 b 517 492 464 579 517 551 b 399 378 517 413 478 378 b 296 471 332 378 296 419 z "},"\u0000":{"ha":0,"x_min":0,"x_max":0,"o":""}," ":{"ha":350,"x_min":0,"x_max":0,"o":""},"\u0017":{"ha":350,"x_min":0,"x_max":0,"o":""},"!":{"ha":431,"x_min":0,"x_max":0,"o":"m 132 238 b 63 153 93 238 63 196 l 63 61 b 169 -36 63 1 118 -36 l 276 -36 b 324 0 294 -36 314 -12 b 344 97 342 29 344 65 b 272 233 344 161 331 228 b 132 238 244 236 204 238 z m 101 425 b 213 319 111 349 135 319 b 308 382 253 319 300 338 b 374 776 329 494 353 643 b 382 843 378 799 382 828 b 283 928 382 901 329 928 b 101 913 233 928 147 918 b 36 836 68 908 36 881 b 39 808 36 828 36 818 z "},"\"":{"ha":638,"x_min":0,"x_max":0,"o":"m 33 857 b 36 814 33 844 35 833 l 54 594 b 146 521 58 557 110 521 b 208 539 167 521 176 524 b 271 594 251 560 269 569 l 286 811 b 289 872 288 829 289 856 b 228 932 289 900 275 932 l 104 932 b 33 857 54 932 33 899 z m 353 857 b 356 814 353 844 354 833 l 374 594 b 465 521 378 557 429 521 b 528 539 486 521 496 524 b 590 594 571 560 589 569 l 606 811 b 608 872 607 829 608 856 b 547 932 608 900 594 932 l 424 932 b 353 857 374 932 353 899 z "},"#":{"ha":865,"x_min":0,"x_max":0,"o":"m 28 240 b 90 158 28 204 44 158 l 157 158 b 204 121 181 158 201 142 l 213 32 b 301 -49 217 -22 261 -49 b 404 11 335 -49 404 -36 l 404 119 b 454 163 404 147 422 163 b 499 131 474 163 496 151 l 510 28 b 621 -39 514 -8 576 -39 b 683 15 657 -39 683 -25 l 683 131 b 749 174 683 164 710 169 b 843 267 817 178 843 192 b 789 335 843 299 825 333 b 749 333 775 335 761 333 b 688 435 685 333 688 363 b 714 488 688 460 694 479 b 779 507 738 499 761 499 b 815 588 808 518 815 557 b 746 647 815 639 765 647 b 682 672 710 647 692 657 b 586 814 656 721 703 814 b 514 765 564 814 514 807 l 514 669 b 446 636 514 646 485 636 b 379 682 421 636 379 639 l 374 768 b 301 814 374 811 326 814 b 203 768 278 814 219 811 l 203 664 b 165 628 203 649 190 628 l 93 628 b 28 550 40 628 28 578 b 113 456 28 485 44 456 b 183 446 164 456 172 456 b 201 390 193 438 201 426 b 171 335 201 351 193 338 b 94 329 161 333 106 329 b 28 240 47 329 28 276 z m 375 410 b 456 478 375 478 413 478 b 517 385 517 478 517 438 b 442 326 517 335 490 326 b 375 410 378 326 375 351 z "},"$":{"ha":525,"x_min":0,"x_max":0,"o":"m 39 190 b 92 117 39 142 63 131 b 196 96 117 104 167 99 b 239 29 233 90 229 56 b 318 -26 247 -3 271 -26 b 371 17 347 -26 369 -6 b 381 118 375 50 375 86 b 394 146 383 129 386 138 b 467 203 419 164 446 181 b 508 304 500 238 508 267 b 431 460 508 367 481 426 b 306 543 383 492 326 522 b 292 574 294 554 292 563 b 376 618 292 611 351 618 b 446 611 399 618 421 611 b 493 693 488 611 493 660 b 446 764 493 729 475 758 b 371 792 410 771 385 768 b 349 847 363 807 354 835 b 297 876 339 868 318 876 b 244 840 272 876 249 867 l 235 785 b 169 744 232 768 203 758 b 50 590 108 719 50 672 b 97 492 50 553 68 521 b 240 381 154 435 221 394 b 275 335 268 361 275 344 b 186 282 275 297 233 282 b 86 294 153 282 118 294 b 49 267 68 294 56 283 b 39 190 42 247 39 225 z "},"%":{"ha":1024,"x_min":0,"x_max":0,"o":"m 232 396 b 436 631 410 396 436 521 b 372 822 436 708 418 785 b 217 858 347 843 300 858 b 26 600 78 858 26 806 b 75 444 26 540 39 489 b 232 396 107 404 171 396 z m 178 635 b 228 738 178 699 185 738 b 288 633 278 738 288 692 b 235 517 288 574 282 517 b 178 635 178 517 178 592 z m 61 33 b 167 -49 61 -6 140 -49 b 196 -39 176 -49 189 -47 l 847 668 b 868 715 864 686 868 694 b 789 824 868 756 835 824 b 760 815 778 824 768 822 l 72 64 b 61 33 64 56 61 43 z m 790 -26 b 994 208 968 -26 994 99 b 931 400 994 286 976 363 b 775 436 906 421 858 436 b 585 178 636 436 585 383 b 633 22 585 118 597 67 b 790 -26 665 -18 729 -26 z m 736 213 b 786 315 736 276 743 315 b 846 211 836 315 846 269 b 793 94 846 151 840 94 b 736 213 736 94 736 169 z "},"&":{"ha":958,"x_min":0,"x_max":0,"o":"m 22 210 b 325 -68 22 29 160 -68 b 528 -21 436 -68 490 -40 b 628 54 567 0 599 31 b 657 67 636 63 646 67 b 822 -39 707 67 764 -39 b 901 -19 849 -39 878 -31 b 938 67 931 -6 938 13 b 915 146 938 108 932 126 b 803 278 872 197 803 240 b 890 474 803 333 890 414 b 867 564 890 521 885 544 b 775 594 849 586 794 594 b 724 567 758 594 736 583 b 651 440 692 524 678 478 b 608 419 643 428 625 419 b 542 463 581 419 556 449 b 533 485 535 471 533 478 b 543 507 533 490 535 499 l 621 585 b 667 713 657 619 667 672 b 421 894 667 865 518 894 b 114 667 269 894 114 838 b 146 574 114 636 126 601 b 193 501 169 539 193 521 b 175 471 193 490 183 478 b 92 400 140 446 117 426 b 22 210 36 340 22 288 z m 283 239 b 375 349 283 286 326 349 b 411 335 392 349 399 344 l 485 271 b 497 239 494 263 497 256 b 376 146 497 189 429 146 b 283 239 321 146 283 185 z m 321 650 b 399 707 321 689 364 707 b 461 653 432 707 461 686 b 392 582 461 617 428 582 b 321 650 354 582 321 617 z "},"'":{"ha":319,"x_min":0,"x_max":0,"o":"m 33 857 b 36 814 33 844 35 833 l 54 594 b 146 521 58 557 110 521 b 208 539 167 521 176 524 b 271 594 251 560 269 569 l 286 811 b 289 872 288 829 289 856 b 228 932 289 900 275 932 l 104 932 b 33 857 54 932 33 899 z "},"(":{"ha":654,"x_min":0,"x_max":0,"o":"m 361 -296 b 522 -396 442 -407 474 -396 b 619 -306 615 -396 619 -347 b 574 -196 619 -253 596 -233 b 378 374 426 49 378 214 b 542 879 378 558 431 718 b 650 1078 636 1014 650 1033 b 556 1153 650 1128 619 1153 b 461 1124 514 1153 485 1146 b 143 376 263 939 143 667 b 361 -296 143 114 221 -104 z "},")":{"ha":654,"x_min":0,"x_max":0,"o":"m 306 1040 b 169 1139 238 1129 204 1139 b 47 1057 57 1139 47 1104 b 93 938 47 996 68 976 b 299 353 251 685 299 521 b 144 -136 299 176 249 21 b 39 -337 51 -276 39 -292 b 136 -410 39 -389 72 -410 b 229 -381 178 -410 206 -403 b 535 374 428 -190 535 81 b 306 1040 535 636 449 851 z "},"*":{"ha":686,"x_min":0,"x_max":0,"o":"m 119 413 b 154 358 119 390 135 371 b 267 311 175 344 243 311 b 313 342 288 311 308 319 l 343 464 b 368 490 347 483 357 490 b 397 468 381 490 389 483 l 453 347 b 497 322 461 331 475 322 b 536 339 511 322 526 326 l 619 435 b 632 471 628 444 632 460 b 600 511 632 486 624 504 l 485 544 b 463 568 471 550 463 556 b 485 588 463 578 469 585 l 615 604 b 650 647 638 607 650 629 b 643 679 650 660 646 672 l 608 738 b 557 768 596 757 581 768 b 525 760 547 768 533 765 l 442 685 b 429 681 438 681 435 681 b 418 701 419 681 418 692 b 449 815 418 733 449 782 b 382 878 449 847 414 878 l 299 878 b 236 822 271 878 236 857 b 240 804 236 815 238 810 b 279 693 251 771 279 707 b 257 667 279 674 276 667 b 226 679 247 667 236 672 l 133 743 b 92 760 122 751 106 760 b 47 721 69 760 53 742 b 25 621 39 694 25 635 b 68 564 25 586 46 564 l 217 564 b 243 543 233 564 243 554 b 232 519 243 532 240 528 b 126 435 221 508 149 467 b 119 413 124 429 119 421 z "},"+":{"ha":835,"x_min":0,"x_max":0,"o":"m 36 379 b 106 303 39 343 69 303 l 269 303 b 310 257 292 303 310 279 l 315 104 b 349 58 315 83 331 64 b 446 38 390 47 433 38 b 526 97 478 38 525 61 l 532 275 b 578 311 535 299 553 311 l 722 315 b 771 353 749 317 764 333 b 790 446 779 381 790 421 b 732 528 790 478 768 528 l 558 533 b 526 565 544 535 528 551 l 521 736 b 490 771 521 756 508 765 b 390 790 435 785 407 790 b 301 722 342 790 301 763 l 301 565 b 265 528 301 550 289 528 l 97 522 b 51 474 68 521 58 506 b 36 379 46 446 36 406 z "},",":{"ha":393,"x_min":0,"x_max":0,"o":"m 38 -164 b 99 -247 38 -203 57 -247 b 269 -69 168 -247 236 -150 b 335 143 290 -18 335 100 b 315 233 335 164 333 179 b 139 283 300 276 246 283 b 69 238 104 283 97 278 b 39 161 44 200 39 189 b 69 33 39 132 69 64 b 38 -164 69 -24 38 -111 z "},"-":{"ha":436,"x_min":0,"x_max":0,"o":"m 29 432 b 46 378 29 417 31 404 b 126 336 63 346 86 336 b 343 350 161 336 296 344 b 383 386 361 353 378 367 b 406 497 393 426 406 482 b 317 589 406 546 368 589 b 92 578 282 589 165 583 b 51 540 76 578 57 563 b 29 432 29 463 29 451 z "},".":{"ha":369,"x_min":0,"x_max":0,"o":"m 229 -39 b 292 -15 258 -39 276 -32 b 325 160 310 4 325 33 b 286 264 325 207 310 243 b 143 282 268 281 243 282 b 43 140 54 282 43 238 b 79 -4 43 82 44 31 b 229 -39 106 -32 139 -39 z "},"/":{"ha":815,"x_min":0,"x_max":0,"o":"m 35 -247 b 163 -279 68 -268 124 -279 b 229 -233 188 -279 208 -269 l 776 804 b 794 853 788 826 794 836 b 731 958 794 881 750 944 b 628 994 703 979 646 994 b 586 968 610 994 594 983 l -6 -146 b -17 -179 -12 -158 -17 -167 b 35 -247 -17 -212 18 -239 z "},":":{"ha":439,"x_min":0,"x_max":0,"o":"m 269 32 b 332 54 299 32 317 39 b 364 229 349 74 364 104 b 326 335 364 276 349 313 b 183 351 307 350 283 351 b 83 210 93 351 83 307 b 119 65 83 151 83 100 b 269 32 146 39 178 32 z m 271 499 b 335 522 300 499 319 507 b 367 697 351 542 367 571 b 328 801 367 744 351 781 b 185 819 310 818 285 819 b 85 678 96 819 85 775 b 121 533 85 619 86 568 b 271 499 147 507 181 499 z "},";":{"ha":439,"x_min":0,"x_max":0,"o":"m 75 -164 b 136 -247 75 -203 94 -247 b 192 -226 150 -247 176 -244 b 354 67 278 -129 307 -85 b 372 143 371 118 372 133 b 353 233 372 164 371 179 b 289 276 344 256 326 274 b 176 283 263 279 218 283 b 107 238 140 283 135 278 b 76 161 82 200 76 189 b 107 33 76 132 107 64 b 75 -164 107 -24 75 -111 z m 267 440 b 329 464 296 440 314 447 b 363 638 347 482 363 513 b 324 743 363 686 347 722 b 181 760 306 758 281 760 b 81 618 90 760 81 715 b 117 474 81 560 82 508 b 267 440 143 447 176 440 z "},"<":{"ha":835,"x_min":0,"x_max":0,"o":"m 42 424 b 60 367 42 404 50 385 b 131 283 88 310 100 299 l 643 25 b 676 11 658 17 672 11 b 763 75 710 11 747 56 b 779 142 775 90 779 110 b 736 222 779 190 772 204 l 393 390 b 369 421 374 399 369 406 b 385 446 369 432 375 440 l 757 653 b 776 707 775 664 776 690 b 760 801 776 760 772 783 b 668 844 740 829 700 844 b 636 838 657 844 649 844 l 96 521 b 42 424 74 499 42 465 z "},"=":{"ha":835,"x_min":0,"x_max":0,"o":"m 35 197 b 106 111 35 160 67 111 b 722 126 335 111 536 117 b 769 161 744 126 761 140 b 786 253 781 193 786 222 b 763 319 786 290 779 306 b 621 338 738 339 733 338 b 106 331 411 338 242 335 b 58 304 81 329 68 326 b 35 197 46 276 35 217 z m 35 571 b 106 485 35 533 67 485 b 722 499 335 485 536 490 b 769 535 744 500 761 514 b 786 626 781 567 786 596 b 763 693 786 664 779 679 b 621 711 738 713 733 711 b 106 704 411 711 242 708 b 58 678 81 703 68 700 b 35 571 46 650 35 590 z "},">":{"ha":835,"x_min":0,"x_max":0,"o":"m 768 433 b 750 490 768 453 760 471 b 679 572 722 547 710 557 l 168 832 b 133 844 151 840 138 844 b 47 782 100 844 63 801 b 31 715 35 767 31 747 b 75 635 31 667 39 651 l 417 467 b 442 435 436 457 442 450 b 426 411 442 425 435 417 l 54 204 b 33 149 35 193 33 167 b 50 56 33 97 39 74 b 142 11 69 26 111 11 b 174 18 153 11 161 11 l 715 336 b 768 433 736 358 768 392 z "},"?":{"ha":556,"x_min":0,"x_max":0,"o":"m 96 118 b 97 47 96 96 96 68 b 206 -39 104 -4 161 -39 l 301 -39 b 378 54 343 -39 378 0 l 378 133 b 343 214 378 172 365 194 b 200 235 324 233 293 235 b 121 214 160 235 138 233 b 96 118 101 190 96 147 z m 128 429 b 218 321 128 376 169 321 b 326 385 281 321 311 344 b 413 494 347 431 374 463 b 514 729 479 553 514 635 b 408 938 514 819 472 882 b 97 1029 325 1008 224 1029 b 31 904 47 1029 31 951 b 69 811 31 869 32 826 b 154 785 96 801 125 794 b 233 675 201 769 233 731 b 210 606 233 647 228 636 l 154 514 b 128 429 136 485 128 460 z "},"@":{"ha":1096,"x_min":0,"x_max":0,"o":"m 485 -357 b 567 -290 524 -357 546 -325 b 589 -237 586 -258 589 -247 b 531 -143 589 -211 574 -154 b 285 7 428 -117 353 -101 b 231 204 247 68 231 117 b 574 571 231 394 365 571 b 886 317 746 571 886 499 b 872 222 886 265 881 240 b 817 164 864 197 846 164 b 779 204 794 164 782 183 l 754 357 b 656 433 746 406 700 433 b 497 403 600 433 542 421 b 382 210 422 371 382 272 b 549 11 382 119 456 11 b 688 47 600 11 665 47 b 753 32 718 47 736 39 b 835 11 785 17 818 11 b 1057 328 1021 11 1057 226 b 560 749 1057 633 808 749 b 32 169 229 749 32 517 b 147 -183 32 25 68 -85 b 485 -357 247 -311 375 -357 z m 542 222 b 596 288 542 257 557 288 b 643 208 632 288 643 251 b 593 154 643 185 638 154 b 542 222 550 154 542 200 z "},"A":{"ha":885,"x_min":0,"x_max":0,"o":"m 453 200 b 553 153 515 200 538 197 l 593 31 b 643 -12 601 6 619 -10 b 760 -25 683 -18 721 -25 b 869 81 811 -25 869 33 b 863 118 869 90 868 101 l 650 858 b 604 888 643 881 622 888 b 278 836 571 888 333 846 b 228 794 256 831 235 815 l 33 175 b 39 128 28 157 32 142 l 78 39 b 144 7 88 17 107 7 b 314 44 265 7 306 10 l 342 168 b 361 192 343 179 351 188 b 453 200 374 199 385 200 z m 378 447 b 392 533 378 469 385 504 b 460 586 399 565 421 586 b 499 563 472 586 492 581 b 522 453 507 531 521 475 b 442 404 528 410 500 404 b 378 447 410 404 378 406 z "},"B":{"ha":865,"x_min":0,"x_max":0,"o":"m 47 53 b 161 -65 47 11 131 -65 b 583 -57 233 -65 468 -61 b 799 160 715 -51 799 35 b 756 310 799 240 785 272 b 700 382 736 335 700 368 b 750 444 700 406 701 392 b 801 522 783 482 794 499 b 814 640 810 556 814 575 b 563 861 814 782 707 861 b 510 860 547 861 529 861 b 133 826 378 851 236 838 b 76 769 97 822 79 806 b 47 53 65 571 47 140 z m 321 242 b 344 311 322 286 326 299 b 465 322 354 318 389 322 b 542 250 507 322 542 299 b 381 169 542 185 488 169 b 321 242 326 169 321 196 z m 321 554 b 453 614 321 614 365 614 b 549 535 507 614 549 594 b 438 454 549 481 521 454 b 321 554 332 454 321 463 z "},"C":{"ha":744,"x_min":0,"x_max":0,"o":"m 481 -49 b 610 -40 554 -49 571 -47 b 664 19 629 -37 639 -26 b 689 99 686 64 689 74 b 664 203 689 115 672 175 b 614 239 657 225 633 239 b 519 233 582 239 550 233 b 318 443 382 233 318 319 b 467 631 318 556 371 621 b 621 643 497 635 594 639 b 664 681 646 646 658 660 b 676 758 669 707 676 733 b 636 858 676 781 672 806 b 556 900 610 896 603 900 b 226 818 442 900 299 865 b 39 422 69 721 39 574 b 113 153 39 324 65 233 b 481 -49 204 0 338 -49 z "},"D":{"ha":881,"x_min":0,"x_max":0,"o":"m 53 117 b 124 -6 53 72 65 53 b 213 -50 161 -43 190 -50 b 253 -43 219 -50 226 -50 b 597 63 354 -18 536 35 b 844 485 769 143 844 314 b 749 785 844 557 829 694 b 553 868 697 840 628 868 b 115 836 389 868 250 851 b 68 786 88 832 68 813 b 53 117 64 693 53 207 z m 335 314 b 328 574 332 343 328 522 b 447 628 328 618 351 628 b 561 504 507 628 561 618 b 376 282 561 358 496 282 b 335 314 349 282 338 294 z "},"E":{"ha":754,"x_min":0,"x_max":0,"o":"m 40 63 b 179 -47 40 22 144 -47 b 610 -39 356 -47 524 -46 b 690 15 644 -37 658 -29 b 721 92 718 54 721 65 b 701 193 721 115 713 163 b 644 217 697 204 682 217 b 400 207 564 217 482 207 b 344 265 364 207 344 218 b 386 324 344 306 356 321 b 615 338 421 326 539 332 b 675 378 643 340 664 346 b 685 421 679 392 685 407 b 621 493 685 457 665 492 b 371 501 571 496 435 496 b 335 557 343 504 335 521 b 374 603 335 586 342 600 l 621 622 b 675 665 651 625 665 639 b 706 776 686 697 706 750 b 696 806 706 788 703 794 b 604 872 654 865 650 872 b 107 842 481 872 257 853 b 71 806 88 840 71 822 b 40 63 61 558 40 156 z "},"F":{"ha":729,"x_min":0,"x_max":0,"o":"m 39 61 b 108 -4 39 31 61 17 b 200 -36 158 -26 186 -36 b 269 -21 217 -36 226 -36 b 349 39 331 0 349 10 l 349 243 b 382 276 349 265 364 276 b 607 283 454 276 540 279 b 678 414 672 286 678 419 b 606 482 678 442 647 482 l 340 482 b 308 532 317 482 308 514 b 358 613 308 567 314 610 b 635 628 426 615 593 618 b 692 757 678 636 692 669 b 663 836 692 790 690 801 b 574 893 618 890 607 893 b 111 865 479 893 244 875 b 67 824 82 863 68 847 b 39 61 54 640 39 378 z "},"G":{"ha":871,"x_min":0,"x_max":0,"o":"m 458 -39 b 729 3 558 -39 643 -21 b 786 47 765 11 783 29 b 818 450 803 183 818 406 b 782 506 818 476 815 501 b 572 521 747 508 607 521 b 486 464 517 521 499 499 b 474 413 478 442 474 425 b 565 308 474 356 565 368 b 463 215 565 233 531 215 b 293 406 356 215 293 290 b 531 625 293 564 388 625 b 606 624 553 625 578 624 b 707 664 665 624 686 626 l 739 721 b 749 751 744 732 749 743 b 732 792 749 764 743 779 l 678 851 b 539 881 654 876 629 881 b 25 442 269 881 25 729 b 88 151 25 338 32 229 b 458 -39 160 35 289 -39 z "},"H":{"ha":868,"x_min":0,"x_max":0,"o":"m 510 319 b 526 285 519 313 525 301 l 540 31 b 639 -19 543 -11 606 -19 b 744 4 667 -19 704 -10 b 788 60 769 13 786 32 b 822 765 796 167 822 690 b 783 829 822 794 814 817 b 694 853 751 842 725 853 b 625 844 681 853 654 850 b 543 788 554 829 543 819 l 543 574 b 483 522 543 532 511 522 b 379 526 439 522 406 525 b 332 571 356 528 332 543 l 332 817 b 236 871 332 865 271 871 b 117 839 204 871 189 869 b 49 768 56 813 49 799 b 67 96 49 693 58 190 b 100 46 68 75 83 56 b 169 10 110 40 158 14 b 201 3 181 4 190 3 b 263 18 224 3 244 11 b 328 78 310 38 326 49 b 332 303 331 156 332 271 b 363 336 332 319 342 336 b 510 319 471 336 496 331 z "},"I":{"ha":426,"x_min":0,"x_max":0,"o":"m 65 117 b 142 18 65 72 75 64 b 236 -29 210 -26 221 -29 b 301 1 250 -29 261 -26 b 369 79 367 47 369 53 b 353 743 369 350 360 600 b 306 832 350 786 339 801 b 235 869 271 863 264 869 b 164 854 224 869 204 865 b 81 783 100 838 82 824 b 65 117 75 706 65 264 z "},"J":{"ha":494,"x_min":0,"x_max":0,"o":"m -103 -260 b -90 -315 -103 -282 -97 -299 b -25 -364 -76 -342 -58 -364 b 211 -344 8 -364 133 -353 b 343 -264 265 -339 310 -312 b 404 -115 397 -187 404 -161 b 418 801 404 78 418 760 b 344 883 418 849 411 857 b 276 901 308 899 292 901 b 179 874 247 901 233 897 b 97 794 110 844 97 838 b 108 -36 97 478 108 221 b 40 -111 108 -71 83 -96 b -49 -142 11 -124 -18 -129 b -90 -183 -68 -149 -83 -164 b -103 -260 -100 -218 -103 -233 z "},"K":{"ha":847,"x_min":0,"x_max":0,"o":"m 379 311 b 415 283 399 311 410 301 b 497 4 444 193 471 90 b 536 -37 501 -11 517 -32 b 611 -51 561 -44 586 -47 b 694 -58 643 -57 671 -58 b 767 -32 714 -58 733 -53 b 828 32 811 -4 828 10 b 818 72 828 40 826 50 b 678 415 778 183 719 311 b 668 456 668 440 668 449 b 678 490 668 468 669 474 b 824 751 722 576 772 658 b 836 789 833 768 836 775 b 768 875 836 825 792 871 b 626 893 676 890 635 892 b 572 872 590 893 578 881 b 421 599 519 779 471 690 b 385 574 411 582 399 574 b 357 618 363 574 357 600 b 367 779 357 672 367 726 b 249 869 367 836 299 869 b 172 863 238 869 217 868 b 88 813 107 854 90 843 b 31 114 72 657 31 269 b 76 17 31 65 63 32 b 154 -35 97 -7 133 -35 b 253 -3 179 -35 226 -15 b 351 75 335 33 351 46 b 347 283 351 101 347 240 b 379 311 347 301 365 311 z "},"L":{"ha":744,"x_min":0,"x_max":0,"o":"m 43 126 b 140 6 43 57 75 11 b 617 -14 263 -4 457 -14 b 672 22 650 -14 667 8 b 714 144 701 97 714 133 b 701 190 714 154 713 164 b 632 256 683 240 665 256 b 340 253 574 256 368 253 b 303 307 311 253 303 281 b 326 786 303 356 326 703 b 290 844 326 822 304 840 b 183 875 257 857 210 875 b 100 847 154 875 126 860 b 68 801 82 839 68 821 b 43 126 64 742 43 243 z "},"M":{"ha":1021,"x_min":0,"x_max":0,"o":"m 714 421 b 729 394 724 421 726 414 b 743 32 735 336 738 97 b 810 -28 744 -4 761 -18 b 853 -35 829 -32 844 -35 b 931 -11 871 -35 888 -32 b 994 54 986 17 994 24 b 935 767 994 188 950 651 b 860 840 931 801 915 817 b 781 861 822 857 800 861 b 700 849 771 861 750 858 b 603 790 635 835 617 829 b 535 535 578 719 560 615 b 515 518 533 526 524 518 b 497 535 507 518 499 526 b 431 803 479 593 454 718 b 353 861 421 836 403 847 b 292 871 332 867 310 871 b 206 854 276 871 258 867 b 122 829 181 849 147 839 b 89 789 103 822 90 811 b 35 113 68 610 35 140 b 106 21 35 75 47 61 b 194 -19 151 -11 172 -19 b 289 35 226 -19 285 -10 b 307 418 299 147 303 347 b 322 436 308 432 314 436 b 342 418 332 436 336 433 b 454 22 365 349 415 146 b 519 -17 464 -11 489 -17 b 600 22 565 -17 592 -10 b 696 401 635 136 663 279 b 714 421 700 415 706 421 z "},"N":{"ha":844,"x_min":0,"x_max":0,"o":"m 322 281 b 353 263 335 281 346 274 b 543 -31 417 164 478 60 b 664 -76 564 -60 638 -76 b 733 -60 686 -76 711 -68 b 783 -11 758 -49 783 -39 b 779 747 783 132 782 704 b 744 806 779 765 772 779 b 692 833 724 826 714 833 b 631 815 679 833 665 829 b 561 760 574 793 563 783 b 556 497 557 681 556 556 b 528 472 556 482 542 472 b 514 476 521 472 519 472 b 492 497 507 481 493 496 l 288 794 b 226 838 263 829 244 838 b 158 818 211 838 193 832 b 69 743 86 790 71 774 b 49 96 51 214 49 118 b 86 39 49 76 65 54 b 147 15 115 19 125 15 b 211 25 167 15 178 18 b 292 90 272 40 292 50 b 290 242 292 133 290 189 b 322 281 290 265 303 281 z "},"O":{"ha":867,"x_min":0,"x_max":0,"o":"m 422 -57 b 839 435 715 -57 839 125 b 429 881 839 710 722 881 b 32 363 164 881 0 669 b 422 -57 54 135 182 -57 z m 290 431 b 440 625 290 526 335 625 b 579 426 538 625 579 517 b 442 229 579 346 536 229 b 290 431 335 229 290 346 z "},"P":{"ha":843,"x_min":0,"x_max":0,"o":"m 28 79 b 139 -42 31 0 110 -42 b 324 1 165 -42 276 -15 b 356 50 343 8 356 25 b 350 171 356 71 350 144 b 392 215 350 199 358 211 b 656 256 485 229 608 242 b 815 576 782 289 815 426 b 735 799 815 668 788 744 b 535 882 679 853 608 882 b 97 828 474 882 199 838 b 64 783 75 825 65 808 b 28 79 53 524 28 200 z m 328 456 b 321 614 321 496 321 514 b 436 650 321 643 365 650 b 550 543 517 650 550 608 b 500 443 550 499 539 464 b 369 421 478 432 382 421 b 328 456 349 421 332 433 z "},"Q":{"ha":881,"x_min":0,"x_max":0,"o":"m 547 -49 b 686 -228 607 -140 647 -197 b 781 -253 714 -249 744 -253 b 849 -226 800 -253 814 -250 b 913 -132 906 -186 913 -175 b 878 -37 913 -76 908 -64 b 757 101 839 -3 799 36 b 749 138 749 114 749 126 b 814 235 749 157 782 168 b 854 436 836 282 854 368 b 458 878 854 693 717 878 b 32 410 203 878 32 724 b 413 -39 32 200 110 -39 b 507 -28 443 -39 490 -28 b 547 -49 518 -28 535 -31 z m 264 404 b 449 626 264 517 304 626 b 619 393 586 626 619 504 b 582 307 619 357 607 307 b 554 328 571 307 565 315 b 488 361 535 350 522 361 b 394 294 474 361 394 335 b 399 242 394 272 399 257 b 371 217 399 228 397 217 b 264 404 304 217 264 331 z "},"R":{"ha":865,"x_min":0,"x_max":0,"o":"m 408 306 b 449 278 433 306 444 296 b 503 39 471 197 482 108 b 625 -81 535 -71 561 -81 b 771 -21 707 -81 714 -78 b 824 49 821 29 824 36 b 813 90 824 65 822 76 b 722 267 779 144 750 201 b 693 361 699 325 693 343 b 738 432 693 382 703 393 b 814 621 779 478 814 539 b 686 833 814 708 763 788 b 476 881 625 871 550 881 b 140 856 364 881 250 865 b 97 817 119 853 99 838 b 36 128 83 700 36 228 b 61 54 36 97 43 79 b 132 6 92 13 100 6 b 310 32 163 6 263 21 b 342 83 331 38 342 61 b 333 242 342 138 333 190 b 408 306 333 289 358 306 z m 331 567 b 374 633 331 593 332 633 b 518 618 478 633 497 632 b 542 567 533 607 542 592 b 493 497 542 535 525 504 b 378 485 478 493 396 485 b 331 567 335 485 331 503 z "},"S":{"ha":624,"x_min":0,"x_max":0,"o":"m 79 -237 b 167 -243 107 -240 138 -243 b 422 -165 257 -243 351 -222 b 550 94 507 -99 550 -6 b 518 289 550 182 538 236 b 396 525 496 347 444 447 b 349 643 368 569 349 614 b 422 711 349 685 372 700 b 536 735 457 718 503 711 b 563 833 551 744 563 811 b 499 938 563 863 528 931 b 406 946 478 942 443 946 b 193 897 339 946 250 932 b 63 674 111 847 63 763 b 99 518 63 608 76 568 b 222 250 133 438 188 329 b 257 135 243 203 257 169 b 186 31 257 90 229 47 b 22 -32 128 6 42 14 b 4 -133 11 -60 4 -103 b 35 -212 4 -151 22 -189 b 79 -237 44 -228 56 -233 z "},"T":{"ha":819,"x_min":0,"x_max":0,"o":"m 392 -31 b 479 -8 418 -31 442 -22 b 550 44 542 14 550 21 b 540 508 550 232 540 369 b 586 569 540 547 550 569 b 715 567 618 569 679 567 b 775 650 749 567 758 586 b 789 722 782 674 789 699 b 754 801 789 753 785 765 b 654 857 718 846 708 857 b 118 844 461 857 289 851 b 58 806 90 843 72 829 b 28 736 46 785 28 763 b 50 656 28 726 33 710 b 72 586 57 632 64 608 b 126 558 81 564 108 558 b 221 563 158 558 190 563 b 283 508 269 563 283 549 b 269 65 283 467 269 182 b 325 -3 269 38 282 24 b 392 -31 364 -25 375 -31 z "},"U":{"ha":901,"x_min":0,"x_max":0,"o":"m 129 13 b 288 -60 204 -51 232 -60 b 729 -35 413 -60 686 -42 b 807 7 743 -32 769 -24 b 847 107 844 38 847 51 b 829 781 842 374 836 578 b 751 847 829 819 810 829 b 675 865 708 860 697 865 b 603 836 650 865 635 860 b 563 757 568 808 563 794 b 574 250 563 581 574 415 b 444 190 574 204 506 190 b 344 257 378 190 344 204 b 346 783 344 372 346 682 b 276 856 346 829 331 838 b 226 865 256 863 243 865 b 158 851 204 865 194 863 b 56 765 68 822 60 810 b 42 176 51 693 42 374 b 129 13 42 100 44 85 z "},"V":{"ha":889,"x_min":0,"x_max":0,"o":"m 53 682 b 260 72 118 478 192 267 b 353 -4 275 28 283 18 b 425 -18 378 -12 401 -18 b 497 -6 453 -18 478 -11 b 572 38 546 7 564 17 b 844 682 665 247 754 468 b 853 718 850 696 851 706 b 804 799 853 742 849 754 b 722 840 768 835 756 840 b 615 788 675 840 632 839 b 474 382 572 657 524 517 b 442 354 465 361 457 354 b 414 382 426 354 418 363 b 326 799 388 510 363 661 b 214 844 318 835 247 844 b 118 813 188 844 176 840 b 38 742 47 779 38 765 b 53 682 38 721 47 699 z "},"W":{"ha":1188,"x_min":0,"x_max":0,"o":"m 39 758 b 156 26 39 721 111 256 b 274 -32 161 -3 188 -17 b 378 -47 321 -42 344 -47 b 458 -12 408 -47 426 -39 b 513 61 499 18 506 32 b 571 319 533 147 551 233 b 596 342 575 335 585 342 b 619 321 607 342 615 335 b 690 31 643 231 671 121 b 799 -26 696 4 714 -4 b 885 -40 829 -35 865 -40 b 967 -24 910 -40 928 -39 b 1038 46 1022 1 1031 8 b 1154 683 1078 244 1122 482 b 1160 740 1158 706 1160 722 b 1117 824 1160 779 1153 789 b 1049 860 1089 851 1076 860 b 989 851 1033 860 1011 857 b 901 779 919 831 904 821 b 865 354 892 650 874 422 b 844 329 865 342 858 329 b 821 350 829 329 822 340 b 724 776 796 458 758 639 b 665 817 717 806 694 817 b 528 810 608 817 547 814 b 489 771 508 807 493 789 b 392 349 456 640 401 388 b 368 326 386 333 379 326 b 347 350 356 326 349 338 b 313 781 333 482 325 642 b 213 860 310 817 244 860 b 125 832 190 860 174 854 b 39 758 49 797 39 788 z "},"X":{"ha":903,"x_min":0,"x_max":0,"o":"m 32 49 b 121 -26 32 6 54 -1 b 207 -50 168 -44 190 -50 b 265 -25 226 -50 250 -33 b 322 24 286 -11 313 1 b 414 233 357 90 388 172 b 444 256 421 246 431 256 b 476 232 458 256 468 247 b 574 25 513 161 542 89 b 674 -31 590 -8 606 -21 b 749 -39 704 -35 726 -39 b 825 -21 764 -39 796 -33 b 878 35 864 -4 878 10 b 864 101 878 68 875 81 b 685 407 808 199 735 317 b 674 440 678 419 674 429 b 681 464 674 449 676 456 b 819 688 726 543 772 614 b 844 760 838 717 844 732 b 803 829 844 794 838 808 b 726 850 769 849 765 850 b 599 806 664 850 615 842 b 494 593 564 736 535 664 b 461 571 486 579 478 571 b 432 592 449 571 436 579 b 356 774 407 651 379 721 b 279 835 342 804 328 815 b 208 853 240 850 222 853 b 147 835 196 853 182 850 b 75 751 90 808 75 788 b 83 714 75 738 76 726 b 224 467 121 642 182 544 b 231 442 226 461 231 451 b 224 417 231 431 226 421 b 43 88 163 307 97 194 b 32 49 39 78 32 61 z "},"Y":{"ha":890,"x_min":0,"x_max":0,"o":"m 213 -221 b 254 -306 213 -256 219 -262 b 343 -360 290 -349 300 -360 b 594 -336 417 -360 518 -349 b 740 -232 646 -328 667 -312 b 815 -118 799 -169 813 -143 b 842 754 824 -25 842 700 b 774 838 842 804 828 817 b 711 853 739 850 729 853 b 642 831 693 853 679 847 b 571 740 586 807 571 793 b 572 372 571 656 572 494 b 543 328 572 351 560 336 b 404 314 517 315 433 314 b 343 369 351 314 343 347 b 357 758 343 443 357 633 b 299 839 357 807 343 819 b 243 856 268 851 256 856 b 161 835 224 856 211 851 b 97 810 140 828 118 819 b 68 767 81 803 69 783 b 54 306 65 732 54 399 b 118 156 54 246 63 225 b 251 67 178 79 207 67 b 503 90 286 67 464 90 b 557 32 544 90 557 75 b 482 -71 557 -22 533 -46 b 274 -110 454 -85 404 -87 b 222 -168 238 -115 226 -147 b 213 -221 214 -200 213 -211 z "},"Z":{"ha":806,"x_min":0,"x_max":0,"o":"m 157 -39 b 700 -15 228 -39 624 -19 b 760 67 740 -12 744 18 b 772 133 768 93 772 111 b 751 200 772 150 769 161 b 679 250 736 239 724 250 b 485 238 617 250 554 238 b 449 267 464 238 449 244 b 464 299 449 276 451 283 b 721 657 522 378 651 564 b 744 718 736 679 744 699 b 700 829 744 761 735 797 b 626 846 681 846 650 846 b 100 829 556 846 265 838 b 29 721 43 825 29 722 b 47 658 29 704 33 693 b 118 597 67 607 78 597 b 335 610 160 597 289 610 b 365 585 356 610 365 594 b 354 554 365 574 363 565 b 56 189 251 426 143 300 b 40 133 43 172 40 157 b 157 -39 40 71 85 -39 z "},"[":{"ha":654,"x_min":0,"x_max":0,"o":"m 143 -322 b 240 -387 143 -360 207 -387 b 524 -392 299 -387 429 -392 b 586 -324 542 -392 564 -375 b 614 -236 606 -279 614 -250 b 593 -178 614 -219 613 -212 b 529 -129 574 -142 560 -129 l 422 -129 b 363 -39 382 -129 363 -117 b 369 874 363 340 364 607 b 424 931 369 897 390 931 b 578 928 471 931 525 928 b 636 983 607 928 619 946 b 657 1046 647 1004 657 1031 b 607 1140 657 1071 625 1126 b 560 1151 599 1146 586 1151 b 240 1147 403 1151 304 1151 b 161 1071 204 1146 161 1114 b 143 -322 158 901 143 53 z "},"\\":{"ha":815,"x_min":0,"x_max":0,"o":"m 743 -247 b 794 -179 758 -239 794 -212 b 783 -146 794 -167 790 -158 l 190 968 b 150 994 183 983 168 994 b 47 958 132 994 75 979 b -17 853 28 944 -17 881 b 1 804 -17 836 -11 826 l 549 -233 b 614 -279 569 -269 590 -279 b 743 -247 654 -279 708 -268 z "},"]":{"ha":654,"x_min":0,"x_max":0,"o":"m 528 -322 b 510 1071 528 53 513 901 b 429 1147 508 1114 467 1146 b 111 1151 367 1151 268 1151 b 64 1140 83 1151 72 1146 b 14 1046 46 1126 14 1071 b 33 983 14 1031 24 1004 b 93 928 51 946 64 928 b 247 931 146 928 200 931 b 300 874 281 931 300 897 b 307 -39 306 607 307 340 b 247 -129 307 -117 289 -129 l 140 -129 b 76 -178 111 -129 97 -142 b 57 -236 58 -212 57 -219 b 85 -324 57 -250 65 -279 b 147 -392 107 -375 129 -392 b 431 -387 240 -392 372 -387 b 528 -322 464 -387 528 -360 z "},"^":{"ha":750,"x_min":0,"x_max":0,"o":"m 369 550 b 396 532 383 550 392 542 l 514 324 b 585 297 526 303 542 297 b 688 342 626 297 672 301 b 707 415 694 360 706 393 b 696 443 707 422 706 428 l 472 815 b 375 875 449 854 396 875 b 303 850 357 875 346 872 b 244 806 263 829 251 818 b 54 446 181 679 106 544 b 42 410 43 424 42 415 b 81 343 42 392 58 365 b 172 306 108 315 135 306 b 251 343 207 306 238 311 b 339 526 276 401 308 467 b 369 550 347 542 356 550 z "},"_":{"ha":872,"x_min":0,"x_max":0,"o":"m 18 -190 b 89 -278 18 -229 49 -278 b 786 -262 317 -278 600 -272 b 833 -226 808 -262 825 -249 b 851 -136 844 -196 851 -167 b 826 -69 851 -97 843 -82 b 685 -51 804 -53 797 -51 b 89 -58 475 -51 225 -54 b 40 -85 63 -60 51 -62 b 18 -190 28 -112 18 -172 z "},"`":{"ha":428,"x_min":0,"x_max":0,"o":"m 374 857 b 361 904 374 883 371 894 b 193 1049 299 967 242 1011 b 140 1067 172 1065 158 1067 b 28 965 75 1067 28 1049 b 54 911 28 946 32 925 b 256 778 118 872 188 826 b 296 765 268 769 281 765 b 374 857 335 765 374 811 z "},"a":{"ha":885,"x_min":0,"x_max":0,"o":"m 453 200 b 553 153 515 200 538 197 l 593 31 b 643 -12 601 6 619 -10 b 760 -25 683 -18 721 -25 b 869 81 811 -25 869 33 b 863 118 869 90 868 101 l 650 858 b 604 888 643 881 622 888 b 278 836 571 888 333 846 b 228 794 256 831 235 815 l 33 175 b 39 128 28 157 32 142 l 78 39 b 144 7 88 17 107 7 b 314 44 265 7 306 10 l 342 168 b 361 192 343 179 351 188 b 453 200 374 199 385 200 z m 378 447 b 392 533 378 469 385 504 b 460 586 399 565 421 586 b 499 563 472 586 492 581 b 522 453 507 531 521 475 b 442 404 528 410 500 404 b 378 447 410 404 378 406 z "},"b":{"ha":865,"x_min":0,"x_max":0,"o":"m 47 53 b 161 -65 47 11 131 -65 b 583 -57 233 -65 468 -61 b 799 160 715 -51 799 35 b 756 310 799 240 785 272 b 700 382 736 335 700 368 b 750 444 700 406 701 392 b 801 522 783 482 794 499 b 814 640 810 556 814 575 b 563 861 814 782 707 861 b 510 860 547 861 529 861 b 133 826 378 851 236 838 b 76 769 97 822 79 806 b 47 53 65 571 47 140 z m 321 242 b 344 311 322 286 326 299 b 465 322 354 318 389 322 b 542 250 507 322 542 299 b 381 169 542 185 488 169 b 321 242 326 169 321 196 z m 321 554 b 453 614 321 614 365 614 b 549 535 507 614 549 594 b 438 454 549 481 521 454 b 321 554 332 454 321 463 z "},"c":{"ha":744,"x_min":0,"x_max":0,"o":"m 481 -49 b 610 -40 554 -49 571 -47 b 664 19 629 -37 639 -26 b 689 99 686 64 689 74 b 664 203 689 115 672 175 b 614 239 657 225 633 239 b 519 233 582 239 550 233 b 318 443 382 233 318 319 b 467 631 318 556 371 621 b 621 643 497 635 594 639 b 664 681 646 646 658 660 b 676 758 669 707 676 733 b 636 858 676 781 672 806 b 556 900 610 896 603 900 b 226 818 442 900 299 865 b 39 422 69 721 39 574 b 113 153 39 324 65 233 b 481 -49 204 0 338 -49 z "},"d":{"ha":881,"x_min":0,"x_max":0,"o":"m 53 117 b 124 -6 53 72 65 53 b 213 -50 161 -43 190 -50 b 253 -43 219 -50 226 -50 b 597 63 354 -18 536 35 b 844 485 769 143 844 314 b 749 785 844 557 829 694 b 553 868 697 840 628 868 b 115 836 389 868 250 851 b 68 786 88 832 68 813 b 53 117 64 693 53 207 z m 335 314 b 328 574 332 343 328 522 b 447 628 328 618 351 628 b 561 504 507 628 561 618 b 376 282 561 358 496 282 b 335 314 349 282 338 294 z "},"e":{"ha":754,"x_min":0,"x_max":0,"o":"m 40 63 b 179 -47 40 22 144 -47 b 610 -39 356 -47 524 -46 b 690 15 644 -37 658 -29 b 721 92 718 54 721 65 b 701 193 721 115 713 163 b 644 217 697 204 682 217 b 400 207 564 217 482 207 b 344 265 364 207 344 218 b 386 324 344 306 356 321 b 615 338 421 326 539 332 b 675 378 643 340 664 346 b 685 421 679 392 685 407 b 621 493 685 457 665 492 b 371 501 571 496 435 496 b 335 557 343 504 335 521 b 374 603 335 586 342 600 l 621 622 b 675 665 651 625 665 639 b 706 776 686 697 706 750 b 696 806 706 788 703 794 b 604 872 654 865 650 872 b 107 842 481 872 257 853 b 71 806 88 840 71 822 b 40 63 61 558 40 156 z "},"f":{"ha":729,"x_min":0,"x_max":0,"o":"m 39 61 b 108 -4 39 31 61 17 b 200 -36 158 -26 186 -36 b 269 -21 217 -36 226 -36 b 349 39 331 0 349 10 l 349 243 b 382 276 349 265 364 276 b 607 283 454 276 540 279 b 678 414 672 286 678 419 b 606 482 678 442 647 482 l 340 482 b 308 532 317 482 308 514 b 358 613 308 567 314 610 b 635 628 426 615 593 618 b 692 757 678 636 692 669 b 663 836 692 790 690 801 b 574 893 618 890 607 893 b 111 865 479 893 244 875 b 67 824 82 863 68 847 b 39 61 54 640 39 378 z "},"g":{"ha":871,"x_min":0,"x_max":0,"o":"m 458 -39 b 729 3 558 -39 643 -21 b 786 47 765 11 783 29 b 818 450 803 183 818 406 b 782 506 818 476 815 501 b 572 521 747 508 607 521 b 486 464 517 521 499 499 b 474 413 478 442 474 425 b 565 308 474 356 565 368 b 463 215 565 233 531 215 b 293 406 356 215 293 290 b 531 625 293 564 388 625 b 606 624 553 625 578 624 b 707 664 665 624 686 626 l 739 721 b 749 751 744 732 749 743 b 732 792 749 764 743 779 l 678 851 b 539 881 654 876 629 881 b 25 442 269 881 25 729 b 88 151 25 338 32 229 b 458 -39 160 35 289 -39 z "},"h":{"ha":868,"x_min":0,"x_max":0,"o":"m 510 319 b 526 285 519 313 525 301 l 540 31 b 639 -19 543 -11 606 -19 b 744 4 667 -19 704 -10 b 788 60 769 13 786 32 b 822 765 796 167 822 690 b 783 829 822 794 814 817 b 694 853 751 842 725 853 b 625 844 681 853 654 850 b 543 788 554 829 543 819 l 543 574 b 483 522 543 532 511 522 b 379 526 439 522 406 525 b 332 571 356 528 332 543 l 332 817 b 236 871 332 865 271 871 b 117 839 204 871 189 869 b 49 768 56 813 49 799 b 67 96 49 693 58 190 b 100 46 68 75 83 56 b 169 10 110 40 158 14 b 201 3 181 4 190 3 b 263 18 224 3 244 11 b 328 78 310 38 326 49 b 332 303 331 156 332 271 b 363 336 332 319 342 336 b 510 319 471 336 496 331 z "},"i":{"ha":426,"x_min":0,"x_max":0,"o":"m 65 117 b 142 18 65 72 75 64 b 236 -29 210 -26 221 -29 b 301 1 250 -29 261 -26 b 369 79 367 47 369 53 b 353 743 369 350 360 600 b 306 832 350 786 339 801 b 235 869 271 863 264 869 b 164 854 224 869 204 865 b 81 783 100 838 82 824 b 65 117 75 706 65 264 z "},"j":{"ha":494,"x_min":0,"x_max":0,"o":"m -103 -260 b -90 -315 -103 -282 -97 -299 b -25 -364 -76 -342 -58 -364 b 211 -344 8 -364 133 -353 b 343 -264 265 -339 310 -312 b 404 -115 397 -187 404 -161 b 418 801 404 78 418 760 b 344 883 418 849 411 857 b 276 901 308 899 292 901 b 179 874 247 901 233 897 b 97 794 110 844 97 838 b 108 -36 97 478 108 221 b 40 -111 108 -71 83 -96 b -49 -142 11 -124 -18 -129 b -90 -183 -68 -149 -83 -164 b -103 -260 -100 -218 -103 -233 z "},"k":{"ha":847,"x_min":0,"x_max":0,"o":"m 379 311 b 415 283 399 311 410 301 b 497 4 444 193 471 90 b 536 -37 501 -11 517 -32 b 611 -51 561 -44 586 -47 b 694 -58 643 -57 671 -58 b 767 -32 714 -58 733 -53 b 828 32 811 -4 828 10 b 818 72 828 40 826 50 b 678 415 778 183 719 311 b 668 456 668 440 668 449 b 678 490 668 468 669 474 b 824 751 722 576 772 658 b 836 789 833 768 836 775 b 768 875 836 825 792 871 b 626 893 676 890 635 892 b 572 872 590 893 578 881 b 421 599 519 779 471 690 b 385 574 411 582 399 574 b 357 618 363 574 357 600 b 367 779 357 672 367 726 b 249 869 367 836 299 869 b 172 863 238 869 217 868 b 88 813 107 854 90 843 b 31 114 72 657 31 269 b 76 17 31 65 63 32 b 154 -35 97 -7 133 -35 b 253 -3 179 -35 226 -15 b 351 75 335 33 351 46 b 347 283 351 101 347 240 b 379 311 347 301 365 311 z "},"l":{"ha":744,"x_min":0,"x_max":0,"o":"m 43 126 b 140 6 43 57 75 11 b 617 -14 263 -4 457 -14 b 672 22 650 -14 667 8 b 714 144 701 97 714 133 b 701 190 714 154 713 164 b 632 256 683 240 665 256 b 340 253 574 256 368 253 b 303 307 311 253 303 281 b 326 786 303 356 326 703 b 290 844 326 822 304 840 b 183 875 257 857 210 875 b 100 847 154 875 126 860 b 68 801 82 839 68 821 b 43 126 64 742 43 243 z "},"m":{"ha":1021,"x_min":0,"x_max":0,"o":"m 714 421 b 729 394 724 421 726 414 b 743 32 735 336 738 97 b 810 -28 744 -4 761 -18 b 853 -35 829 -32 844 -35 b 931 -11 871 -35 888 -32 b 994 54 986 17 994 24 b 935 767 994 188 950 651 b 860 840 931 801 915 817 b 781 861 822 857 800 861 b 700 849 771 861 750 858 b 603 790 635 835 617 829 b 535 535 578 719 560 615 b 515 518 533 526 524 518 b 497 535 507 518 499 526 b 431 803 479 593 454 718 b 353 861 421 836 403 847 b 292 871 332 867 310 871 b 206 854 276 871 258 867 b 122 829 181 849 147 839 b 89 789 103 822 90 811 b 35 113 68 610 35 140 b 106 21 35 75 47 61 b 194 -19 151 -11 172 -19 b 289 35 226 -19 285 -10 b 307 418 299 147 303 347 b 322 436 308 432 314 436 b 342 418 332 436 336 433 b 454 22 365 349 415 146 b 519 -17 464 -11 489 -17 b 600 22 565 -17 592 -10 b 696 401 635 136 663 279 b 714 421 700 415 706 421 z "},"n":{"ha":844,"x_min":0,"x_max":0,"o":"m 322 281 b 353 263 335 281 346 274 b 543 -31 417 164 478 60 b 664 -76 564 -60 638 -76 b 733 -60 686 -76 711 -68 b 783 -11 758 -49 783 -39 b 779 747 783 132 782 704 b 744 806 779 765 772 779 b 692 833 724 826 714 833 b 631 815 679 833 665 829 b 561 760 574 793 563 783 b 556 497 557 681 556 556 b 528 472 556 482 542 472 b 514 476 521 472 519 472 b 492 497 507 481 493 496 l 288 794 b 226 838 263 829 244 838 b 158 818 211 838 193 832 b 69 743 86 790 71 774 b 49 96 51 214 49 118 b 86 39 49 76 65 54 b 147 15 115 19 125 15 b 211 25 167 15 178 18 b 292 90 272 40 292 50 b 290 242 292 133 290 189 b 322 281 290 265 303 281 z "},"o":{"ha":867,"x_min":0,"x_max":0,"o":"m 422 -57 b 839 435 715 -57 839 125 b 429 881 839 710 722 881 b 32 363 164 881 0 669 b 422 -57 54 135 182 -57 z m 290 431 b 440 625 290 526 335 625 b 579 426 538 625 579 517 b 442 229 579 346 536 229 b 290 431 335 229 290 346 z "},"p":{"ha":843,"x_min":0,"x_max":0,"o":"m 28 79 b 139 -42 31 0 110 -42 b 324 1 165 -42 276 -15 b 356 50 343 8 356 25 b 350 171 356 71 350 144 b 392 215 350 199 358 211 b 656 256 485 229 608 242 b 815 576 782 289 815 426 b 735 799 815 668 788 744 b 535 882 679 853 608 882 b 97 828 474 882 199 838 b 64 783 75 825 65 808 b 28 79 53 524 28 200 z m 328 456 b 321 614 321 496 321 514 b 436 650 321 643 365 650 b 550 543 517 650 550 608 b 500 443 550 499 539 464 b 369 421 478 432 382 421 b 328 456 349 421 332 433 z "},"q":{"ha":881,"x_min":0,"x_max":0,"o":"m 547 -49 b 686 -228 607 -140 647 -197 b 781 -253 714 -249 744 -253 b 849 -226 800 -253 814 -250 b 913 -132 906 -186 913 -175 b 878 -37 913 -76 908 -64 b 757 101 839 -3 799 36 b 749 138 749 114 749 126 b 814 235 749 157 782 168 b 854 436 836 282 854 368 b 458 878 854 693 717 878 b 32 410 203 878 32 724 b 413 -39 32 200 110 -39 b 507 -28 443 -39 490 -28 b 547 -49 518 -28 535 -31 z m 264 404 b 449 626 264 517 304 626 b 619 393 586 626 619 504 b 582 307 619 357 607 307 b 554 328 571 307 565 315 b 488 361 535 350 522 361 b 394 294 474 361 394 335 b 399 242 394 272 399 257 b 371 217 399 228 397 217 b 264 404 304 217 264 331 z "},"r":{"ha":865,"x_min":0,"x_max":0,"o":"m 408 306 b 449 278 433 306 444 296 b 503 39 471 197 482 108 b 625 -81 535 -71 561 -81 b 771 -21 707 -81 714 -78 b 824 49 821 29 824 36 b 813 90 824 65 822 76 b 722 267 779 144 750 201 b 693 361 699 325 693 343 b 738 432 693 382 703 393 b 814 621 779 478 814 539 b 686 833 814 708 763 788 b 476 881 625 871 550 881 b 140 856 364 881 250 865 b 97 817 119 853 99 838 b 36 128 83 700 36 228 b 61 54 36 97 43 79 b 132 6 92 13 100 6 b 310 32 163 6 263 21 b 342 83 331 38 342 61 b 333 242 342 138 333 190 b 408 306 333 289 358 306 z m 331 567 b 374 633 331 593 332 633 b 518 618 478 633 497 632 b 542 567 533 607 542 592 b 493 497 542 535 525 504 b 378 485 478 493 396 485 b 331 567 335 485 331 503 z "},"s":{"ha":624,"x_min":0,"x_max":0,"o":"m 79 -237 b 167 -243 107 -240 138 -243 b 422 -165 257 -243 351 -222 b 550 94 507 -99 550 -6 b 518 289 550 182 538 236 b 396 525 496 347 444 447 b 349 643 368 569 349 614 b 422 711 349 685 372 700 b 536 735 457 718 503 711 b 563 833 551 744 563 811 b 499 938 563 863 528 931 b 406 946 478 942 443 946 b 193 897 339 946 250 932 b 63 674 111 847 63 763 b 99 518 63 608 76 568 b 222 250 133 438 188 329 b 257 135 243 203 257 169 b 186 31 257 90 229 47 b 22 -32 128 6 42 14 b 4 -133 11 -60 4 -103 b 35 -212 4 -151 22 -189 b 79 -237 44 -228 56 -233 z "},"t":{"ha":819,"x_min":0,"x_max":0,"o":"m 392 -31 b 479 -8 418 -31 442 -22 b 550 44 542 14 550 21 b 540 508 550 232 540 369 b 586 569 540 547 550 569 b 715 567 618 569 679 567 b 775 650 749 567 758 586 b 789 722 782 674 789 699 b 754 801 789 753 785 765 b 654 857 718 846 708 857 b 118 844 461 857 289 851 b 58 806 90 843 72 829 b 28 736 46 785 28 763 b 50 656 28 726 33 710 b 72 586 57 632 64 608 b 126 558 81 564 108 558 b 221 563 158 558 190 563 b 283 508 269 563 283 549 b 269 65 283 467 269 182 b 325 -3 269 38 282 24 b 392 -31 364 -25 375 -31 z "},"u":{"ha":901,"x_min":0,"x_max":0,"o":"m 129 13 b 288 -60 204 -51 232 -60 b 729 -35 413 -60 686 -42 b 807 7 743 -32 769 -24 b 847 107 844 38 847 51 b 829 781 842 374 836 578 b 751 847 829 819 810 829 b 675 865 708 860 697 865 b 603 836 650 865 635 860 b 563 757 568 808 563 794 b 574 250 563 581 574 415 b 444 190 574 204 506 190 b 344 257 378 190 344 204 b 346 783 344 372 346 682 b 276 856 346 829 331 838 b 226 865 256 863 243 865 b 158 851 204 865 194 863 b 56 765 68 822 60 810 b 42 176 51 693 42 374 b 129 13 42 100 44 85 z "},"v":{"ha":889,"x_min":0,"x_max":0,"o":"m 53 682 b 260 72 118 478 192 267 b 353 -4 275 28 283 18 b 425 -18 378 -12 401 -18 b 497 -6 453 -18 478 -11 b 572 38 546 7 564 17 b 844 682 665 247 754 468 b 853 718 850 696 851 706 b 804 799 853 742 849 754 b 722 840 768 835 756 840 b 615 788 675 840 632 839 b 474 382 572 657 524 517 b 442 354 465 361 457 354 b 414 382 426 354 418 363 b 326 799 388 510 363 661 b 214 844 318 835 247 844 b 118 813 188 844 176 840 b 38 742 47 779 38 765 b 53 682 38 721 47 699 z "},"w":{"ha":1188,"x_min":0,"x_max":0,"o":"m 39 758 b 156 26 39 721 111 256 b 274 -32 161 -3 188 -17 b 378 -47 321 -42 344 -47 b 458 -12 408 -47 426 -39 b 513 61 499 18 506 32 b 571 319 533 147 551 233 b 596 342 575 335 585 342 b 619 321 607 342 615 335 b 690 31 643 231 671 121 b 799 -26 696 4 714 -4 b 885 -40 829 -35 865 -40 b 967 -24 910 -40 928 -39 b 1038 46 1022 1 1031 8 b 1154 683 1078 244 1122 482 b 1160 740 1158 706 1160 722 b 1117 824 1160 779 1153 789 b 1049 860 1089 851 1076 860 b 989 851 1033 860 1011 857 b 901 779 919 831 904 821 b 865 354 892 650 874 422 b 844 329 865 342 858 329 b 821 350 829 329 822 340 b 724 776 796 458 758 639 b 665 817 717 806 694 817 b 528 810 608 817 547 814 b 489 771 508 807 493 789 b 392 349 456 640 401 388 b 368 326 386 333 379 326 b 347 350 356 326 349 338 b 313 781 333 482 325 642 b 213 860 310 817 244 860 b 125 832 190 860 174 854 b 39 758 49 797 39 788 z "},"x":{"ha":903,"x_min":0,"x_max":0,"o":"m 32 49 b 121 -26 32 6 54 -1 b 207 -50 168 -44 190 -50 b 265 -25 226 -50 250 -33 b 322 24 286 -11 313 1 b 414 233 357 90 388 172 b 444 256 421 246 431 256 b 476 232 458 256 468 247 b 574 25 513 161 542 89 b 674 -31 590 -8 606 -21 b 749 -39 704 -35 726 -39 b 825 -21 764 -39 796 -33 b 878 35 864 -4 878 10 b 864 101 878 68 875 81 b 685 407 808 199 735 317 b 674 440 678 419 674 429 b 681 464 674 449 676 456 b 819 688 726 543 772 614 b 844 760 838 717 844 732 b 803 829 844 794 838 808 b 726 850 769 849 765 850 b 599 806 664 850 615 842 b 494 593 564 736 535 664 b 461 571 486 579 478 571 b 432 592 449 571 436 579 b 356 774 407 651 379 721 b 279 835 342 804 328 815 b 208 853 240 850 222 853 b 147 835 196 853 182 850 b 75 751 90 808 75 788 b 83 714 75 738 76 726 b 224 467 121 642 182 544 b 231 442 226 461 231 451 b 224 417 231 431 226 421 b 43 88 163 307 97 194 b 32 49 39 78 32 61 z "},"y":{"ha":890,"x_min":0,"x_max":0,"o":"m 213 -221 b 254 -306 213 -256 219 -262 b 343 -360 290 -349 300 -360 b 594 -336 417 -360 518 -349 b 740 -232 646 -328 667 -312 b 815 -118 799 -169 813 -143 b 842 754 824 -25 842 700 b 774 838 842 804 828 817 b 711 853 739 850 729 853 b 642 831 693 853 679 847 b 571 740 586 807 571 793 b 572 372 571 656 572 494 b 543 328 572 351 560 336 b 404 314 517 315 433 314 b 343 369 351 314 343 347 b 357 758 343 443 357 633 b 299 839 357 807 343 819 b 243 856 268 851 256 856 b 161 835 224 856 211 851 b 97 810 140 828 118 819 b 68 767 81 803 69 783 b 54 306 65 732 54 399 b 118 156 54 246 63 225 b 251 67 178 79 207 67 b 503 90 286 67 464 90 b 557 32 544 90 557 75 b 482 -71 557 -22 533 -46 b 274 -110 454 -85 404 -87 b 222 -168 238 -115 226 -147 b 213 -221 214 -200 213 -211 z "},"z":{"ha":806,"x_min":0,"x_max":0,"o":"m 157 -39 b 700 -15 228 -39 624 -19 b 760 67 740 -12 744 18 b 772 133 768 93 772 111 b 751 200 772 150 769 161 b 679 250 736 239 724 250 b 485 238 617 250 554 238 b 449 267 464 238 449 244 b 464 299 449 276 451 283 b 721 657 522 378 651 564 b 744 718 736 679 744 699 b 700 829 744 761 735 797 b 626 846 681 846 650 846 b 100 829 556 846 265 838 b 29 721 43 825 29 722 b 47 658 29 704 33 693 b 118 597 67 607 78 597 b 335 610 160 597 289 610 b 365 585 356 610 365 594 b 354 554 365 574 363 565 b 56 189 251 426 143 300 b 40 133 43 172 40 157 b 157 -39 40 71 85 -39 z "},"{":{"ha":654,"x_min":0,"x_max":0,"o":"m 550 -411 b 644 -324 606 -411 621 -378 b 674 -225 671 -264 674 -253 b 629 -164 674 -201 657 -171 b 453 -137 597 -157 485 -144 b 407 -72 419 -131 407 -103 b 450 226 407 -43 450 197 b 388 340 450 263 443 313 b 350 378 363 353 350 361 b 374 411 350 394 358 404 b 468 592 439 442 468 518 b 436 857 468 618 436 765 b 506 929 436 894 447 918 b 631 1007 604 947 613 958 b 643 1057 642 1035 643 1042 b 571 1156 643 1078 618 1156 b 326 1118 372 1156 354 1146 b 172 758 263 1053 172 824 b 222 543 172 686 222 585 b 167 458 222 499 207 475 b 61 333 75 422 61 410 b 133 246 61 265 78 256 b 224 154 196 233 224 225 b 183 -61 224 124 183 -18 b 239 -314 183 -103 224 -258 b 304 -376 246 -343 253 -353 b 431 -407 363 -404 385 -403 b 550 -411 456 -410 521 -411 z "},"|":{"ha":685,"x_min":0,"x_max":0,"o":"m 213 -269 b 276 -337 213 -303 219 -306 b 353 -371 328 -365 342 -371 b 411 -350 365 -371 374 -372 b 469 -296 465 -319 469 -315 b 454 1031 469 -107 460 888 b 356 1156 451 1100 385 1154 b 296 1140 346 1156 328 1151 b 225 1071 240 1124 226 1110 b 213 -269 221 993 213 -168 z "},"}":{"ha":654,"x_min":0,"x_max":0,"o":"m 126 -411 b 246 -407 154 -411 221 -410 b 372 -376 290 -403 313 -404 b 438 -314 424 -353 431 -343 b 493 -61 453 -258 493 -103 b 453 154 493 -18 453 124 b 542 246 453 225 481 233 b 614 333 599 256 614 265 b 510 458 614 410 600 422 b 454 543 469 475 454 499 b 504 758 454 585 504 686 b 349 1118 504 824 414 1053 b 106 1156 322 1146 304 1156 b 33 1057 58 1156 33 1078 b 46 1007 33 1042 35 1035 b 171 929 64 958 72 947 b 240 857 229 918 240 894 b 208 592 240 765 208 618 b 303 411 208 518 238 442 b 326 378 318 404 326 394 b 289 340 326 361 314 353 b 226 226 233 313 226 263 b 269 -72 226 197 269 -43 b 224 -137 269 -103 257 -131 b 47 -164 192 -144 79 -157 b 3 -225 18 -171 3 -201 b 32 -324 3 -253 6 -264 b 126 -411 54 -378 71 -411 z "},"~":{"ha":835,"x_min":0,"x_max":0,"o":"m 31 407 b 142 281 31 360 90 281 b 278 364 199 281 206 364 b 397 331 313 364 364 342 b 601 276 463 306 528 276 b 715 319 643 276 685 292 b 804 464 750 349 804 413 b 700 563 804 514 749 563 b 557 481 644 563 635 481 b 251 569 465 481 365 569 b 75 493 190 569 121 540 b 31 407 53 471 31 438 z "},"":{"ha":350,"x_min":0,"x_max":0,"o":""},"":{"ha":431,"x_min":0,"x_max":0,"o":"m 142 861 b 74 776 104 861 74 819 l 74 686 b 179 588 74 625 129 588 l 286 588 b 335 624 306 588 325 611 b 356 721 351 653 356 689 b 283 858 356 785 342 851 b 142 861 256 860 214 861 z m 317 400 b 204 507 307 476 283 507 b 110 443 165 507 118 488 b 44 49 89 331 65 182 b 36 -18 40 26 36 -3 b 133 -103 36 -75 89 -103 b 317 -87 185 -103 271 -93 b 382 -11 349 -82 382 -54 b 379 17 382 -3 382 7 z "},"":{"ha":588,"x_min":0,"x_max":0,"o":"m 249 81 b 335 -32 249 18 282 -32 b 388 0 358 -32 382 -24 b 460 94 400 54 390 94 b 522 128 485 94 499 104 b 564 206 554 160 564 176 b 514 297 564 249 550 275 b 478 310 503 303 488 310 b 356 306 429 310 394 306 b 240 456 263 306 240 381 b 351 596 240 546 264 596 b 443 593 378 596 418 593 b 529 675 471 593 529 633 b 513 731 529 693 524 714 b 426 772 497 754 490 760 b 376 825 396 779 385 801 b 321 869 364 857 349 869 b 263 817 271 869 267 844 b 232 760 258 779 256 772 b 43 435 100 696 43 618 b 224 113 43 278 97 190 b 249 81 235 106 244 92 z "},"":{"ha":828,"x_min":0,"x_max":0,"o":"m 569 -32 b 776 63 651 -32 731 -4 b 799 135 790 85 799 108 b 693 226 799 151 715 226 b 614 176 671 226 638 193 b 507 147 588 156 557 147 b 418 161 478 147 444 154 b 392 199 401 167 392 176 b 401 289 392 219 401 236 b 425 318 401 306 410 315 b 547 324 456 322 508 321 b 604 399 586 325 604 357 b 550 457 604 428 582 457 b 406 453 501 457 454 453 b 357 504 378 453 357 475 b 492 594 357 576 435 594 b 628 581 536 594 607 581 b 721 694 657 581 721 649 b 657 786 721 724 679 779 b 404 819 610 801 554 819 b 118 600 275 819 118 747 b 143 500 118 551 129 525 b 158 464 156 478 158 471 b 125 428 158 449 149 443 b 103 374 111 418 103 389 b 233 264 103 279 233 347 b 194 222 233 229 217 222 b 117 242 169 232 142 242 b 15 104 36 242 15 165 b 46 8 15 81 31 18 b 139 -12 56 1 104 -12 b 244 28 181 -12 218 4 b 292 50 257 39 274 50 b 358 24 321 50 339 36 b 569 -32 426 -21 486 -32 z "},"":{"ha":956,"x_min":0,"x_max":0,"o":"m 136 39 b 206 10 151 18 181 10 b 329 100 250 10 290 69 b 378 113 342 111 353 113 b 454 108 401 113 421 108 b 581 121 536 108 557 121 b 626 103 597 121 608 118 l 713 26 b 736 19 719 22 729 19 b 810 56 761 19 797 47 b 865 144 856 88 865 104 b 853 185 865 158 864 174 l 782 260 b 758 314 764 278 758 292 b 764 417 758 360 764 399 b 756 506 764 449 756 476 b 861 668 756 574 861 615 b 806 767 861 686 851 707 b 731 800 788 790 760 800 b 674 772 717 800 700 797 l 611 713 b 556 672 579 682 567 672 b 460 676 542 672 506 676 b 392 672 436 676 414 672 b 339 693 367 672 351 681 l 238 790 b 208 801 229 797 219 801 b 113 750 190 801 171 790 b 74 672 86 731 74 703 b 90 621 74 651 76 635 l 169 542 b 183 507 176 535 183 525 b 179 421 183 488 179 444 b 188 304 179 360 188 332 b 168 254 188 281 186 275 l 104 182 b 83 138 86 161 83 154 b 136 39 83 110 97 92 z m 365 407 b 469 533 365 478 386 533 b 571 406 536 533 571 478 b 472 278 571 325 542 278 b 365 407 393 278 365 339 z "},"":{"ha":858,"x_min":0,"x_max":0,"o":"m 306 18 b 408 -25 340 -8 389 -25 b 563 53 428 -25 563 -1 b 564 108 564 61 564 101 b 599 146 564 133 586 146 b 729 142 644 146 715 142 b 776 224 753 142 776 196 b 731 264 776 235 746 264 b 600 260 688 264 643 260 b 563 296 575 260 563 276 b 589 326 563 313 574 326 b 724 325 621 326 690 325 b 776 408 758 325 776 390 b 735 443 776 424 749 443 b 614 439 693 443 654 439 b 592 464 596 439 592 456 b 815 713 592 500 750 633 b 824 738 821 719 824 729 b 783 822 824 760 800 807 b 679 850 774 832 690 850 b 458 638 618 846 521 697 b 428 622 450 631 438 622 b 392 643 410 622 403 629 b 268 815 350 696 310 767 b 149 850 256 831 178 850 b 49 763 114 850 78 803 b 42 742 44 757 42 747 b 54 710 42 729 49 718 b 242 499 111 636 189 565 b 251 472 247 492 251 481 b 229 447 251 458 244 449 b 96 438 185 442 126 442 b 54 360 69 435 54 385 b 108 319 54 346 82 319 l 242 319 b 269 290 256 319 269 299 b 229 257 269 269 246 257 b 108 263 189 257 132 263 b 54 183 75 263 54 221 b 103 135 54 167 93 135 b 229 140 144 135 188 140 b 271 106 253 140 269 122 b 306 18 275 42 279 39 z "},"":{"ha":685,"x_min":0,"x_max":0,"o":"m 215 544 b 281 478 215 513 224 508 b 357 443 336 446 343 443 b 413 464 369 443 378 444 b 468 519 467 496 468 499 b 454 1031 468 707 460 888 b 356 1156 451 1100 385 1154 b 296 1140 346 1156 328 1151 b 225 1071 240 1124 226 1110 b 215 544 221 993 215 647 z m 213 -269 b 276 -337 213 -303 219 -306 b 356 -371 335 -369 342 -371 b 411 -350 368 -371 376 -369 b 469 -296 465 -319 469 -315 b 450 197 469 -107 456 56 b 351 324 449 268 382 322 b 292 308 342 324 325 319 b 221 239 238 290 224 278 b 213 -269 218 161 213 -168 z "},"":{"ha":743,"x_min":0,"x_max":0,"o":"m 250 -235 b 338 -347 250 -276 283 -347 b 521 -254 403 -347 476 -294 b 583 -61 571 -207 583 -97 b 546 82 583 8 546 57 b 653 174 546 96 617 135 b 717 340 694 218 717 279 b 407 704 717 528 568 585 b 383 749 392 715 383 729 b 476 879 383 799 476 828 b 383 976 476 938 410 976 b 293 947 364 976 336 971 b 154 751 217 906 154 863 b 185 644 154 710 164 679 b 226 576 197 624 226 590 b 211 550 226 561 221 556 b 26 307 88 481 26 447 b 67 203 26 272 43 226 b 333 -24 124 144 274 36 b 354 -81 344 -35 354 -65 b 261 -197 354 -135 296 -164 b 250 -235 251 -207 250 -222 z m 250 324 b 389 451 250 356 346 451 b 485 346 436 451 485 385 b 371 229 485 286 399 229 b 250 324 336 229 250 281 z "},"":{"ha":707,"x_min":0,"x_max":0,"o":"m 561 794 b 617 810 586 794 603 800 b 646 929 632 824 646 844 b 611 1001 646 961 632 988 b 483 1013 596 1011 574 1013 b 393 915 403 1013 393 982 b 426 817 393 876 394 842 b 561 794 450 800 478 794 z m 225 794 b 281 810 250 794 267 800 b 310 929 296 824 310 844 b 275 1001 310 961 296 988 b 147 1013 258 1011 238 1013 b 57 915 67 1013 57 982 b 90 817 57 876 58 842 b 225 794 114 800 142 794 z "},"":{"ha":867,"x_min":0,"x_max":0,"o":"m 422 -57 b 839 435 715 -57 839 125 b 429 881 839 710 722 881 b 28 436 186 881 28 701 b 422 -57 28 178 156 -57 z m 147 433 b 446 756 147 625 236 756 b 725 425 640 756 725 615 b 449 99 725 224 638 99 b 147 433 236 99 147 239 z m 458 217 b 542 247 510 217 528 222 b 553 283 551 268 553 271 b 519 346 553 304 542 346 b 476 343 504 346 490 343 b 385 439 414 343 385 383 b 453 522 385 489 410 518 b 547 579 511 528 547 518 b 492 643 547 586 539 643 b 260 428 301 643 260 528 b 458 217 260 281 369 217 z "},"":{"ha":433,"x_min":0,"x_max":0,"o":"m 200 444 b 356 453 243 444 322 449 b 396 506 386 456 396 479 b 376 789 396 529 385 703 b 290 857 372 824 318 857 b 96 844 240 857 140 844 b 51 779 74 842 51 796 b 93 719 51 764 74 719 b 238 722 124 719 213 722 b 250 706 247 722 250 715 b 240 693 250 700 247 693 l 188 689 b 104 683 156 686 121 688 b 31 575 53 671 31 621 b 200 444 31 461 106 444 z m 172 588 b 197 608 172 603 183 608 l 235 608 b 250 586 247 608 250 599 b 218 564 250 572 243 564 b 172 588 185 564 172 569 z m 19 272 b 56 213 19 247 36 213 b 374 224 174 213 278 217 b 407 310 400 226 407 278 b 394 356 407 335 403 346 b 321 368 383 367 379 368 b 56 363 213 368 126 365 b 32 344 43 363 36 360 b 19 272 25 326 19 285 z "},"":{"ha":706,"x_min":0,"x_max":0,"o":"m 264 203 b 331 236 292 203 324 225 b 343 299 339 250 343 282 b 224 426 343 336 260 389 b 210 464 214 436 210 449 b 326 593 210 501 282 549 b 339 629 335 601 339 614 b 328 672 339 640 335 656 b 231 721 313 715 303 721 b 200 706 219 721 210 715 b 28 518 147 650 81 578 b 17 472 19 507 17 489 b 39 396 17 449 21 414 b 242 211 99 339 176 265 b 264 203 247 204 256 203 z m 617 203 b 683 236 644 203 676 225 b 696 299 692 250 696 282 b 576 426 696 336 613 389 b 563 464 567 436 563 449 b 679 593 563 501 635 549 b 692 629 688 601 692 614 b 681 672 692 640 688 656 b 583 721 665 715 656 721 b 553 706 572 721 563 715 b 381 518 500 650 433 578 b 369 472 372 507 369 489 b 392 396 369 449 374 414 b 594 211 451 339 529 265 b 617 203 600 204 608 203 z "},"":{"ha":835,"x_min":0,"x_max":0,"o":"m 36 379 b 106 303 39 343 69 303 l 504 303 b 544 257 528 303 543 279 l 550 104 b 585 58 551 83 564 64 b 681 38 625 47 668 38 b 761 97 714 38 757 61 b 790 446 782 264 790 390 b 732 528 790 478 768 528 l 97 522 b 51 474 68 521 58 506 b 36 379 46 446 36 406 z "},"":{"ha":867,"x_min":0,"x_max":0,"o":"m 422 -57 b 839 435 715 -57 839 125 b 429 881 839 710 722 881 b 28 436 186 881 28 701 b 422 -57 28 178 156 -57 z m 147 433 b 446 756 147 625 236 756 b 725 425 640 756 725 615 b 449 99 725 224 638 99 b 147 433 236 99 147 239 z m 426 376 b 444 364 438 376 442 371 b 469 256 454 326 460 288 b 524 203 483 207 494 203 b 590 229 561 203 564 204 b 614 261 613 251 614 256 b 568 358 614 282 581 325 b 554 400 557 385 554 393 b 608 518 554 417 608 453 b 456 635 608 596 535 635 b 306 624 406 635 356 628 b 285 607 296 622 286 615 b 258 296 279 554 258 342 b 301 240 258 261 290 240 b 382 254 315 240 360 247 b 397 276 392 256 397 265 b 392 349 397 300 392 324 b 426 376 392 369 404 376 z m 392 493 b 411 524 392 506 392 524 b 476 517 457 524 467 522 b 486 493 483 513 486 506 b 413 456 486 460 449 456 b 392 493 392 456 392 464 z "},"":{"ha":600,"x_min":0,"x_max":0,"o":"m 8 886 b 64 822 8 858 32 822 b 535 833 239 822 394 826 b 572 858 556 833 567 842 b 586 926 582 881 586 904 b 567 974 586 954 579 965 b 457 988 550 988 544 988 b 64 983 297 988 168 988 b 26 964 43 982 33 981 b 8 886 17 944 8 900 z "},"":{"ha":446,"x_min":0,"x_max":0,"o":"m 39 674 b 226 479 39 542 114 479 b 403 678 335 479 403 560 b 229 860 403 783 349 860 b 39 674 104 860 39 794 z m 161 686 b 222 756 161 729 178 756 b 279 679 265 756 279 722 b 222 601 279 635 265 601 b 161 686 171 601 161 640 z "},"":{"ha":835,"x_min":0,"x_max":0,"o":"m 36 449 b 106 372 39 413 69 372 l 269 372 b 310 326 292 372 310 349 l 315 174 b 349 128 315 153 331 133 b 446 107 390 117 433 107 b 526 167 478 107 525 131 l 532 344 b 578 381 535 368 553 381 l 722 385 b 771 422 749 386 764 403 b 790 515 779 450 790 490 b 732 597 790 547 768 597 l 558 603 b 526 635 544 604 528 621 l 521 806 b 490 840 521 825 508 835 b 390 860 435 854 407 860 b 301 792 342 860 301 832 l 301 635 b 265 597 301 619 289 597 l 97 592 b 51 543 68 590 58 575 b 36 449 46 515 36 475 z m 40 -81 b 111 -168 40 -119 72 -168 b 728 -153 340 -168 542 -162 b 775 -117 750 -153 767 -139 b 792 -26 786 -86 792 -57 b 768 40 792 13 785 26 b 626 58 746 57 739 58 b 111 51 417 58 247 56 b 64 25 86 50 74 47 b 40 -81 51 -3 40 -62 z "},"":{"ha":438,"x_min":0,"x_max":0,"o":"m 36 451 b 106 357 36 424 56 357 b 358 365 161 357 343 364 b 406 450 392 371 406 429 b 360 507 406 469 378 507 l 269 507 b 261 513 263 507 261 508 b 264 521 261 515 263 518 l 339 579 b 388 683 382 613 388 647 b 242 813 388 758 310 813 b 90 800 200 813 131 807 b 35 736 49 792 35 742 b 47 700 35 724 36 721 b 86 665 64 665 68 665 b 203 676 101 665 186 676 b 218 660 213 676 218 668 b 211 644 218 653 217 649 l 54 504 b 36 451 39 490 36 479 z "},"":{"ha":460,"x_min":0,"x_max":0,"o":"m 63 294 b 128 240 63 258 101 240 b 418 500 276 240 418 346 b 311 607 418 558 374 597 b 299 614 306 608 299 610 b 304 622 299 617 300 619 l 356 663 b 381 732 378 681 381 710 b 318 800 381 761 335 800 l 92 800 b 29 738 67 800 29 763 b 79 664 29 726 44 664 l 156 664 b 165 658 161 664 165 661 b 158 644 165 651 163 649 l 90 582 b 78 547 79 572 78 558 b 122 494 78 522 93 494 b 229 504 135 494 199 504 b 260 472 247 504 260 490 b 93 371 260 425 172 394 b 63 294 69 364 63 319 z "},"":{"ha":417,"x_min":0,"x_max":0,"o":"m 25 857 b 103 765 25 811 61 765 b 142 778 118 765 131 769 b 343 911 211 826 281 872 b 369 965 365 925 369 946 b 258 1067 369 1049 322 1067 b 204 1049 240 1067 226 1065 b 38 904 156 1011 99 967 b 25 857 26 894 25 883 z "},"":{"ha":931,"x_min":0,"x_max":0,"o":"m 293 371 b 340 322 321 368 340 350 b 336 -290 340 113 336 -96 b 449 -356 336 -328 413 -356 b 547 -290 479 -356 547 -317 b 522 660 547 -4 522 286 b 606 707 522 699 549 707 b 668 664 646 707 668 693 b 674 -283 668 449 674 29 b 751 -337 674 -311 719 -337 b 875 -269 781 -337 875 -300 b 839 840 875 101 854 471 b 761 888 838 886 794 888 b 89 819 172 888 140 865 b 19 646 46 779 19 701 b 293 371 19 446 113 393 z m 229 621 b 304 700 229 665 251 700 b 335 614 325 700 335 690 b 306 535 335 543 325 535 b 229 621 254 535 229 576 z "},"":{"ha":369,"x_min":0,"x_max":0,"o":"m 229 276 b 292 300 258 276 276 283 b 325 475 310 319 325 349 b 286 579 325 522 310 558 b 143 597 268 596 243 597 b 43 456 54 597 43 553 b 79 311 43 397 44 346 b 229 276 106 283 139 276 z "},"":{"ha":349,"x_min":0,"x_max":0,"o":"m 38 -368 b 100 -428 38 -396 57 -428 b 158 -412 114 -428 142 -426 b 329 -167 229 -357 329 -226 b 310 -101 329 -153 328 -140 b 126 -64 293 -69 235 -64 b 57 -97 92 -64 85 -68 b 25 -154 31 -126 25 -133 b 57 -247 25 -175 57 -225 b 38 -368 57 -287 38 -328 z "},"":{"ha":379,"x_min":0,"x_max":0,"o":"m 76 360 b 279 356 100 357 161 356 b 343 419 322 356 343 378 b 290 483 343 456 328 476 b 275 504 281 486 275 493 b 278 738 275 550 278 665 b 213 811 278 764 253 811 b 79 785 200 811 129 796 b 47 724 53 778 47 764 b 76 669 47 701 61 676 l 75 671 b 117 654 90 664 117 672 b 118 579 117 629 118 604 l 118 510 b 54 474 118 489 72 500 b 29 421 39 451 29 435 b 76 360 29 401 50 363 z "},"":{"ha":467,"x_min":0,"x_max":0,"o":"m 32 650 b 236 433 32 500 111 433 b 429 651 354 433 429 521 b 239 857 429 771 368 857 b 32 650 103 857 32 783 z m 167 664 b 232 739 167 710 183 739 b 290 654 276 739 290 703 b 231 568 290 606 275 568 b 167 664 178 568 167 613 z m 38 272 b 74 213 38 247 54 213 b 392 224 190 213 296 217 b 425 310 418 226 425 278 b 413 356 425 335 421 346 b 339 368 400 367 397 368 b 74 363 231 368 144 365 b 49 344 61 363 54 360 b 38 272 42 326 38 285 z "},"":{"ha":706,"x_min":0,"x_max":0,"o":"m 96 721 b 29 686 68 721 36 699 b 17 625 21 672 17 642 b 136 497 17 586 100 535 b 150 460 146 486 150 474 b 32 329 150 421 78 375 b 21 293 25 321 21 310 b 32 250 21 283 25 268 b 129 203 47 207 57 203 b 160 218 140 203 150 208 b 332 406 213 272 279 344 b 343 450 340 415 343 435 b 319 528 343 474 339 508 b 118 713 261 585 183 657 b 96 721 111 718 104 721 z m 449 721 b 382 686 421 721 389 699 b 369 625 374 672 369 642 b 489 497 369 586 453 535 b 503 460 499 486 503 474 b 385 329 503 421 431 375 b 374 293 378 321 374 310 b 385 250 374 283 378 268 b 482 203 400 207 410 203 b 513 218 493 203 503 208 b 685 406 565 272 632 344 b 696 450 693 415 696 435 b 672 528 696 474 692 508 b 471 713 614 585 536 657 b 449 721 464 718 457 721 z "},"":{"ha":1003,"x_min":0,"x_max":0,"o":"m 74 400 b 276 396 97 397 158 396 b 340 460 319 396 340 418 b 288 524 340 496 325 517 b 272 544 278 526 272 533 b 275 778 272 590 275 706 b 210 851 275 804 250 851 b 76 825 197 851 126 836 b 44 764 50 818 44 804 b 74 710 44 742 58 717 l 72 711 b 114 694 88 704 114 713 b 115 619 114 669 115 644 l 115 550 b 51 514 115 529 69 540 b 26 461 36 492 26 475 b 74 400 26 442 47 403 z m 47 33 b 153 -49 47 -6 126 -49 b 182 -39 163 -49 175 -47 l 833 668 b 854 715 850 686 854 694 b 775 824 854 756 821 824 b 746 815 764 824 754 822 l 58 64 b 47 33 50 56 47 43 z m 532 111 b 601 47 553 85 571 47 l 724 47 b 733 33 732 47 733 39 l 733 -10 b 751 -35 733 -22 739 -29 l 782 -53 b 810 -61 792 -58 799 -61 b 843 -51 817 -61 822 -61 b 885 25 886 -33 885 -19 b 904 50 885 44 890 49 b 965 89 939 53 940 56 b 974 118 971 97 974 106 b 949 172 974 138 967 165 b 894 188 936 178 894 172 l 894 242 b 840 289 894 251 879 289 b 767 242 831 289 774 269 l 760 183 b 746 169 758 176 754 169 l 719 169 b 711 176 715 169 711 174 b 715 189 711 182 713 185 l 806 361 b 817 390 813 372 817 381 b 793 431 817 396 815 406 b 751 450 781 444 771 450 b 675 424 714 450 688 447 l 532 154 b 526 133 528 146 526 140 b 532 111 526 126 528 117 z "},"":{"ha":1011,"x_min":0,"x_max":0,"o":"m 74 400 b 276 396 97 397 158 396 b 340 460 319 396 340 418 b 288 524 340 496 325 517 b 272 544 278 526 272 533 b 275 778 272 590 275 706 b 210 851 275 804 250 851 b 76 825 197 851 126 836 b 44 764 50 818 44 804 b 74 710 44 742 58 717 l 72 711 b 114 694 88 704 114 713 b 115 619 114 669 115 644 l 115 550 b 51 514 115 529 69 540 b 26 461 36 492 26 475 b 74 400 26 442 47 403 z m 43 33 b 149 -49 43 -6 122 -49 b 178 -39 158 -49 171 -47 l 829 668 b 850 715 846 686 850 694 b 771 824 850 756 817 824 b 742 815 760 824 750 822 l 54 64 b 43 33 46 56 43 43 z m 614 69 b 683 -25 614 42 633 -25 b 936 -17 739 -25 921 -18 b 983 68 969 -11 983 47 b 938 125 983 88 956 125 l 847 125 b 839 131 840 125 839 126 b 842 139 839 133 840 136 l 917 197 b 965 301 960 231 965 265 b 819 431 965 376 888 431 b 668 418 778 431 708 425 b 613 354 626 410 613 360 b 625 318 613 342 614 339 b 664 283 642 283 646 283 b 781 294 679 283 764 294 b 796 278 790 294 796 286 b 789 263 796 271 794 267 l 632 122 b 614 69 617 108 614 97 z "},"":{"ha":1067,"x_min":0,"x_max":0,"o":"m 60 335 b 125 281 60 299 99 281 b 415 540 274 281 415 386 b 308 647 415 599 371 638 b 296 654 303 649 296 650 b 301 663 296 657 297 660 l 353 703 b 378 772 375 721 378 750 b 315 840 378 801 332 840 l 89 840 b 26 778 64 840 26 803 b 76 704 26 767 42 704 l 153 704 b 163 699 158 704 163 701 b 156 685 163 692 160 689 l 88 622 b 75 588 76 613 75 599 b 119 535 75 563 90 535 b 226 544 132 535 196 544 b 257 513 244 544 257 531 b 90 411 257 465 169 435 b 60 335 67 404 60 360 z m 110 33 b 215 -49 110 -6 189 -49 b 244 -39 225 -49 238 -47 l 896 668 b 917 715 913 686 917 694 b 838 824 917 756 883 824 b 808 815 826 824 817 822 l 121 64 b 110 33 113 56 110 43 z m 597 111 b 667 47 618 85 636 47 l 789 47 b 799 33 797 47 799 39 l 799 -10 b 817 -35 799 -22 804 -29 l 847 -53 b 875 -61 857 -58 864 -61 b 908 -51 882 -61 888 -61 b 950 25 951 -33 950 -19 b 969 50 950 44 956 49 b 1031 89 1004 53 1006 56 b 1039 118 1036 97 1039 106 b 1014 172 1039 138 1032 165 b 960 188 1001 178 960 172 l 960 242 b 906 289 960 251 944 289 b 832 242 896 289 839 269 l 825 183 b 811 169 824 176 819 169 l 785 169 b 776 176 781 169 776 174 b 781 189 776 182 778 185 l 871 361 b 882 390 878 372 882 381 b 858 431 882 396 881 406 b 817 450 846 444 836 450 b 740 424 779 450 753 447 l 597 154 b 592 133 593 146 592 140 b 597 111 592 126 593 117 z "},"":{"ha":556,"x_min":0,"x_max":0,"o":"m 174 747 b 176 675 174 724 174 696 b 283 589 182 624 239 589 l 379 589 b 456 682 421 589 456 629 l 456 763 b 421 843 456 801 443 822 b 278 864 401 861 371 864 b 199 843 238 864 215 863 b 174 747 179 818 174 776 z m 422 394 b 333 503 422 449 381 503 b 224 440 269 503 240 479 b 139 329 204 393 176 363 b 36 94 71 271 36 190 b 142 -112 36 4 78 -58 b 453 -204 226 -183 326 -204 b 521 -81 504 -204 521 -126 b 481 13 521 -46 518 -3 b 396 39 456 24 426 29 b 318 149 349 54 318 93 b 342 219 318 176 322 188 l 397 310 b 422 394 414 339 422 364 z "},"":{"ha":885,"x_min":0,"x_max":0,"o":"m 453 200 b 553 153 515 200 538 197 l 593 31 b 643 -12 601 6 619 -10 b 760 -25 683 -18 721 -25 b 869 81 811 -25 869 33 b 863 118 869 90 868 101 l 650 858 b 604 888 643 881 622 888 b 278 836 571 888 333 846 b 228 794 256 831 235 815 l 33 175 b 39 128 28 157 32 142 l 78 39 b 144 7 88 17 107 7 b 314 44 265 7 306 10 l 342 168 b 361 192 343 179 351 188 b 453 200 374 199 385 200 z m 378 447 b 392 533 378 469 385 504 b 460 586 399 565 421 586 b 499 563 472 586 492 581 b 522 453 507 531 521 475 b 442 404 528 410 500 404 b 378 447 410 404 378 406 z m 557 1018 b 544 1065 557 1044 554 1056 b 376 1210 482 1128 425 1172 b 324 1228 356 1226 342 1228 b 211 1126 258 1228 211 1210 b 238 1072 211 1107 215 1086 b 439 939 301 1033 371 988 b 479 926 451 931 464 926 b 557 1018 518 926 557 972 z "},"":{"ha":885,"x_min":0,"x_max":0,"o":"m 453 200 b 553 153 515 200 538 197 l 593 31 b 643 -12 601 6 619 -10 b 760 -25 683 -18 721 -25 b 869 81 811 -25 869 33 b 863 118 869 90 868 101 l 650 858 b 604 888 643 881 622 888 b 278 836 571 888 333 846 b 228 794 256 831 235 815 l 33 175 b 39 128 28 157 32 142 l 78 39 b 144 7 88 17 107 7 b 314 44 265 7 306 10 l 342 168 b 361 192 343 179 351 188 b 453 200 374 199 385 200 z m 378 447 b 392 533 378 469 385 504 b 460 586 399 565 421 586 b 499 563 472 586 492 581 b 522 453 507 531 521 475 b 442 404 528 410 500 404 b 378 447 410 404 378 406 z m 328 1018 b 406 926 328 972 364 926 b 444 939 421 926 433 931 b 646 1072 514 988 583 1033 b 672 1126 668 1086 672 1107 b 561 1228 672 1210 625 1228 b 507 1210 543 1228 529 1226 b 340 1065 458 1172 401 1128 b 328 1018 329 1056 328 1044 z "},"":{"ha":885,"x_min":0,"x_max":0,"o":"m 453 200 b 553 153 515 200 538 197 l 593 31 b 643 -12 601 6 619 -10 b 760 -25 683 -18 721 -25 b 869 81 811 -25 869 33 b 863 118 869 90 868 101 l 650 858 b 604 888 643 881 622 888 b 278 836 571 888 333 846 b 228 794 256 831 235 815 l 33 175 b 39 128 28 157 32 142 l 78 39 b 144 7 88 17 107 7 b 314 44 265 7 306 10 l 342 168 b 361 192 343 179 351 188 b 453 200 374 199 385 200 z m 378 447 b 392 533 378 469 385 504 b 460 586 399 565 421 586 b 499 563 472 586 492 581 b 522 453 507 531 521 475 b 442 404 528 410 500 404 b 378 447 410 404 378 406 z m 183 990 b 217 925 183 963 206 932 b 278 911 231 917 263 911 b 407 1032 317 911 369 996 b 443 1046 417 1042 429 1046 b 574 928 482 1046 529 974 b 610 917 582 919 594 917 b 653 926 621 917 636 919 b 701 1025 696 943 701 953 b 686 1056 701 1035 694 1046 b 499 1228 631 1108 558 1175 b 453 1239 488 1235 469 1239 b 376 1215 429 1239 394 1235 b 192 1013 319 1156 246 1079 b 183 990 185 1007 183 999 z "},"":{"ha":885,"x_min":0,"x_max":0,"o":"m 453 200 b 553 153 515 200 538 197 l 593 31 b 643 -12 601 6 619 -10 b 760 -25 683 -18 721 -25 b 869 81 811 -25 869 33 b 863 118 869 90 868 101 l 650 858 b 604 888 643 881 622 888 b 278 836 571 888 333 846 b 228 794 256 831 235 815 l 33 175 b 39 128 28 157 32 142 l 78 39 b 144 7 88 17 107 7 b 314 44 265 7 306 10 l 342 168 b 361 192 343 179 351 188 b 453 200 374 199 385 200 z m 378 447 b 392 533 378 469 385 504 b 460 586 399 565 421 586 b 499 563 472 586 492 581 b 522 453 507 531 521 475 b 442 404 528 410 500 404 b 378 447 410 404 378 406 z m 136 1042 b 225 940 136 1004 183 940 b 332 1007 269 940 275 1007 b 426 981 358 1007 400 990 b 588 939 478 963 529 938 b 678 972 621 939 653 950 b 747 1085 704 996 747 1046 b 665 1164 747 1125 703 1164 b 551 1099 622 1164 614 1099 b 311 1169 479 1099 400 1169 b 172 1110 263 1169 208 1146 b 136 1042 154 1092 136 1065 z "},"":{"ha":885,"x_min":0,"x_max":0,"o":"m 453 200 b 553 153 515 200 538 197 l 593 31 b 643 -12 601 6 619 -10 b 760 -25 683 -18 721 -25 b 869 81 811 -25 869 33 b 863 118 869 90 868 101 l 650 858 b 604 888 643 881 622 888 b 278 836 571 888 333 846 b 228 794 256 831 235 815 l 33 175 b 39 128 28 157 32 142 l 78 39 b 144 7 88 17 107 7 b 314 44 265 7 306 10 l 342 168 b 361 192 343 179 351 188 b 453 200 374 199 385 200 z m 378 447 b 392 533 378 469 385 504 b 460 586 399 565 421 586 b 499 563 472 586 492 581 b 522 453 507 531 521 475 b 442 404 528 410 500 404 b 378 447 410 404 378 406 z m 651 956 b 707 971 676 956 693 961 b 736 1090 722 985 736 1006 b 701 1163 736 1122 722 1149 b 574 1174 686 1172 664 1174 b 483 1076 493 1174 483 1143 b 517 978 483 1038 485 1003 b 651 956 540 961 568 956 z m 315 956 b 371 971 340 956 357 961 b 400 1090 386 985 400 1006 b 365 1163 400 1122 386 1149 b 238 1174 349 1172 328 1174 b 147 1076 157 1174 147 1143 b 181 978 147 1038 149 1003 b 315 956 204 961 232 956 z "},"":{"ha":885,"x_min":0,"x_max":0,"o":"m 453 200 b 553 153 515 200 538 197 l 593 31 b 643 -12 601 6 619 -10 b 760 -25 683 -18 721 -25 b 869 81 811 -25 869 33 b 863 118 869 90 868 101 l 650 858 b 604 888 643 881 622 888 b 278 836 571 888 333 846 b 228 794 256 831 235 815 l 33 175 b 39 128 28 157 32 142 l 78 39 b 144 7 88 17 107 7 b 314 44 265 7 306 10 l 342 168 b 361 192 343 179 351 188 b 453 200 374 199 385 200 z m 378 447 b 392 533 378 469 385 504 b 460 586 399 565 421 586 b 499 563 472 586 492 581 b 522 453 507 531 521 475 b 442 404 528 410 500 404 b 378 447 410 404 378 406 z m 253 1063 b 440 876 253 961 297 876 b 631 1060 571 876 631 946 b 446 1238 631 1169 574 1238 b 253 1063 329 1238 253 1193 z m 375 1063 b 442 1138 375 1110 401 1138 b 508 1060 483 1138 508 1108 b 446 989 508 1019 488 989 b 375 1063 403 989 375 1018 z "},"":{"ha":1243,"x_min":0,"x_max":0,"o":"m 378 447 b 392 533 378 469 385 504 b 460 586 399 565 421 586 b 535 533 519 586 533 568 l 536 481 b 442 404 536 407 511 404 b 378 447 410 404 378 406 z m 560 63 b 708 -47 569 24 674 -47 b 1099 -39 886 -47 1013 -46 b 1179 15 1133 -37 1147 -29 b 1210 92 1207 54 1210 65 b 1190 193 1210 115 1201 163 b 1133 217 1186 204 1171 217 b 907 207 1053 217 988 207 b 844 281 868 207 844 219 b 881 324 844 310 854 321 b 1104 338 915 326 1028 332 b 1174 421 1138 340 1174 356 b 1110 493 1174 457 1154 492 b 850 501 1060 496 915 496 b 808 569 821 504 808 524 b 843 603 808 589 815 600 l 1110 622 b 1164 665 1140 625 1154 639 b 1194 776 1175 697 1194 750 b 1185 806 1194 788 1192 794 b 1093 872 1143 865 1139 872 b 278 836 992 872 410 846 b 228 794 254 833 233 815 l 33 175 b 31 157 32 169 31 163 b 39 128 31 147 33 138 l 78 39 b 144 7 88 17 107 7 b 314 44 265 7 306 10 l 342 168 b 361 192 343 179 351 188 b 453 200 374 199 385 200 b 553 136 529 200 553 192 b 560 63 553 119 554 89 z "},"":{"ha":744,"x_min":0,"x_max":0,"o":"m 481 -49 b 610 -40 554 -49 571 -47 b 664 19 629 -37 639 -26 b 689 99 686 64 689 74 b 664 203 689 115 672 175 b 614 239 657 225 633 239 b 519 233 582 239 550 233 b 318 443 382 233 318 319 b 467 631 318 556 371 621 b 621 643 497 635 594 639 b 664 681 646 646 658 660 b 676 758 669 707 676 733 b 636 858 676 781 672 806 b 556 900 610 896 603 900 b 226 818 442 900 299 865 b 39 422 69 721 39 574 b 113 153 39 324 65 233 b 481 -49 204 0 338 -49 z m 307 -368 b 369 -428 307 -396 326 -428 b 428 -412 383 -428 411 -426 b 599 -167 499 -357 599 -226 b 579 -101 599 -153 597 -140 b 396 -64 563 -69 504 -64 b 326 -97 361 -64 354 -68 b 294 -154 300 -126 294 -133 b 326 -247 294 -175 326 -225 b 307 -368 326 -287 307 -328 z "},"":{"ha":754,"x_min":0,"x_max":0,"o":"m 40 63 b 179 -47 40 22 144 -47 b 610 -39 356 -47 524 -46 b 690 15 644 -37 658 -29 b 721 92 718 54 721 65 b 701 193 721 115 713 163 b 644 217 697 204 682 217 b 400 207 564 217 482 207 b 344 265 364 207 344 218 b 386 324 344 306 356 321 b 615 338 421 326 539 332 b 675 378 643 340 664 346 b 685 421 679 392 685 407 b 621 493 685 457 665 492 b 371 501 571 496 435 496 b 335 557 343 504 335 521 b 374 603 335 586 342 600 l 621 622 b 675 665 651 625 665 639 b 706 776 686 697 706 750 b 696 806 706 788 703 794 b 604 872 654 865 650 872 b 107 842 481 872 257 853 b 71 806 88 840 71 822 b 40 63 61 558 40 156 z m 504 1018 b 492 1065 504 1044 501 1056 b 324 1210 429 1128 372 1172 b 271 1228 303 1226 289 1228 b 158 1126 206 1228 158 1210 b 185 1072 158 1107 163 1086 b 386 939 249 1033 318 988 b 426 926 399 931 411 926 b 504 1018 465 926 504 972 z "},"":{"ha":754,"x_min":0,"x_max":0,"o":"m 40 63 b 179 -47 40 22 144 -47 b 610 -39 356 -47 524 -46 b 690 15 644 -37 658 -29 b 721 92 718 54 721 65 b 701 193 721 115 713 163 b 644 217 697 204 682 217 b 400 207 564 217 482 207 b 344 265 364 207 344 218 b 386 324 344 306 356 321 b 615 338 421 326 539 332 b 675 378 643 340 664 346 b 685 421 679 392 685 407 b 621 493 685 457 665 492 b 371 501 571 496 435 496 b 335 557 343 504 335 521 b 374 603 335 586 342 600 l 621 622 b 675 665 651 625 665 639 b 706 776 686 697 706 750 b 696 806 706 788 703 794 b 604 872 654 865 650 872 b 107 842 481 872 257 853 b 71 806 88 840 71 822 b 40 63 61 558 40 156 z m 274 1018 b 351 926 274 972 310 926 b 390 939 367 926 379 931 b 592 1072 460 988 529 1033 b 618 1126 614 1086 618 1107 b 507 1228 618 1210 571 1228 b 453 1210 489 1228 475 1226 b 286 1065 404 1172 347 1128 b 274 1018 275 1056 274 1044 z "},"":{"ha":754,"x_min":0,"x_max":0,"o":"m 40 63 b 179 -47 40 22 144 -47 b 610 -39 356 -47 524 -46 b 690 15 644 -37 658 -29 b 721 92 718 54 721 65 b 701 193 721 115 713 163 b 644 217 697 204 682 217 b 400 207 564 217 482 207 b 344 265 364 207 344 218 b 386 324 344 306 356 321 b 615 338 421 326 539 332 b 675 378 643 340 664 346 b 685 421 679 392 685 407 b 621 493 685 457 665 492 b 371 501 571 496 435 496 b 335 557 343 504 335 521 b 374 603 335 586 342 600 l 621 622 b 675 665 651 625 665 639 b 706 776 686 697 706 750 b 696 806 706 788 703 794 b 604 872 654 865 650 872 b 107 842 481 872 257 853 b 71 806 88 840 71 822 b 40 63 61 558 40 156 z m 124 990 b 157 925 124 963 146 932 b 218 911 171 917 203 911 b 347 1032 257 911 310 996 b 383 1046 357 1042 369 1046 b 514 928 422 1046 469 974 b 550 917 522 919 535 917 b 593 926 561 917 576 919 b 642 1025 636 943 642 953 b 626 1056 642 1035 635 1046 b 439 1228 571 1108 499 1175 b 393 1239 428 1235 410 1239 b 317 1215 369 1239 335 1235 b 132 1013 260 1156 186 1079 b 124 990 125 1007 124 999 z "},"":{"ha":754,"x_min":0,"x_max":0,"o":"m 40 63 b 179 -47 40 22 144 -47 b 610 -39 356 -47 524 -46 b 690 15 644 -37 658 -29 b 721 92 718 54 721 65 b 701 193 721 115 713 163 b 644 217 697 204 682 217 b 400 207 564 217 482 207 b 344 265 364 207 344 218 b 386 324 344 306 356 321 b 615 338 421 326 539 332 b 675 378 643 340 664 346 b 685 421 679 392 685 407 b 621 493 685 457 665 492 b 371 501 571 496 435 496 b 335 557 343 504 335 521 b 374 603 335 586 342 600 l 621 622 b 675 665 651 625 665 639 b 706 776 686 697 706 750 b 696 806 706 788 703 794 b 604 872 654 865 650 872 b 107 842 481 872 257 853 b 71 806 88 840 71 822 b 40 63 61 558 40 156 z m 600 956 b 656 971 625 956 642 961 b 685 1090 671 985 685 1006 b 650 1163 685 1122 671 1149 b 522 1174 635 1172 613 1174 b 432 1076 442 1174 432 1143 b 465 978 432 1038 433 1003 b 600 956 489 961 517 956 z m 264 956 b 319 971 289 956 306 961 b 349 1090 335 985 349 1006 b 314 1163 349 1122 335 1149 b 186 1174 297 1172 276 1174 b 96 1076 106 1174 96 1143 b 129 978 96 1038 97 1003 b 264 956 153 961 181 956 z "},"":{"ha":444,"x_min":0,"x_max":0,"o":"m 83 117 b 160 18 83 72 93 64 b 254 -29 228 -26 239 -29 b 319 1 268 -29 279 -26 b 388 79 385 47 388 53 b 371 743 388 350 378 600 b 324 832 368 786 357 801 b 253 869 289 863 282 869 b 182 854 242 869 222 865 b 99 783 118 838 100 824 b 83 117 93 706 83 264 z m 347 1018 b 335 1065 347 1044 344 1056 b 167 1210 272 1128 215 1172 b 114 1228 146 1226 132 1228 b 1 1126 49 1228 1 1210 b 28 1072 1 1107 6 1086 b 229 939 92 1033 161 988 b 269 926 242 931 254 926 b 347 1018 308 926 347 972 z "},"":{"ha":435,"x_min":0,"x_max":0,"o":"m 65 117 b 142 18 65 72 75 64 b 236 -29 210 -26 221 -29 b 301 1 250 -29 261 -26 b 369 79 367 47 369 53 b 353 743 369 350 360 600 b 306 832 350 786 339 801 b 235 869 271 863 264 869 b 164 854 224 869 204 865 b 81 783 100 838 82 824 b 65 117 75 706 65 264 z m 99 1018 b 176 926 99 972 135 926 b 215 939 192 926 204 931 b 417 1072 285 988 354 1033 b 443 1126 439 1086 443 1107 b 332 1228 443 1210 396 1228 b 278 1210 314 1228 300 1226 b 111 1065 229 1172 172 1128 b 99 1018 100 1056 99 1044 z "},"":{"ha":463,"x_min":0,"x_max":0,"o":"m 90 117 b 167 18 90 72 100 64 b 261 -29 235 -26 246 -29 b 326 1 275 -29 286 -26 b 394 79 392 47 394 53 b 378 743 394 350 385 600 b 331 832 375 786 364 801 b 260 869 296 863 289 869 b 189 854 249 869 229 865 b 106 783 125 838 107 824 b 90 117 100 706 90 264 z m -21 990 b 13 925 -21 963 1 932 b 74 911 26 917 58 911 b 203 1032 113 911 165 996 b 239 1046 213 1042 225 1046 b 369 928 278 1046 325 974 b 406 917 378 919 390 917 b 449 926 417 917 432 919 b 497 1025 492 943 497 953 b 482 1056 497 1035 490 1046 b 294 1228 426 1108 354 1175 b 249 1239 283 1235 265 1239 b 172 1215 225 1239 190 1235 b -12 1013 115 1156 42 1079 b -21 990 -19 1007 -21 999 z "},"":{"ha":499,"x_min":0,"x_max":0,"o":"m 104 117 b 181 18 104 72 114 64 b 275 -29 249 -26 260 -29 b 340 1 289 -29 300 -26 b 408 79 406 47 408 53 b 392 743 408 350 399 600 b 344 832 389 786 378 801 b 274 869 310 863 303 869 b 203 854 263 869 243 865 b 119 783 139 838 121 824 b 104 117 114 706 104 264 z m 461 956 b 517 971 486 956 503 961 b 546 1090 532 985 546 1006 b 511 1163 546 1122 532 1149 b 383 1174 496 1172 474 1174 b 293 1076 303 1174 293 1143 b 326 978 293 1038 294 1003 b 461 956 350 961 378 956 z m 125 956 b 181 971 150 956 167 961 b 210 1090 196 985 210 1006 b 175 1163 210 1122 196 1149 b 47 1174 158 1172 138 1174 b -43 1076 -33 1174 -43 1143 b -10 978 -43 1038 -42 1003 b 125 956 14 961 42 956 z "},"":{"ha":881,"x_min":0,"x_max":0,"o":"m -17 438 b 38 369 -17 407 10 369 b 56 343 51 369 56 360 b 53 117 56 240 53 150 b 124 -6 53 72 65 53 b 213 -50 161 -43 190 -50 b 253 -43 219 -50 226 -50 b 597 63 354 -18 536 35 b 844 485 769 143 844 314 b 749 785 844 557 829 694 b 553 868 697 840 628 868 b 115 836 389 868 250 851 b 68 786 88 832 68 813 b 61 575 67 757 63 665 b 39 542 61 561 58 542 b 3 521 19 542 11 538 b -17 438 -7 499 -17 451 z m 335 314 b 369 378 335 343 336 376 l 406 381 b 456 481 449 383 456 444 b 363 547 456 528 451 547 b 328 574 340 547 328 557 b 447 628 328 618 351 628 b 561 504 507 628 561 618 b 376 282 561 358 496 282 b 335 314 349 282 335 294 z "},"":{"ha":844,"x_min":0,"x_max":0,"o":"m 322 281 b 353 263 335 281 346 274 b 543 -31 417 164 478 60 b 664 -76 564 -60 638 -76 b 733 -60 686 -76 711 -68 b 783 -11 758 -49 783 -39 b 779 747 783 132 782 704 b 744 806 779 765 772 779 b 692 833 724 826 714 833 b 631 815 679 833 665 829 b 561 760 574 793 563 783 b 556 497 557 681 556 556 b 528 472 556 482 542 472 b 514 476 521 472 519 472 b 492 497 507 481 493 496 l 288 794 b 226 838 263 829 244 838 b 158 818 211 838 193 832 b 69 743 86 790 71 774 b 49 96 51 214 49 118 b 86 39 49 76 65 54 b 147 15 115 19 125 15 b 211 25 167 15 178 18 b 292 90 272 40 292 50 b 290 242 292 133 290 189 b 322 281 290 265 303 281 z m 117 993 b 206 892 117 956 164 892 b 313 958 250 892 256 958 b 407 932 339 958 381 942 b 568 890 458 914 510 889 b 658 924 601 890 633 901 b 728 1036 685 947 728 997 b 646 1115 728 1076 683 1115 b 532 1050 603 1115 594 1050 b 292 1121 460 1050 381 1121 b 153 1061 243 1121 189 1097 b 117 993 135 1043 117 1017 z "},"":{"ha":867,"x_min":0,"x_max":0,"o":"m 422 -57 b 839 435 715 -57 839 125 b 429 881 839 710 722 881 b 32 363 164 881 0 669 b 422 -57 54 135 182 -57 z m 290 431 b 440 625 290 526 335 625 b 579 426 538 625 579 517 b 442 229 579 346 536 229 b 290 431 335 229 290 346 z m 549 1018 b 536 1065 549 1044 546 1056 b 368 1210 474 1128 417 1172 b 315 1228 347 1226 333 1228 b 203 1126 250 1228 203 1210 b 229 1072 203 1107 207 1086 b 431 939 293 1033 363 988 b 471 926 443 931 456 926 b 549 1018 510 926 549 972 z "},"":{"ha":867,"x_min":0,"x_max":0,"o":"m 422 -57 b 839 435 715 -57 839 125 b 429 881 839 710 722 881 b 32 363 164 881 0 669 b 422 -57 54 135 182 -57 z m 290 431 b 440 625 290 526 335 625 b 579 426 538 625 579 517 b 442 229 579 346 536 229 b 290 431 335 229 290 346 z m 319 1018 b 397 926 319 972 356 926 b 436 939 413 926 425 931 b 638 1072 506 988 575 1033 b 664 1126 660 1086 664 1107 b 553 1228 664 1210 617 1228 b 499 1210 535 1228 521 1226 b 332 1065 450 1172 393 1128 b 319 1018 321 1056 319 1044 z "},"":{"ha":867,"x_min":0,"x_max":0,"o":"m 422 -57 b 839 435 715 -57 839 125 b 429 881 839 710 722 881 b 32 363 164 881 0 669 b 422 -57 54 135 182 -57 z m 290 431 b 440 625 290 526 335 625 b 579 426 538 625 579 517 b 442 229 579 346 536 229 b 290 431 335 229 290 346 z m 175 990 b 208 925 175 963 197 932 b 269 911 222 917 254 911 b 399 1032 308 911 361 996 b 435 1046 408 1042 421 1046 b 565 928 474 1046 521 974 b 601 917 574 919 586 917 b 644 926 613 917 628 919 b 693 1025 688 943 693 953 b 678 1056 693 1035 686 1046 b 490 1228 622 1108 550 1175 b 444 1239 479 1235 461 1239 b 368 1215 421 1239 386 1235 b 183 1013 311 1156 238 1079 b 175 990 176 1007 175 999 z "},"":{"ha":867,"x_min":0,"x_max":0,"o":"m 422 -57 b 839 435 715 -57 839 125 b 429 881 839 710 722 881 b 32 363 164 881 0 669 b 422 -57 54 135 182 -57 z m 290 431 b 440 625 290 526 335 625 b 579 426 538 625 579 517 b 442 229 579 346 536 229 b 290 431 335 229 290 346 z m 128 1042 b 217 940 128 1004 175 940 b 324 1007 261 940 267 1007 b 418 981 350 1007 392 990 b 579 939 469 963 521 938 b 669 972 613 939 644 950 b 739 1085 696 996 739 1046 b 657 1164 739 1125 694 1164 b 543 1099 614 1164 606 1099 b 303 1169 471 1099 392 1169 b 164 1110 254 1169 200 1146 b 128 1042 146 1092 128 1065 z "},"":{"ha":867,"x_min":0,"x_max":0,"o":"m 422 -57 b 839 435 715 -57 839 125 b 429 881 839 710 722 881 b 32 363 164 881 0 669 b 422 -57 54 135 182 -57 z m 290 431 b 440 625 290 526 335 625 b 579 426 538 625 579 517 b 442 229 579 346 536 229 b 290 431 335 229 290 346 z m 643 956 b 699 971 668 956 685 961 b 728 1090 714 985 728 1006 b 693 1163 728 1122 714 1149 b 565 1174 678 1172 656 1174 b 475 1076 485 1174 475 1143 b 508 978 475 1038 476 1003 b 643 956 532 961 560 956 z m 307 956 b 363 971 332 956 349 961 b 392 1090 378 985 392 1006 b 357 1163 392 1122 378 1149 b 229 1174 340 1172 319 1174 b 139 1076 149 1174 139 1143 b 172 978 139 1038 140 1003 b 307 956 196 961 224 956 z "},"":{"ha":835,"x_min":0,"x_max":0,"o":"m 122 203 l 167 133 b 239 97 182 107 213 97 b 285 113 256 97 274 103 l 396 219 b 428 236 403 226 418 236 b 456 224 438 236 449 232 l 567 122 b 603 107 576 115 590 107 b 643 122 618 107 631 114 b 707 169 660 133 694 157 b 733 229 722 185 733 201 b 715 276 733 247 729 264 l 613 383 b 600 414 604 392 600 404 b 613 446 600 426 604 438 l 715 553 b 729 588 725 563 729 575 b 726 600 729 590 726 600 b 715 625 726 603 719 621 b 665 696 707 636 678 683 b 603 719 649 715 622 719 b 547 699 571 719 563 714 l 447 600 b 419 589 438 590 431 589 b 383 603 406 589 393 593 l 279 704 b 242 721 268 715 257 721 b 204 708 226 721 219 717 b 131 654 192 701 140 664 b 104 593 111 633 104 615 b 125 544 104 575 114 556 l 232 438 b 247 404 244 425 247 421 b 233 372 247 392 243 382 l 132 263 b 122 203 115 243 114 217 z "},"":{"ha":867,"x_min":0,"x_max":0,"o":"m 115 -100 b 197 -121 138 -112 172 -121 b 240 -90 213 -121 226 -114 l 274 -28 b 422 -57 318 -47 367 -57 b 839 435 715 -57 839 125 b 719 786 839 588 801 708 l 753 846 b 765 879 761 860 765 867 b 724 947 765 896 736 938 b 657 972 707 961 671 972 b 632 954 647 972 636 964 l 581 861 b 429 881 536 872 486 881 b 28 436 186 881 28 701 b 144 68 28 296 65 160 l 90 -32 b 82 -54 85 -42 82 -47 b 115 -100 82 -76 104 -94 z m 579 426 b 442 229 579 346 536 229 b 417 232 432 229 424 231 l 568 508 b 579 426 575 482 579 453 z m 290 431 b 440 625 290 526 335 625 b 450 624 443 625 447 625 l 301 353 b 290 431 293 378 290 406 z "},"":{"ha":901,"x_min":0,"x_max":0,"o":"m 129 13 b 288 -60 204 -51 232 -60 b 729 -35 413 -60 686 -42 b 807 7 743 -32 769 -24 b 847 107 844 38 847 51 b 829 781 842 374 836 578 b 751 847 829 819 810 829 b 675 865 708 860 697 865 b 603 836 650 865 635 860 b 563 757 568 808 563 794 b 574 250 563 581 574 415 b 444 190 574 204 506 190 b 344 257 378 190 344 204 b 346 783 344 372 346 682 b 276 856 346 829 331 838 b 226 865 256 863 243 865 b 158 851 204 865 194 863 b 56 765 68 822 60 810 b 42 176 51 693 42 374 b 129 13 42 100 44 85 z m 564 1018 b 551 1065 564 1044 561 1056 b 383 1210 489 1128 432 1172 b 331 1228 363 1226 349 1228 b 218 1126 265 1228 218 1210 b 244 1072 218 1107 222 1086 b 446 939 308 1033 378 988 b 486 926 458 931 471 926 b 564 1018 525 926 564 972 z "},"":{"ha":901,"x_min":0,"x_max":0,"o":"m 129 13 b 288 -60 204 -51 232 -60 b 729 -35 413 -60 686 -42 b 807 7 743 -32 769 -24 b 847 107 844 38 847 51 b 829 781 842 374 836 578 b 751 847 829 819 810 829 b 675 865 708 860 697 865 b 603 836 650 865 635 860 b 563 757 568 808 563 794 b 574 250 563 581 574 415 b 444 190 574 204 506 190 b 344 257 378 190 344 204 b 346 783 344 372 346 682 b 276 856 346 829 331 838 b 226 865 256 863 243 865 b 158 851 204 865 194 863 b 56 765 68 822 60 810 b 42 176 51 693 42 374 b 129 13 42 100 44 85 z m 336 1018 b 414 926 336 972 372 926 b 453 939 429 926 442 931 b 654 1072 522 988 592 1033 b 681 1126 676 1086 681 1107 b 569 1228 681 1210 633 1228 b 515 1210 551 1228 538 1226 b 349 1065 467 1172 410 1128 b 336 1018 338 1056 336 1044 z "},"":{"ha":901,"x_min":0,"x_max":0,"o":"m 129 13 b 288 -60 204 -51 232 -60 b 729 -35 413 -60 686 -42 b 807 7 743 -32 769 -24 b 847 107 844 38 847 51 b 829 781 842 374 836 578 b 751 847 829 819 810 829 b 675 865 708 860 697 865 b 603 836 650 865 635 860 b 563 757 568 808 563 794 b 574 250 563 581 574 415 b 444 190 574 204 506 190 b 344 257 378 190 344 204 b 346 783 344 372 346 682 b 276 856 346 829 331 838 b 226 865 256 863 243 865 b 158 851 204 865 194 863 b 56 765 68 822 60 810 b 42 176 51 693 42 374 b 129 13 42 100 44 85 z m 192 990 b 225 925 192 963 214 932 b 286 911 239 917 271 911 b 415 1032 325 911 378 996 b 451 1046 425 1042 438 1046 b 582 928 490 1046 538 974 b 618 917 590 919 603 917 b 661 926 629 917 644 919 b 710 1025 704 943 710 953 b 694 1056 710 1035 703 1046 b 507 1228 639 1108 567 1175 b 461 1239 496 1235 478 1239 b 385 1215 438 1239 403 1235 b 200 1013 328 1156 254 1079 b 192 990 193 1007 192 999 z "},"":{"ha":901,"x_min":0,"x_max":0,"o":"m 129 13 b 288 -60 204 -51 232 -60 b 729 -35 413 -60 686 -42 b 807 7 743 -32 769 -24 b 847 107 844 38 847 51 b 829 781 842 374 836 578 b 751 847 829 819 810 829 b 675 865 708 860 697 865 b 603 836 650 865 635 860 b 563 757 568 808 563 794 b 574 250 563 581 574 415 b 444 190 574 204 506 190 b 344 257 378 190 344 204 b 346 783 344 372 346 682 b 276 856 346 829 331 838 b 226 865 256 863 243 865 b 158 851 204 865 194 863 b 56 765 68 822 60 810 b 42 176 51 693 42 374 b 129 13 42 100 44 85 z m 660 956 b 715 971 685 956 701 961 b 744 1090 731 985 744 1006 b 710 1163 744 1122 731 1149 b 582 1174 694 1172 672 1174 b 492 1076 501 1174 492 1143 b 525 978 492 1038 493 1003 b 660 956 549 961 576 956 z m 324 956 b 379 971 349 956 365 961 b 408 1090 394 985 408 1006 b 374 1163 408 1122 394 1149 b 246 1174 357 1172 336 1174 b 156 1076 165 1174 156 1143 b 189 978 156 1038 157 1003 b 324 956 213 961 240 956 z "},"":{"ha":890,"x_min":0,"x_max":0,"o":"m 213 -221 b 254 -306 213 -256 219 -262 b 343 -360 290 -349 300 -360 b 594 -336 417 -360 518 -349 b 740 -232 646 -328 667 -312 b 815 -118 799 -169 813 -143 b 842 754 824 -25 842 700 b 774 838 842 804 828 817 b 711 853 739 850 729 853 b 642 831 693 853 679 847 b 571 740 586 807 571 793 b 572 372 571 656 572 494 b 543 328 572 351 560 336 b 404 314 517 315 433 314 b 343 369 351 314 343 347 b 357 758 343 443 357 633 b 299 839 357 807 343 819 b 243 856 268 851 256 856 b 161 835 224 856 211 851 b 97 810 140 828 118 819 b 68 767 81 803 69 783 b 54 306 65 732 54 399 b 118 156 54 246 63 225 b 251 67 178 79 207 67 b 503 90 286 67 464 90 b 557 32 544 90 557 75 b 482 -71 557 -22 533 -46 b 274 -110 454 -85 404 -87 b 222 -168 238 -115 226 -147 b 213 -221 214 -200 213 -211 z m 354 1018 b 432 926 354 972 390 926 b 471 939 447 926 460 931 b 672 1072 540 988 610 1033 b 699 1126 694 1086 699 1107 b 588 1228 699 1210 651 1228 b 533 1210 569 1228 556 1226 b 367 1065 485 1172 428 1128 b 354 1018 356 1056 354 1044 z "},"":{"ha":843,"x_min":0,"x_max":0,"o":"m 64 122 b 94 49 64 96 68 67 l 211 -25 b 238 -32 219 -32 228 -32 b 278 -21 253 -32 264 -28 b 347 29 296 -12 335 18 b 369 65 356 38 369 50 b 378 121 372 89 375 115 b 414 156 382 139 397 154 l 653 179 b 763 257 696 183 740 226 b 813 464 806 318 813 393 b 785 593 813 525 801 561 b 707 686 764 632 733 664 b 539 729 658 722 593 729 b 406 721 494 729 450 721 b 356 750 378 721 365 722 b 332 807 347 772 349 789 b 288 851 324 815 292 846 b 238 872 271 865 257 872 b 115 839 214 872 163 856 b 81 792 90 831 82 815 b 64 122 78 736 64 163 z m 364 442 l 364 494 b 404 531 369 514 383 531 l 474 531 b 504 518 483 531 499 521 b 543 433 535 503 543 464 b 492 344 543 397 528 358 b 436 332 483 342 444 333 l 414 332 l 394 332 b 364 388 369 339 365 364 z "},"":{"ha":1010,"x_min":0,"x_max":0,"o":"m 457 -79 b 493 -204 457 -99 461 -158 b 606 -260 529 -256 575 -260 b 857 -175 668 -260 778 -242 b 961 74 928 -115 961 -22 b 933 213 961 118 954 165 b 757 511 879 335 757 397 b 790 657 757 569 790 586 b 440 883 790 814 629 883 b 101 674 336 883 108 863 b 83 121 94 478 83 163 l 83 -18 b 231 -83 83 -57 193 -83 b 357 13 275 -83 308 -46 b 378 106 376 35 378 39 b 392 618 378 218 382 517 b 428 685 397 683 408 685 b 536 625 535 685 536 646 b 513 469 536 539 513 531 b 663 150 513 347 607 246 b 689 74 682 117 689 96 b 500 -25 689 -25 547 -18 b 457 -79 469 -29 457 -44 z "},"":{"ha":885,"x_min":0,"x_max":0,"o":"m 453 200 b 553 153 515 200 538 197 l 593 31 b 643 -12 601 6 619 -10 b 760 -25 683 -18 721 -25 b 869 81 811 -25 869 33 b 863 118 869 90 868 101 l 650 858 b 604 888 643 881 622 888 b 278 836 571 888 333 846 b 228 794 256 831 235 815 l 33 175 b 39 128 28 157 32 142 l 78 39 b 144 7 88 17 107 7 b 314 44 265 7 306 10 l 342 168 b 361 192 343 179 351 188 b 453 200 374 199 385 200 z m 378 447 b 392 533 378 469 385 504 b 460 586 399 565 421 586 b 499 563 472 586 492 581 b 522 453 507 531 521 475 b 442 404 528 410 500 404 b 378 447 410 404 378 406 z m 557 1018 b 544 1065 557 1044 554 1056 b 376 1210 482 1128 425 1172 b 324 1228 356 1226 342 1228 b 211 1126 258 1228 211 1210 b 238 1072 211 1107 215 1086 b 439 939 301 1033 371 988 b 479 926 451 931 464 926 b 557 1018 518 926 557 972 z "},"":{"ha":885,"x_min":0,"x_max":0,"o":"m 453 200 b 553 153 515 200 538 197 l 593 31 b 643 -12 601 6 619 -10 b 760 -25 683 -18 721 -25 b 869 81 811 -25 869 33 b 863 118 869 90 868 101 l 650 858 b 604 888 643 881 622 888 b 278 836 571 888 333 846 b 228 794 256 831 235 815 l 33 175 b 39 128 28 157 32 142 l 78 39 b 144 7 88 17 107 7 b 314 44 265 7 306 10 l 342 168 b 361 192 343 179 351 188 b 453 200 374 199 385 200 z m 378 447 b 392 533 378 469 385 504 b 460 586 399 565 421 586 b 499 563 472 586 492 581 b 522 453 507 531 521 475 b 442 404 528 410 500 404 b 378 447 410 404 378 406 z m 328 1018 b 406 926 328 972 364 926 b 444 939 421 926 433 931 b 646 1072 514 988 583 1033 b 672 1126 668 1086 672 1107 b 561 1228 672 1210 625 1228 b 507 1210 543 1228 529 1226 b 340 1065 458 1172 401 1128 b 328 1018 329 1056 328 1044 z "},"":{"ha":885,"x_min":0,"x_max":0,"o":"m 453 200 b 553 153 515 200 538 197 l 593 31 b 643 -12 601 6 619 -10 b 760 -25 683 -18 721 -25 b 869 81 811 -25 869 33 b 863 118 869 90 868 101 l 650 858 b 604 888 643 881 622 888 b 278 836 571 888 333 846 b 228 794 256 831 235 815 l 33 175 b 39 128 28 157 32 142 l 78 39 b 144 7 88 17 107 7 b 314 44 265 7 306 10 l 342 168 b 361 192 343 179 351 188 b 453 200 374 199 385 200 z m 378 447 b 392 533 378 469 385 504 b 460 586 399 565 421 586 b 499 563 472 586 492 581 b 522 453 507 531 521 475 b 442 404 528 410 500 404 b 378 447 410 404 378 406 z m 183 990 b 217 925 183 963 206 932 b 278 911 231 917 263 911 b 407 1032 317 911 369 996 b 443 1046 417 1042 429 1046 b 574 928 482 1046 529 974 b 610 917 582 919 594 917 b 653 926 621 917 636 919 b 701 1025 696 943 701 953 b 686 1056 701 1035 694 1046 b 499 1228 631 1108 558 1175 b 453 1239 488 1235 469 1239 b 376 1215 429 1239 394 1235 b 192 1013 319 1156 246 1079 b 183 990 185 1007 183 999 z "},"":{"ha":885,"x_min":0,"x_max":0,"o":"m 453 200 b 553 153 515 200 538 197 l 593 31 b 643 -12 601 6 619 -10 b 760 -25 683 -18 721 -25 b 869 81 811 -25 869 33 b 863 118 869 90 868 101 l 650 858 b 604 888 643 881 622 888 b 278 836 571 888 333 846 b 228 794 256 831 235 815 l 33 175 b 39 128 28 157 32 142 l 78 39 b 144 7 88 17 107 7 b 314 44 265 7 306 10 l 342 168 b 361 192 343 179 351 188 b 453 200 374 199 385 200 z m 378 447 b 392 533 378 469 385 504 b 460 586 399 565 421 586 b 499 563 472 586 492 581 b 522 453 507 531 521 475 b 442 404 528 410 500 404 b 378 447 410 404 378 406 z m 136 1042 b 225 940 136 1004 183 940 b 332 1007 269 940 275 1007 b 426 981 358 1007 400 990 b 588 939 478 963 529 938 b 678 972 621 939 653 950 b 747 1085 704 996 747 1046 b 665 1164 747 1125 703 1164 b 551 1099 622 1164 614 1099 b 311 1169 479 1099 400 1169 b 172 1110 263 1169 208 1146 b 136 1042 154 1092 136 1065 z "},"":{"ha":885,"x_min":0,"x_max":0,"o":"m 453 200 b 553 153 515 200 538 197 l 593 31 b 643 -12 601 6 619 -10 b 760 -25 683 -18 721 -25 b 869 81 811 -25 869 33 b 863 118 869 90 868 101 l 650 858 b 604 888 643 881 622 888 b 278 836 571 888 333 846 b 228 794 256 831 235 815 l 33 175 b 39 128 28 157 32 142 l 78 39 b 144 7 88 17 107 7 b 314 44 265 7 306 10 l 342 168 b 361 192 343 179 351 188 b 453 200 374 199 385 200 z m 378 447 b 392 533 378 469 385 504 b 460 586 399 565 421 586 b 499 563 472 586 492 581 b 522 453 507 531 521 475 b 442 404 528 410 500 404 b 378 447 410 404 378 406 z m 651 956 b 707 971 676 956 693 961 b 736 1090 722 985 736 1006 b 701 1163 736 1122 722 1149 b 574 1174 686 1172 664 1174 b 483 1076 493 1174 483 1143 b 517 978 483 1038 485 1003 b 651 956 540 961 568 956 z m 315 956 b 371 971 340 956 357 961 b 400 1090 386 985 400 1006 b 365 1163 400 1122 386 1149 b 238 1174 349 1172 328 1174 b 147 1076 157 1174 147 1143 b 181 978 147 1038 149 1003 b 315 956 204 961 232 956 z "},"":{"ha":885,"x_min":0,"x_max":0,"o":"m 453 200 b 553 153 515 200 538 197 l 593 31 b 643 -12 601 6 619 -10 b 760 -25 683 -18 721 -25 b 869 81 811 -25 869 33 b 863 118 869 90 868 101 l 650 858 b 604 888 643 881 622 888 b 278 836 571 888 333 846 b 228 794 256 831 235 815 l 33 175 b 39 128 28 157 32 142 l 78 39 b 144 7 88 17 107 7 b 314 44 265 7 306 10 l 342 168 b 361 192 343 179 351 188 b 453 200 374 199 385 200 z m 378 447 b 392 533 378 469 385 504 b 460 586 399 565 421 586 b 499 563 472 586 492 581 b 522 453 507 531 521 475 b 442 404 528 410 500 404 b 378 447 410 404 378 406 z m 253 1063 b 440 876 253 961 297 876 b 631 1060 571 876 631 946 b 446 1238 631 1169 574 1238 b 253 1063 329 1238 253 1193 z m 375 1063 b 442 1138 375 1110 401 1138 b 508 1060 483 1138 508 1108 b 446 989 508 1019 488 989 b 375 1063 403 989 375 1018 z "},"":{"ha":1243,"x_min":0,"x_max":0,"o":"m 378 447 b 392 533 378 469 385 504 b 460 586 399 565 421 586 b 535 533 519 586 533 568 l 536 481 b 442 404 536 407 511 404 b 378 447 410 404 378 406 z m 560 63 b 708 -47 569 24 674 -47 b 1099 -39 886 -47 1013 -46 b 1179 15 1133 -37 1147 -29 b 1210 92 1207 54 1210 65 b 1190 193 1210 115 1201 163 b 1133 217 1186 204 1171 217 b 907 207 1053 217 988 207 b 844 281 868 207 844 219 b 881 324 844 310 854 321 b 1104 338 915 326 1028 332 b 1174 421 1138 340 1174 356 b 1110 493 1174 457 1154 492 b 850 501 1060 496 915 496 b 808 569 821 504 808 524 b 843 603 808 589 815 600 l 1110 622 b 1164 665 1140 625 1154 639 b 1194 776 1175 697 1194 750 b 1185 806 1194 788 1192 794 b 1093 872 1143 865 1139 872 b 278 836 992 872 410 846 b 228 794 254 833 233 815 l 33 175 b 31 157 32 169 31 163 b 39 128 31 147 33 138 l 78 39 b 144 7 88 17 107 7 b 314 44 265 7 306 10 l 342 168 b 361 192 343 179 351 188 b 453 200 374 199 385 200 b 553 136 529 200 553 192 b 560 63 553 119 554 89 z "},"":{"ha":744,"x_min":0,"x_max":0,"o":"m 481 -49 b 610 -40 554 -49 571 -47 b 664 19 629 -37 639 -26 b 689 99 686 64 689 74 b 664 203 689 115 672 175 b 614 239 657 225 633 239 b 519 233 582 239 550 233 b 318 443 382 233 318 319 b 467 631 318 556 371 621 b 621 643 497 635 594 639 b 664 681 646 646 658 660 b 676 758 669 707 676 733 b 636 858 676 781 672 806 b 556 900 610 896 603 900 b 226 818 442 900 299 865 b 39 422 69 721 39 574 b 113 153 39 324 65 233 b 481 -49 204 0 338 -49 z m 307 -368 b 369 -428 307 -396 326 -428 b 428 -412 383 -428 411 -426 b 599 -167 499 -357 599 -226 b 579 -101 599 -153 597 -140 b 396 -64 563 -69 504 -64 b 326 -97 361 -64 354 -68 b 294 -154 300 -126 294 -133 b 326 -247 294 -175 326 -225 b 307 -368 326 -287 307 -328 z "},"":{"ha":754,"x_min":0,"x_max":0,"o":"m 40 63 b 179 -47 40 22 144 -47 b 610 -39 356 -47 524 -46 b 690 15 644 -37 658 -29 b 721 92 718 54 721 65 b 701 193 721 115 713 163 b 644 217 697 204 682 217 b 400 207 564 217 482 207 b 344 265 364 207 344 218 b 386 324 344 306 356 321 b 615 338 421 326 539 332 b 675 378 643 340 664 346 b 685 421 679 392 685 407 b 621 493 685 457 665 492 b 371 501 571 496 435 496 b 335 557 343 504 335 521 b 374 603 335 586 342 600 l 621 622 b 675 665 651 625 665 639 b 706 776 686 697 706 750 b 696 806 706 788 703 794 b 604 872 654 865 650 872 b 107 842 481 872 257 853 b 71 806 88 840 71 822 b 40 63 61 558 40 156 z m 504 1018 b 492 1065 504 1044 501 1056 b 324 1210 429 1128 372 1172 b 271 1228 303 1226 289 1228 b 158 1126 206 1228 158 1210 b 185 1072 158 1107 163 1086 b 386 939 249 1033 318 988 b 426 926 399 931 411 926 b 504 1018 465 926 504 972 z "},"":{"ha":754,"x_min":0,"x_max":0,"o":"m 40 63 b 179 -47 40 22 144 -47 b 610 -39 356 -47 524 -46 b 690 15 644 -37 658 -29 b 721 92 718 54 721 65 b 701 193 721 115 713 163 b 644 217 697 204 682 217 b 400 207 564 217 482 207 b 344 265 364 207 344 218 b 386 324 344 306 356 321 b 615 338 421 326 539 332 b 675 378 643 340 664 346 b 685 421 679 392 685 407 b 621 493 685 457 665 492 b 371 501 571 496 435 496 b 335 557 343 504 335 521 b 374 603 335 586 342 600 l 621 622 b 675 665 651 625 665 639 b 706 776 686 697 706 750 b 696 806 706 788 703 794 b 604 872 654 865 650 872 b 107 842 481 872 257 853 b 71 806 88 840 71 822 b 40 63 61 558 40 156 z m 274 1018 b 351 926 274 972 310 926 b 390 939 367 926 379 931 b 592 1072 460 988 529 1033 b 618 1126 614 1086 618 1107 b 507 1228 618 1210 571 1228 b 453 1210 489 1228 475 1226 b 286 1065 404 1172 347 1128 b 274 1018 275 1056 274 1044 z "},"":{"ha":754,"x_min":0,"x_max":0,"o":"m 40 63 b 179 -47 40 22 144 -47 b 610 -39 356 -47 524 -46 b 690 15 644 -37 658 -29 b 721 92 718 54 721 65 b 701 193 721 115 713 163 b 644 217 697 204 682 217 b 400 207 564 217 482 207 b 344 265 364 207 344 218 b 386 324 344 306 356 321 b 615 338 421 326 539 332 b 675 378 643 340 664 346 b 685 421 679 392 685 407 b 621 493 685 457 665 492 b 371 501 571 496 435 496 b 335 557 343 504 335 521 b 374 603 335 586 342 600 l 621 622 b 675 665 651 625 665 639 b 706 776 686 697 706 750 b 696 806 706 788 703 794 b 604 872 654 865 650 872 b 107 842 481 872 257 853 b 71 806 88 840 71 822 b 40 63 61 558 40 156 z m 124 990 b 157 925 124 963 146 932 b 218 911 171 917 203 911 b 347 1032 257 911 310 996 b 383 1046 357 1042 369 1046 b 514 928 422 1046 469 974 b 550 917 522 919 535 917 b 593 926 561 917 576 919 b 642 1025 636 943 642 953 b 626 1056 642 1035 635 1046 b 439 1228 571 1108 499 1175 b 393 1239 428 1235 410 1239 b 317 1215 369 1239 335 1235 b 132 1013 260 1156 186 1079 b 124 990 125 1007 124 999 z "},"":{"ha":754,"x_min":0,"x_max":0,"o":"m 40 63 b 179 -47 40 22 144 -47 b 610 -39 356 -47 524 -46 b 690 15 644 -37 658 -29 b 721 92 718 54 721 65 b 701 193 721 115 713 163 b 644 217 697 204 682 217 b 400 207 564 217 482 207 b 344 265 364 207 344 218 b 386 324 344 306 356 321 b 615 338 421 326 539 332 b 675 378 643 340 664 346 b 685 421 679 392 685 407 b 621 493 685 457 665 492 b 371 501 571 496 435 496 b 335 557 343 504 335 521 b 374 603 335 586 342 600 l 621 622 b 675 665 651 625 665 639 b 706 776 686 697 706 750 b 696 806 706 788 703 794 b 604 872 654 865 650 872 b 107 842 481 872 257 853 b 71 806 88 840 71 822 b 40 63 61 558 40 156 z m 600 956 b 656 971 625 956 642 961 b 685 1090 671 985 685 1006 b 650 1163 685 1122 671 1149 b 522 1174 635 1172 613 1174 b 432 1076 442 1174 432 1143 b 465 978 432 1038 433 1003 b 600 956 489 961 517 956 z m 264 956 b 319 971 289 956 306 961 b 349 1090 335 985 349 1006 b 314 1163 349 1122 335 1149 b 186 1174 297 1172 276 1174 b 96 1076 106 1174 96 1143 b 129 978 96 1038 97 1003 b 264 956 153 961 181 956 z "},"":{"ha":444,"x_min":0,"x_max":0,"o":"m 83 117 b 160 18 83 72 93 64 b 254 -29 228 -26 239 -29 b 319 1 268 -29 279 -26 b 388 79 385 47 388 53 b 371 743 388 350 378 600 b 324 832 368 786 357 801 b 253 869 289 863 282 869 b 182 854 242 869 222 865 b 99 783 118 838 100 824 b 83 117 93 706 83 264 z m 347 1018 b 335 1065 347 1044 344 1056 b 167 1210 272 1128 215 1172 b 114 1228 146 1226 132 1228 b 1 1126 49 1228 1 1210 b 28 1072 1 1107 6 1086 b 229 939 92 1033 161 988 b 269 926 242 931 254 926 b 347 1018 308 926 347 972 z "},"":{"ha":435,"x_min":0,"x_max":0,"o":"m 65 117 b 142 18 65 72 75 64 b 236 -29 210 -26 221 -29 b 301 1 250 -29 261 -26 b 369 79 367 47 369 53 b 353 743 369 350 360 600 b 306 832 350 786 339 801 b 235 869 271 863 264 869 b 164 854 224 869 204 865 b 81 783 100 838 82 824 b 65 117 75 706 65 264 z m 99 1018 b 176 926 99 972 135 926 b 215 939 192 926 204 931 b 417 1072 285 988 354 1033 b 443 1126 439 1086 443 1107 b 332 1228 443 1210 396 1228 b 278 1210 314 1228 300 1226 b 111 1065 229 1172 172 1128 b 99 1018 100 1056 99 1044 z "},"":{"ha":463,"x_min":0,"x_max":0,"o":"m 90 117 b 167 18 90 72 100 64 b 261 -29 235 -26 246 -29 b 326 1 275 -29 286 -26 b 394 79 392 47 394 53 b 378 743 394 350 385 600 b 331 832 375 786 364 801 b 260 869 296 863 289 869 b 189 854 249 869 229 865 b 106 783 125 838 107 824 b 90 117 100 706 90 264 z m -21 990 b 13 925 -21 963 1 932 b 74 911 26 917 58 911 b 203 1032 113 911 165 996 b 239 1046 213 1042 225 1046 b 369 928 278 1046 325 974 b 406 917 378 919 390 917 b 449 926 417 917 432 919 b 497 1025 492 943 497 953 b 482 1056 497 1035 490 1046 b 294 1228 426 1108 354 1175 b 249 1239 283 1235 265 1239 b 172 1215 225 1239 190 1235 b -12 1013 115 1156 42 1079 b -21 990 -19 1007 -21 999 z "},"":{"ha":499,"x_min":0,"x_max":0,"o":"m 104 117 b 181 18 104 72 114 64 b 275 -29 249 -26 260 -29 b 340 1 289 -29 300 -26 b 408 79 406 47 408 53 b 392 743 408 350 399 600 b 344 832 389 786 378 801 b 274 869 310 863 303 869 b 203 854 263 869 243 865 b 119 783 139 838 121 824 b 104 117 114 706 104 264 z m 461 956 b 517 971 486 956 503 961 b 546 1090 532 985 546 1006 b 511 1163 546 1122 532 1149 b 383 1174 496 1172 474 1174 b 293 1076 303 1174 293 1143 b 326 978 293 1038 294 1003 b 461 956 350 961 378 956 z m 125 956 b 181 971 150 956 167 961 b 210 1090 196 985 210 1006 b 175 1163 210 1122 196 1149 b 47 1174 158 1172 138 1174 b -43 1076 -33 1174 -43 1143 b -10 978 -43 1038 -42 1003 b 125 956 14 961 42 956 z "},"":{"ha":881,"x_min":0,"x_max":0,"o":"m -17 438 b 38 369 -17 407 10 369 b 56 343 51 369 56 360 b 53 117 56 240 53 150 b 124 -6 53 72 65 53 b 213 -50 161 -43 190 -50 b 253 -43 219 -50 226 -50 b 597 63 354 -18 536 35 b 844 485 769 143 844 314 b 749 785 844 557 829 694 b 553 868 697 840 628 868 b 115 836 389 868 250 851 b 68 786 88 832 68 813 b 61 575 67 757 63 665 b 39 542 61 561 58 542 b 3 521 19 542 11 538 b -17 438 -7 499 -17 451 z m 335 314 b 369 378 335 343 336 376 l 406 381 b 456 481 449 383 456 444 b 363 547 456 528 451 547 b 328 574 340 547 328 557 b 447 628 328 618 351 628 b 561 504 507 628 561 618 b 376 282 561 358 496 282 b 335 314 349 282 335 294 z "},"":{"ha":844,"x_min":0,"x_max":0,"o":"m 322 281 b 353 263 335 281 346 274 b 543 -31 417 164 478 60 b 664 -76 564 -60 638 -76 b 733 -60 686 -76 711 -68 b 783 -11 758 -49 783 -39 b 779 747 783 132 782 704 b 744 806 779 765 772 779 b 692 833 724 826 714 833 b 631 815 679 833 665 829 b 561 760 574 793 563 783 b 556 497 557 681 556 556 b 528 472 556 482 542 472 b 514 476 521 472 519 472 b 492 497 507 481 493 496 l 288 794 b 226 838 263 829 244 838 b 158 818 211 838 193 832 b 69 743 86 790 71 774 b 49 96 51 214 49 118 b 86 39 49 76 65 54 b 147 15 115 19 125 15 b 211 25 167 15 178 18 b 292 90 272 40 292 50 b 290 242 292 133 290 189 b 322 281 290 265 303 281 z m 117 993 b 206 892 117 956 164 892 b 313 958 250 892 256 958 b 407 932 339 958 381 942 b 568 890 458 914 510 889 b 658 924 601 890 633 901 b 728 1036 685 947 728 997 b 646 1115 728 1076 683 1115 b 532 1050 603 1115 594 1050 b 292 1121 460 1050 381 1121 b 153 1061 243 1121 189 1097 b 117 993 135 1043 117 1017 z "},"":{"ha":867,"x_min":0,"x_max":0,"o":"m 422 -57 b 839 435 715 -57 839 125 b 429 881 839 710 722 881 b 32 363 164 881 0 669 b 422 -57 54 135 182 -57 z m 290 431 b 440 625 290 526 335 625 b 579 426 538 625 579 517 b 442 229 579 346 536 229 b 290 431 335 229 290 346 z m 549 1018 b 536 1065 549 1044 546 1056 b 368 1210 474 1128 417 1172 b 315 1228 347 1226 333 1228 b 203 1126 250 1228 203 1210 b 229 1072 203 1107 207 1086 b 431 939 293 1033 363 988 b 471 926 443 931 456 926 b 549 1018 510 926 549 972 z "},"":{"ha":867,"x_min":0,"x_max":0,"o":"m 422 -57 b 839 435 715 -57 839 125 b 429 881 839 710 722 881 b 32 363 164 881 0 669 b 422 -57 54 135 182 -57 z m 290 431 b 440 625 290 526 335 625 b 579 426 538 625 579 517 b 442 229 579 346 536 229 b 290 431 335 229 290 346 z m 319 1018 b 397 926 319 972 356 926 b 436 939 413 926 425 931 b 638 1072 506 988 575 1033 b 664 1126 660 1086 664 1107 b 553 1228 664 1210 617 1228 b 499 1210 535 1228 521 1226 b 332 1065 450 1172 393 1128 b 319 1018 321 1056 319 1044 z "},"":{"ha":867,"x_min":0,"x_max":0,"o":"m 422 -57 b 839 435 715 -57 839 125 b 429 881 839 710 722 881 b 32 363 164 881 0 669 b 422 -57 54 135 182 -57 z m 290 431 b 440 625 290 526 335 625 b 579 426 538 625 579 517 b 442 229 579 346 536 229 b 290 431 335 229 290 346 z m 175 990 b 208 925 175 963 197 932 b 269 911 222 917 254 911 b 399 1032 308 911 361 996 b 435 1046 408 1042 421 1046 b 565 928 474 1046 521 974 b 601 917 574 919 586 917 b 644 926 613 917 628 919 b 693 1025 688 943 693 953 b 678 1056 693 1035 686 1046 b 490 1228 622 1108 550 1175 b 444 1239 479 1235 461 1239 b 368 1215 421 1239 386 1235 b 183 1013 311 1156 238 1079 b 175 990 176 1007 175 999 z "},"":{"ha":867,"x_min":0,"x_max":0,"o":"m 422 -57 b 839 435 715 -57 839 125 b 429 881 839 710 722 881 b 32 363 164 881 0 669 b 422 -57 54 135 182 -57 z m 290 431 b 440 625 290 526 335 625 b 579 426 538 625 579 517 b 442 229 579 346 536 229 b 290 431 335 229 290 346 z m 128 1042 b 217 940 128 1004 175 940 b 324 1007 261 940 267 1007 b 418 981 350 1007 392 990 b 579 939 469 963 521 938 b 669 972 613 939 644 950 b 739 1085 696 996 739 1046 b 657 1164 739 1125 694 1164 b 543 1099 614 1164 606 1099 b 303 1169 471 1099 392 1169 b 164 1110 254 1169 200 1146 b 128 1042 146 1092 128 1065 z "},"":{"ha":867,"x_min":0,"x_max":0,"o":"m 422 -57 b 839 435 715 -57 839 125 b 429 881 839 710 722 881 b 32 363 164 881 0 669 b 422 -57 54 135 182 -57 z m 290 431 b 440 625 290 526 335 625 b 579 426 538 625 579 517 b 442 229 579 346 536 229 b 290 431 335 229 290 346 z m 643 956 b 699 971 668 956 685 961 b 728 1090 714 985 728 1006 b 693 1163 728 1122 714 1149 b 565 1174 678 1172 656 1174 b 475 1076 485 1174 475 1143 b 508 978 475 1038 476 1003 b 643 956 532 961 560 956 z m 307 956 b 363 971 332 956 349 961 b 392 1090 378 985 392 1006 b 357 1163 392 1122 378 1149 b 229 1174 340 1172 319 1174 b 139 1076 149 1174 139 1143 b 172 978 139 1038 140 1003 b 307 956 196 961 224 956 z "},"":{"ha":835,"x_min":0,"x_max":0,"o":"m 35 385 b 106 297 35 346 67 297 b 722 313 335 297 536 303 b 769 349 744 313 761 326 b 786 439 781 379 786 408 b 763 506 786 478 779 492 b 621 524 740 522 733 524 b 106 517 411 524 242 521 b 58 490 81 515 68 513 b 35 385 46 463 35 403 z m 463 575 b 525 599 492 575 510 582 b 558 774 543 618 558 647 b 519 878 558 821 543 857 b 376 896 501 894 476 896 b 276 754 288 896 276 851 b 313 610 276 696 278 644 b 463 575 339 582 372 575 z m 463 -74 b 525 -50 492 -74 510 -67 b 558 125 543 -31 558 -1 b 519 229 558 172 543 208 b 376 247 501 246 476 247 b 276 106 288 247 276 203 b 313 -39 276 47 278 -4 b 463 -74 339 -67 372 -74 z "},"":{"ha":867,"x_min":0,"x_max":0,"o":"m 115 -100 b 197 -121 138 -112 172 -121 b 240 -90 213 -121 226 -114 l 274 -28 b 422 -57 318 -47 367 -57 b 839 435 715 -57 839 125 b 719 786 839 588 801 708 l 753 846 b 765 879 761 860 765 867 b 724 947 765 896 736 938 b 657 972 707 961 671 972 b 632 954 647 972 636 964 l 581 861 b 429 881 536 872 486 881 b 28 436 186 881 28 701 b 144 68 28 296 65 160 l 90 -32 b 82 -54 85 -42 82 -47 b 115 -100 82 -76 104 -94 z m 579 426 b 442 229 579 346 536 229 b 417 232 432 229 424 231 l 568 508 b 579 426 575 482 579 453 z m 290 431 b 440 625 290 526 335 625 b 450 624 443 625 447 625 l 301 353 b 290 431 293 378 290 406 z "},"":{"ha":901,"x_min":0,"x_max":0,"o":"m 129 13 b 288 -60 204 -51 232 -60 b 729 -35 413 -60 686 -42 b 807 7 743 -32 769 -24 b 847 107 844 38 847 51 b 829 781 842 374 836 578 b 751 847 829 819 810 829 b 675 865 708 860 697 865 b 603 836 650 865 635 860 b 563 757 568 808 563 794 b 574 250 563 581 574 415 b 444 190 574 204 506 190 b 344 257 378 190 344 204 b 346 783 344 372 346 682 b 276 856 346 829 331 838 b 226 865 256 863 243 865 b 158 851 204 865 194 863 b 56 765 68 822 60 810 b 42 176 51 693 42 374 b 129 13 42 100 44 85 z m 564 1018 b 551 1065 564 1044 561 1056 b 383 1210 489 1128 432 1172 b 331 1228 363 1226 349 1228 b 218 1126 265 1228 218 1210 b 244 1072 218 1107 222 1086 b 446 939 308 1033 378 988 b 486 926 458 931 471 926 b 564 1018 525 926 564 972 z "},"":{"ha":901,"x_min":0,"x_max":0,"o":"m 129 13 b 288 -60 204 -51 232 -60 b 729 -35 413 -60 686 -42 b 807 7 743 -32 769 -24 b 847 107 844 38 847 51 b 829 781 842 374 836 578 b 751 847 829 819 810 829 b 675 865 708 860 697 865 b 603 836 650 865 635 860 b 563 757 568 808 563 794 b 574 250 563 581 574 415 b 444 190 574 204 506 190 b 344 257 378 190 344 204 b 346 783 344 372 346 682 b 276 856 346 829 331 838 b 226 865 256 863 243 865 b 158 851 204 865 194 863 b 56 765 68 822 60 810 b 42 176 51 693 42 374 b 129 13 42 100 44 85 z m 336 1018 b 414 926 336 972 372 926 b 453 939 429 926 442 931 b 654 1072 522 988 592 1033 b 681 1126 676 1086 681 1107 b 569 1228 681 1210 633 1228 b 515 1210 551 1228 538 1226 b 349 1065 467 1172 410 1128 b 336 1018 338 1056 336 1044 z "},"":{"ha":901,"x_min":0,"x_max":0,"o":"m 129 13 b 288 -60 204 -51 232 -60 b 729 -35 413 -60 686 -42 b 807 7 743 -32 769 -24 b 847 107 844 38 847 51 b 829 781 842 374 836 578 b 751 847 829 819 810 829 b 675 865 708 860 697 865 b 603 836 650 865 635 860 b 563 757 568 808 563 794 b 574 250 563 581 574 415 b 444 190 574 204 506 190 b 344 257 378 190 344 204 b 346 783 344 372 346 682 b 276 856 346 829 331 838 b 226 865 256 863 243 865 b 158 851 204 865 194 863 b 56 765 68 822 60 810 b 42 176 51 693 42 374 b 129 13 42 100 44 85 z m 192 990 b 225 925 192 963 214 932 b 286 911 239 917 271 911 b 415 1032 325 911 378 996 b 451 1046 425 1042 438 1046 b 582 928 490 1046 538 974 b 618 917 590 919 603 917 b 661 926 629 917 644 919 b 710 1025 704 943 710 953 b 694 1056 710 1035 703 1046 b 507 1228 639 1108 567 1175 b 461 1239 496 1235 478 1239 b 385 1215 438 1239 403 1235 b 200 1013 328 1156 254 1079 b 192 990 193 1007 192 999 z "},"":{"ha":901,"x_min":0,"x_max":0,"o":"m 129 13 b 288 -60 204 -51 232 -60 b 729 -35 413 -60 686 -42 b 807 7 743 -32 769 -24 b 847 107 844 38 847 51 b 829 781 842 374 836 578 b 751 847 829 819 810 829 b 675 865 708 860 697 865 b 603 836 650 865 635 860 b 563 757 568 808 563 794 b 574 250 563 581 574 415 b 444 190 574 204 506 190 b 344 257 378 190 344 204 b 346 783 344 372 346 682 b 276 856 346 829 331 838 b 226 865 256 863 243 865 b 158 851 204 865 194 863 b 56 765 68 822 60 810 b 42 176 51 693 42 374 b 129 13 42 100 44 85 z m 660 956 b 715 971 685 956 701 961 b 744 1090 731 985 744 1006 b 710 1163 744 1122 731 1149 b 582 1174 694 1172 672 1174 b 492 1076 501 1174 492 1143 b 525 978 492 1038 493 1003 b 660 956 549 961 576 956 z m 324 956 b 379 971 349 956 365 961 b 408 1090 394 985 408 1006 b 374 1163 408 1122 394 1149 b 246 1174 357 1172 336 1174 b 156 1076 165 1174 156 1143 b 189 978 156 1038 157 1003 b 324 956 213 961 240 956 z "},"":{"ha":890,"x_min":0,"x_max":0,"o":"m 213 -221 b 254 -306 213 -256 219 -262 b 343 -360 290 -349 300 -360 b 594 -336 417 -360 518 -349 b 740 -232 646 -328 667 -312 b 815 -118 799 -169 813 -143 b 842 754 824 -25 842 700 b 774 838 842 804 828 817 b 711 853 739 850 729 853 b 642 831 693 853 679 847 b 571 740 586 807 571 793 b 572 372 571 656 572 494 b 543 328 572 351 560 336 b 404 314 517 315 433 314 b 343 369 351 314 343 347 b 357 758 343 443 357 633 b 299 839 357 807 343 819 b 243 856 268 851 256 856 b 161 835 224 856 211 851 b 97 810 140 828 118 819 b 68 767 81 803 69 783 b 54 306 65 732 54 399 b 118 156 54 246 63 225 b 251 67 178 79 207 67 b 503 90 286 67 464 90 b 557 32 544 90 557 75 b 482 -71 557 -22 533 -46 b 274 -110 454 -85 404 -87 b 222 -168 238 -115 226 -147 b 213 -221 214 -200 213 -211 z m 354 1018 b 432 926 354 972 390 926 b 471 939 447 926 460 931 b 672 1072 540 988 610 1033 b 699 1126 694 1086 699 1107 b 588 1228 699 1210 651 1228 b 533 1210 569 1228 556 1226 b 367 1065 485 1172 428 1128 b 354 1018 356 1056 354 1044 z "},"":{"ha":843,"x_min":0,"x_max":0,"o":"m 64 122 b 94 49 64 96 68 67 l 211 -25 b 238 -32 219 -32 228 -32 b 278 -21 253 -32 264 -28 b 347 29 296 -12 335 18 b 369 65 356 38 369 50 b 378 121 372 89 375 115 b 414 156 382 139 397 154 l 653 179 b 763 257 696 183 740 226 b 813 464 806 318 813 393 b 785 593 813 525 801 561 b 707 686 764 632 733 664 b 539 729 658 722 593 729 b 406 721 494 729 450 721 b 356 750 378 721 365 722 b 332 807 347 772 349 789 b 288 851 324 815 292 846 b 238 872 271 865 257 872 b 115 839 214 872 163 856 b 81 792 90 831 82 815 b 64 122 78 736 64 163 z m 364 442 l 364 494 b 404 531 369 514 383 531 l 474 531 b 504 518 483 531 499 521 b 543 433 535 503 543 464 b 492 344 543 397 528 358 b 436 332 483 342 444 333 l 414 332 l 394 332 b 364 388 369 339 365 364 z "},"":{"ha":890,"x_min":0,"x_max":0,"o":"m 213 -221 b 254 -306 213 -256 219 -262 b 343 -360 290 -349 300 -360 b 594 -336 417 -360 518 -349 b 740 -232 646 -328 667 -312 b 815 -118 799 -169 813 -143 b 842 754 824 -25 842 700 b 774 838 842 804 828 817 b 711 853 739 850 729 853 b 642 831 693 853 679 847 b 571 740 586 807 571 793 b 572 372 571 656 572 494 b 543 328 572 351 560 336 b 404 314 517 315 433 314 b 343 369 351 314 343 347 b 357 758 343 443 357 633 b 299 839 357 807 343 819 b 243 856 268 851 256 856 b 161 835 224 856 211 851 b 97 810 140 828 118 819 b 68 767 81 803 69 783 b 54 306 65 732 54 399 b 118 156 54 246 63 225 b 251 67 178 79 207 67 b 503 90 286 67 464 90 b 557 32 544 90 557 75 b 482 -71 557 -22 533 -46 b 274 -110 454 -85 404 -87 b 222 -168 238 -115 226 -147 b 213 -221 214 -200 213 -211 z m 654 956 b 710 971 679 956 696 961 b 739 1090 725 985 739 1006 b 704 1163 739 1122 725 1149 b 576 1174 689 1172 667 1174 b 486 1076 496 1174 486 1143 b 519 978 486 1038 488 1003 b 654 956 543 961 571 956 z m 318 956 b 374 971 343 956 360 961 b 403 1090 389 985 403 1006 b 368 1163 403 1122 389 1149 b 240 1174 351 1172 331 1174 b 150 1076 160 1174 150 1143 b 183 978 150 1038 151 1003 b 318 956 207 961 235 956 z "},"":{"ha":885,"x_min":0,"x_max":0,"o":"m 453 200 b 553 153 515 200 538 197 l 593 31 b 643 -12 601 6 619 -10 b 760 -25 683 -18 721 -25 b 869 81 811 -25 869 33 b 863 118 869 90 868 101 l 650 858 b 604 888 643 881 622 888 b 278 836 571 888 333 846 b 228 794 256 831 235 815 l 33 175 b 39 128 28 157 32 142 l 78 39 b 144 7 88 17 107 7 b 314 44 265 7 306 10 l 342 168 b 361 192 343 179 351 188 b 453 200 374 199 385 200 z m 378 447 b 392 533 378 469 385 504 b 460 586 399 565 421 586 b 499 563 472 586 492 581 b 522 453 507 531 521 475 b 442 404 528 410 500 404 b 378 447 410 404 378 406 z m 153 1047 b 208 983 153 1019 176 983 b 679 994 383 983 539 988 b 717 1019 700 994 711 1003 b 731 1088 726 1042 731 1065 b 711 1135 731 1115 724 1126 b 601 1149 694 1149 689 1149 b 208 1144 442 1149 313 1149 b 171 1125 188 1143 178 1142 b 153 1047 161 1106 153 1061 z "},"":{"ha":885,"x_min":0,"x_max":0,"o":"m 453 200 b 553 153 515 200 538 197 l 593 31 b 643 -12 601 6 619 -10 b 760 -25 683 -18 721 -25 b 869 81 811 -25 869 33 b 863 118 869 90 868 101 l 650 858 b 604 888 643 881 622 888 b 278 836 571 888 333 846 b 228 794 256 831 235 815 l 33 175 b 39 128 28 157 32 142 l 78 39 b 144 7 88 17 107 7 b 314 44 265 7 306 10 l 342 168 b 361 192 343 179 351 188 b 453 200 374 199 385 200 z m 378 447 b 392 533 378 469 385 504 b 460 586 399 565 421 586 b 499 563 472 586 492 581 b 522 453 507 531 521 475 b 442 404 528 410 500 404 b 378 447 410 404 378 406 z m 153 1047 b 208 983 153 1019 176 983 b 679 994 383 983 539 988 b 717 1019 700 994 711 1003 b 731 1088 726 1042 731 1065 b 711 1135 731 1115 724 1126 b 601 1149 694 1149 689 1149 b 208 1144 442 1149 313 1149 b 171 1125 188 1143 178 1142 b 153 1047 161 1106 153 1061 z "},"":{"ha":885,"x_min":0,"x_max":0,"o":"m 453 200 b 553 153 515 200 538 197 l 593 31 b 643 -12 601 6 619 -10 b 760 -25 683 -18 721 -25 b 869 81 811 -25 869 33 b 863 118 869 90 868 101 l 650 858 b 604 888 643 881 622 888 b 278 836 571 888 333 846 b 228 794 256 831 235 815 l 33 175 b 39 128 28 157 32 142 l 78 39 b 144 7 88 17 107 7 b 314 44 265 7 306 10 l 342 168 b 361 192 343 179 351 188 b 453 200 374 199 385 200 z m 378 447 b 392 533 378 469 385 504 b 460 586 399 565 421 586 b 499 563 472 586 492 581 b 522 453 507 531 521 475 b 442 404 528 410 500 404 b 378 447 410 404 378 406 z m 451 906 b 694 1049 556 906 650 960 b 717 1143 710 1081 717 1113 b 646 1235 717 1169 704 1235 b 565 1140 586 1235 581 1185 b 450 1050 543 1085 506 1050 b 329 1149 392 1050 354 1083 b 253 1238 314 1194 314 1238 b 167 1158 193 1238 167 1207 b 199 1042 167 1113 179 1074 b 451 906 250 950 353 906 z "},"":{"ha":885,"x_min":0,"x_max":0,"o":"m 453 200 b 553 153 515 200 538 197 l 593 31 b 643 -12 601 6 619 -10 b 760 -25 683 -18 721 -25 b 869 81 811 -25 869 33 b 863 118 869 90 868 101 l 650 858 b 604 888 643 881 622 888 b 278 836 571 888 333 846 b 228 794 256 831 235 815 l 33 175 b 39 128 28 157 32 142 l 78 39 b 144 7 88 17 107 7 b 314 44 265 7 306 10 l 342 168 b 361 192 343 179 351 188 b 453 200 374 199 385 200 z m 378 447 b 392 533 378 469 385 504 b 460 586 399 565 421 586 b 499 563 472 586 492 581 b 522 453 507 531 521 475 b 442 404 528 410 500 404 b 378 447 410 404 378 406 z m 451 906 b 694 1049 556 906 650 960 b 717 1143 710 1081 717 1113 b 646 1235 717 1169 704 1235 b 565 1140 586 1235 581 1185 b 450 1050 543 1085 506 1050 b 329 1149 392 1050 354 1083 b 253 1238 314 1194 314 1238 b 167 1158 193 1238 167 1207 b 199 1042 167 1113 179 1074 b 451 906 250 950 353 906 z "},"":{"ha":885,"x_min":0,"x_max":0,"o":"m 719 -428 b 813 -422 772 -428 785 -428 b 851 -383 826 -421 833 -412 b 869 -331 868 -354 869 -347 b 851 -262 869 -319 858 -281 b 815 -237 844 -247 829 -237 b 747 -242 793 -237 769 -242 b 601 -153 628 -242 601 -197 b 753 -26 601 -97 640 -61 b 869 81 824 -4 869 33 b 863 118 869 90 868 101 l 650 858 b 604 888 643 881 619 888 b 278 836 571 888 333 846 b 228 794 256 831 235 815 l 33 175 b 31 157 32 169 31 163 b 39 128 31 147 33 138 l 78 39 b 144 7 88 17 107 7 b 314 44 265 7 306 10 l 342 168 b 361 192 343 179 351 188 b 453 200 374 199 385 200 b 553 153 515 200 538 197 l 593 31 b 597 11 596 25 597 18 b 571 -29 597 -6 590 -24 b 413 -224 481 -58 413 -119 b 442 -321 413 -256 419 -286 b 719 -428 507 -422 615 -428 z m 378 447 b 392 533 378 469 385 504 b 460 586 399 565 421 586 b 499 563 472 586 492 581 b 522 443 510 524 522 456 b 442 404 522 408 496 404 b 378 447 410 404 378 406 z "},"":{"ha":885,"x_min":0,"x_max":0,"o":"m 719 -428 b 813 -422 772 -428 785 -428 b 851 -383 826 -421 833 -412 b 869 -331 868 -354 869 -347 b 851 -262 869 -319 858 -281 b 815 -237 844 -247 829 -237 b 747 -242 793 -237 769 -242 b 601 -153 628 -242 601 -197 b 753 -26 601 -97 640 -61 b 869 81 824 -4 869 33 b 863 118 869 90 868 101 l 650 858 b 604 888 643 881 619 888 b 278 836 571 888 333 846 b 228 794 256 831 235 815 l 33 175 b 31 157 32 169 31 163 b 39 128 31 147 33 138 l 78 39 b 144 7 88 17 107 7 b 314 44 265 7 306 10 l 342 168 b 361 192 343 179 351 188 b 453 200 374 199 385 200 b 553 153 515 200 538 197 l 593 31 b 597 11 596 25 597 18 b 571 -29 597 -6 590 -24 b 413 -224 481 -58 413 -119 b 442 -321 413 -256 419 -286 b 719 -428 507 -422 615 -428 z m 378 447 b 392 533 378 469 385 504 b 460 586 399 565 421 586 b 499 563 472 586 492 581 b 522 443 510 524 522 456 b 442 404 522 408 496 404 b 378 447 410 404 378 406 z "},"":{"ha":744,"x_min":0,"x_max":0,"o":"m 481 -49 b 610 -40 554 -49 571 -47 b 664 19 629 -37 639 -26 b 689 99 686 64 689 74 b 664 203 689 115 672 175 b 614 239 657 225 633 239 b 519 233 582 239 550 233 b 318 443 382 233 318 319 b 467 631 318 556 371 621 b 621 643 497 635 594 639 b 664 681 646 646 658 660 b 676 758 669 707 676 733 b 636 858 676 781 672 806 b 556 900 610 896 603 900 b 226 818 442 900 299 865 b 39 422 69 721 39 574 b 113 153 39 324 65 233 b 481 -49 204 0 338 -49 z m 328 1018 b 406 926 328 972 364 926 b 444 939 421 926 433 931 b 646 1072 514 988 583 1033 b 672 1126 668 1086 672 1107 b 561 1228 672 1210 625 1228 b 507 1210 543 1228 529 1226 b 340 1065 458 1172 401 1128 b 328 1018 329 1056 328 1044 z "},"":{"ha":744,"x_min":0,"x_max":0,"o":"m 481 -49 b 610 -40 554 -49 571 -47 b 664 19 629 -37 639 -26 b 689 99 686 64 689 74 b 664 203 689 115 672 175 b 614 239 657 225 633 239 b 519 233 582 239 550 233 b 318 443 382 233 318 319 b 467 631 318 556 371 621 b 621 643 497 635 594 639 b 664 681 646 646 658 660 b 676 758 669 707 676 733 b 636 858 676 781 672 806 b 556 900 610 896 603 900 b 226 818 442 900 299 865 b 39 422 69 721 39 574 b 113 153 39 324 65 233 b 481 -49 204 0 338 -49 z m 328 1018 b 406 926 328 972 364 926 b 444 939 421 926 433 931 b 646 1072 514 988 583 1033 b 672 1126 668 1086 672 1107 b 561 1228 672 1210 625 1228 b 507 1210 543 1228 529 1226 b 340 1065 458 1172 401 1128 b 328 1018 329 1056 328 1044 z "},"":{"ha":744,"x_min":0,"x_max":0,"o":"m 481 -49 b 610 -40 554 -49 571 -47 b 664 19 629 -37 639 -26 b 689 99 686 64 689 74 b 664 203 689 115 672 175 b 614 239 657 225 633 239 b 519 233 582 239 550 233 b 318 443 382 233 318 319 b 467 631 318 556 371 621 b 621 643 497 635 594 639 b 664 681 646 646 658 660 b 676 758 669 707 676 733 b 636 858 676 781 672 806 b 556 900 610 896 603 900 b 226 818 442 900 299 865 b 39 422 69 721 39 574 b 113 153 39 324 65 233 b 481 -49 204 0 338 -49 z m 496 956 b 553 971 522 956 539 961 b 582 1090 567 985 582 1006 b 546 1163 582 1122 567 1149 b 418 1174 531 1172 510 1174 b 329 1076 338 1174 329 1143 b 361 978 329 1038 331 1003 b 496 956 386 961 414 956 z "},"":{"ha":744,"x_min":0,"x_max":0,"o":"m 481 -49 b 610 -40 554 -49 571 -47 b 664 19 629 -37 639 -26 b 689 99 686 64 689 74 b 664 203 689 115 672 175 b 614 239 657 225 633 239 b 519 233 582 239 550 233 b 318 443 382 233 318 319 b 467 631 318 556 371 621 b 621 643 497 635 594 639 b 664 681 646 646 658 660 b 676 758 669 707 676 733 b 636 858 676 781 672 806 b 556 900 610 896 603 900 b 226 818 442 900 299 865 b 39 422 69 721 39 574 b 113 153 39 324 65 233 b 481 -49 204 0 338 -49 z m 496 956 b 553 971 522 956 539 961 b 582 1090 567 985 582 1006 b 546 1163 582 1122 567 1149 b 418 1174 531 1172 510 1174 b 329 1076 338 1174 329 1143 b 361 978 329 1038 331 1003 b 496 956 386 961 414 956 z "},"":{"ha":744,"x_min":0,"x_max":0,"o":"m 481 -49 b 610 -40 554 -49 571 -47 b 664 19 629 -37 639 -26 b 689 99 686 64 689 74 b 664 203 689 115 672 175 b 614 239 657 225 633 239 b 519 233 582 239 550 233 b 318 443 382 233 318 319 b 467 631 318 556 371 621 b 621 643 497 635 594 639 b 664 681 646 646 658 660 b 676 758 669 707 676 733 b 636 858 676 781 672 806 b 556 900 610 896 603 900 b 226 818 442 900 299 865 b 39 422 69 721 39 574 b 113 153 39 324 65 233 b 481 -49 204 0 338 -49 z m 701 1160 b 667 1226 701 1188 679 1219 b 606 1239 653 1235 622 1239 b 478 1119 567 1239 515 1156 b 440 1106 467 1110 454 1106 b 310 1222 401 1106 356 1178 b 274 1235 301 1231 290 1235 b 231 1224 264 1235 249 1231 b 183 1126 188 1207 183 1199 b 199 1096 183 1115 189 1106 b 386 924 253 1042 325 976 b 431 911 396 915 415 911 b 508 935 454 911 489 917 b 693 1138 565 994 638 1071 b 701 1160 699 1143 701 1151 z "},"":{"ha":744,"x_min":0,"x_max":0,"o":"m 481 -49 b 610 -40 554 -49 571 -47 b 664 19 629 -37 639 -26 b 689 99 686 64 689 74 b 664 203 689 115 672 175 b 614 239 657 225 633 239 b 519 233 582 239 550 233 b 318 443 382 233 318 319 b 467 631 318 556 371 621 b 621 643 497 635 594 639 b 664 681 646 646 658 660 b 676 758 669 707 676 733 b 636 858 676 781 672 806 b 556 900 610 896 603 900 b 226 818 442 900 299 865 b 39 422 69 721 39 574 b 113 153 39 324 65 233 b 481 -49 204 0 338 -49 z m 701 1160 b 667 1226 701 1188 679 1219 b 606 1239 653 1235 622 1239 b 478 1119 567 1239 515 1156 b 440 1106 467 1110 454 1106 b 310 1222 401 1106 356 1178 b 274 1235 301 1231 290 1235 b 231 1224 264 1235 249 1231 b 183 1126 188 1207 183 1199 b 199 1096 183 1115 189 1106 b 386 924 253 1042 325 976 b 431 911 396 915 415 911 b 508 935 454 911 489 917 b 693 1138 565 994 638 1071 b 701 1160 699 1143 701 1151 z "},"":{"ha":881,"x_min":0,"x_max":0,"o":"m 53 117 b 124 -6 53 72 65 53 b 213 -50 161 -43 190 -50 b 253 -43 219 -50 226 -50 b 597 63 354 -18 536 35 b 844 485 769 143 844 314 b 749 785 844 557 829 694 b 553 868 697 840 628 868 b 115 836 389 868 250 851 b 68 786 88 832 68 813 b 53 117 64 693 53 207 z m 335 314 b 328 574 332 343 328 522 b 447 628 328 618 351 628 b 561 504 507 628 561 618 b 376 282 561 358 496 282 b 335 314 349 282 338 294 z m 700 1160 b 665 1226 700 1188 678 1219 b 604 1239 651 1235 621 1239 b 476 1119 565 1239 514 1156 b 439 1106 465 1110 453 1106 b 308 1222 400 1106 354 1178 b 272 1235 300 1231 289 1235 b 229 1224 263 1235 247 1231 b 182 1126 186 1207 182 1199 b 197 1096 182 1115 188 1106 b 385 924 251 1042 324 976 b 429 911 394 915 414 911 b 507 935 453 911 488 917 b 692 1138 564 994 636 1071 b 700 1160 697 1143 700 1151 z "},"":{"ha":881,"x_min":0,"x_max":0,"o":"m 53 117 b 124 -6 53 72 65 53 b 213 -50 161 -43 190 -50 b 253 -43 219 -50 226 -50 b 597 63 354 -18 536 35 b 844 485 769 143 844 314 b 749 785 844 557 829 694 b 553 868 697 840 628 868 b 115 836 389 868 250 851 b 68 786 88 832 68 813 b 53 117 64 693 53 207 z m 335 314 b 328 574 332 343 328 522 b 447 628 328 618 351 628 b 561 504 507 628 561 618 b 376 282 561 358 496 282 b 335 314 349 282 338 294 z m 700 1160 b 665 1226 700 1188 678 1219 b 604 1239 651 1235 621 1239 b 476 1119 565 1239 514 1156 b 439 1106 465 1110 453 1106 b 308 1222 400 1106 354 1178 b 272 1235 300 1231 289 1235 b 229 1224 263 1235 247 1231 b 182 1126 186 1207 182 1199 b 197 1096 182 1115 188 1106 b 385 924 251 1042 324 976 b 429 911 394 915 414 911 b 507 935 453 911 488 917 b 692 1138 564 994 636 1071 b 700 1160 697 1143 700 1151 z "},"":{"ha":881,"x_min":0,"x_max":0,"o":"m -17 438 b 38 369 -17 407 10 369 b 56 343 51 369 56 360 b 53 117 56 240 53 150 b 124 -6 53 72 65 53 b 213 -50 161 -43 190 -50 b 253 -43 219 -50 226 -50 b 597 63 354 -18 536 35 b 844 485 769 143 844 314 b 749 785 844 557 829 694 b 553 868 697 840 628 868 b 115 836 389 868 250 851 b 68 786 88 832 68 813 b 61 575 67 757 63 665 b 39 542 61 561 58 542 b 3 521 19 542 11 538 b -17 438 -7 499 -17 451 z m 335 314 b 369 378 335 343 336 376 l 406 381 b 456 481 449 383 456 444 b 363 547 456 528 451 547 b 328 574 340 547 328 557 b 447 628 328 618 351 628 b 561 504 507 628 561 618 b 376 282 561 358 496 282 b 335 314 349 282 335 294 z "},"":{"ha":881,"x_min":0,"x_max":0,"o":"m -17 438 b 38 369 -17 407 10 369 b 56 343 51 369 56 360 b 53 117 56 240 53 150 b 124 -6 53 72 65 53 b 213 -50 161 -43 190 -50 b 253 -43 219 -50 226 -50 b 597 63 354 -18 536 35 b 844 485 769 143 844 314 b 749 785 844 557 829 694 b 553 868 697 840 628 868 b 115 836 389 868 250 851 b 68 786 88 832 68 813 b 61 575 67 757 63 665 b 39 542 61 561 58 542 b 3 521 19 542 11 538 b -17 438 -7 499 -17 451 z m 335 314 b 369 378 335 343 336 376 l 406 381 b 456 481 449 383 456 444 b 363 547 456 528 451 547 b 328 574 340 547 328 557 b 447 628 328 618 351 628 b 561 504 507 628 561 618 b 376 282 561 358 496 282 b 335 314 349 282 335 294 z "},"":{"ha":754,"x_min":0,"x_max":0,"o":"m 40 63 b 179 -47 40 22 144 -47 b 610 -39 356 -47 524 -46 b 690 15 644 -37 658 -29 b 721 92 718 54 721 65 b 701 193 721 115 713 163 b 644 217 697 204 682 217 b 400 207 564 217 482 207 b 344 265 364 207 344 218 b 386 324 344 306 356 321 b 615 338 421 326 539 332 b 675 378 643 340 664 346 b 685 421 679 392 685 407 b 621 493 685 457 665 492 b 371 501 571 496 435 496 b 335 557 343 504 335 521 b 374 603 335 586 342 600 l 621 622 b 675 665 651 625 665 639 b 706 776 686 697 706 750 b 696 806 706 788 703 794 b 604 872 654 865 650 872 b 107 842 481 872 257 853 b 71 806 88 840 71 822 b 40 63 61 558 40 156 z m 94 1047 b 150 983 94 1019 118 983 b 621 994 325 983 481 988 b 658 1019 642 994 653 1003 b 672 1088 668 1042 672 1065 b 653 1135 672 1115 665 1126 b 543 1149 636 1149 631 1149 b 150 1144 383 1149 254 1149 b 113 1125 129 1143 119 1142 b 94 1047 103 1106 94 1061 z "},"":{"ha":754,"x_min":0,"x_max":0,"o":"m 40 63 b 179 -47 40 22 144 -47 b 610 -39 356 -47 524 -46 b 690 15 644 -37 658 -29 b 721 92 718 54 721 65 b 701 193 721 115 713 163 b 644 217 697 204 682 217 b 400 207 564 217 482 207 b 344 265 364 207 344 218 b 386 324 344 306 356 321 b 615 338 421 326 539 332 b 675 378 643 340 664 346 b 685 421 679 392 685 407 b 621 493 685 457 665 492 b 371 501 571 496 435 496 b 335 557 343 504 335 521 b 374 603 335 586 342 600 l 621 622 b 675 665 651 625 665 639 b 706 776 686 697 706 750 b 696 806 706 788 703 794 b 604 872 654 865 650 872 b 107 842 481 872 257 853 b 71 806 88 840 71 822 b 40 63 61 558 40 156 z m 94 1047 b 150 983 94 1019 118 983 b 621 994 325 983 481 988 b 658 1019 642 994 653 1003 b 672 1088 668 1042 672 1065 b 653 1135 672 1115 665 1126 b 543 1149 636 1149 631 1149 b 150 1144 383 1149 254 1149 b 113 1125 129 1143 119 1142 b 94 1047 103 1106 94 1061 z "},"":{"ha":754,"x_min":0,"x_max":0,"o":"m 40 63 b 179 -47 40 22 144 -47 b 610 -39 356 -47 524 -46 b 690 15 644 -37 658 -29 b 721 92 718 54 721 65 b 701 193 721 115 713 163 b 644 217 697 204 682 217 b 400 207 564 217 482 207 b 344 265 364 207 344 218 b 386 324 344 306 356 321 b 615 338 421 326 539 332 b 675 378 643 340 664 346 b 685 421 679 392 685 407 b 621 493 685 457 665 492 b 371 501 571 496 435 496 b 335 557 343 504 335 521 b 374 603 335 586 342 600 l 621 622 b 675 665 651 625 665 639 b 706 776 686 697 706 750 b 696 806 706 788 703 794 b 604 872 654 865 650 872 b 107 842 481 872 257 853 b 71 806 88 840 71 822 b 40 63 61 558 40 156 z m 410 906 b 653 1049 514 906 608 960 b 675 1143 668 1081 675 1113 b 604 1235 675 1169 663 1235 b 524 1140 544 1235 539 1185 b 408 1050 501 1085 464 1050 b 288 1149 350 1050 313 1083 b 211 1238 272 1194 272 1238 b 125 1158 151 1238 125 1207 b 157 1042 125 1113 138 1074 b 410 906 208 950 311 906 z "},"":{"ha":754,"x_min":0,"x_max":0,"o":"m 40 63 b 179 -47 40 22 144 -47 b 610 -39 356 -47 524 -46 b 690 15 644 -37 658 -29 b 721 92 718 54 721 65 b 701 193 721 115 713 163 b 644 217 697 204 682 217 b 400 207 564 217 482 207 b 344 265 364 207 344 218 b 386 324 344 306 356 321 b 615 338 421 326 539 332 b 675 378 643 340 664 346 b 685 421 679 392 685 407 b 621 493 685 457 665 492 b 371 501 571 496 435 496 b 335 557 343 504 335 521 b 374 603 335 586 342 600 l 621 622 b 675 665 651 625 665 639 b 706 776 686 697 706 750 b 696 806 706 788 703 794 b 604 872 654 865 650 872 b 107 842 481 872 257 853 b 71 806 88 840 71 822 b 40 63 61 558 40 156 z m 410 906 b 653 1049 514 906 608 960 b 675 1143 668 1081 675 1113 b 604 1235 675 1169 663 1235 b 524 1140 544 1235 539 1185 b 408 1050 501 1085 464 1050 b 288 1149 350 1050 313 1083 b 211 1238 272 1194 272 1238 b 125 1158 151 1238 125 1207 b 157 1042 125 1113 138 1074 b 410 906 208 950 311 906 z "},"":{"ha":754,"x_min":0,"x_max":0,"o":"m 40 63 b 179 -47 40 22 144 -47 b 610 -39 356 -47 524 -46 b 690 15 644 -37 658 -29 b 721 92 718 54 721 65 b 701 193 721 115 713 163 b 644 217 697 204 682 217 b 400 207 564 217 482 207 b 344 265 364 207 344 218 b 386 324 344 306 356 321 b 615 338 421 326 539 332 b 675 378 643 340 664 346 b 685 421 679 392 685 407 b 621 493 685 457 665 492 b 371 501 571 496 435 496 b 335 557 343 504 335 521 b 374 603 335 586 342 600 l 621 622 b 675 665 651 625 665 639 b 706 776 686 697 706 750 b 696 806 706 788 703 794 b 604 872 654 865 650 872 b 107 842 481 872 257 853 b 71 806 88 840 71 822 b 40 63 61 558 40 156 z m 442 956 b 499 971 468 956 485 961 b 528 1090 513 985 528 1006 b 492 1163 528 1122 513 1149 b 364 1174 476 1172 456 1174 b 275 1076 283 1174 275 1143 b 307 978 275 1038 276 1003 b 442 956 332 961 360 956 z "},"":{"ha":754,"x_min":0,"x_max":0,"o":"m 40 63 b 179 -47 40 22 144 -47 b 610 -39 356 -47 524 -46 b 690 15 644 -37 658 -29 b 721 92 718 54 721 65 b 701 193 721 115 713 163 b 644 217 697 204 682 217 b 400 207 564 217 482 207 b 344 265 364 207 344 218 b 386 324 344 306 356 321 b 615 338 421 326 539 332 b 675 378 643 340 664 346 b 685 421 679 392 685 407 b 621 493 685 457 665 492 b 371 501 571 496 435 496 b 335 557 343 504 335 521 b 374 603 335 586 342 600 l 621 622 b 675 665 651 625 665 639 b 706 776 686 697 706 750 b 696 806 706 788 703 794 b 604 872 654 865 650 872 b 107 842 481 872 257 853 b 71 806 88 840 71 822 b 40 63 61 558 40 156 z m 442 956 b 499 971 468 956 485 961 b 528 1090 513 985 528 1006 b 492 1163 528 1122 513 1149 b 364 1174 476 1172 456 1174 b 275 1076 283 1174 275 1143 b 307 978 275 1038 276 1003 b 442 956 332 961 360 956 z "},"":{"ha":754,"x_min":0,"x_max":0,"o":"m 606 -428 b 699 -422 658 -428 671 -428 b 736 -383 713 -421 719 -412 b 756 -331 754 -354 756 -347 b 736 -262 756 -319 743 -281 b 700 -237 731 -247 715 -237 b 633 -242 679 -237 656 -242 b 488 -153 514 -242 488 -197 b 610 -39 488 -90 556 -39 b 690 15 644 -37 658 -29 b 721 92 718 54 721 65 b 701 193 721 115 713 163 b 644 217 697 204 682 217 b 400 207 564 217 482 207 b 344 265 364 207 344 218 b 386 324 344 306 356 321 b 615 338 421 326 539 332 b 685 421 649 340 685 356 b 621 493 685 457 665 492 b 371 501 571 496 435 496 b 335 557 343 504 335 521 b 374 603 335 585 342 600 l 621 622 b 675 665 651 625 665 639 b 706 776 686 697 706 750 b 696 806 706 788 703 794 b 604 872 654 865 650 872 b 107 842 481 872 257 853 b 71 806 88 840 71 822 b 40 63 61 558 40 156 b 179 -47 40 22 144 -47 l 353 -47 b 374 -61 367 -47 374 -54 b 363 -81 374 -68 369 -75 b 299 -224 324 -114 299 -161 b 328 -321 299 -256 306 -286 b 606 -428 393 -422 501 -428 z "},"":{"ha":754,"x_min":0,"x_max":0,"o":"m 606 -428 b 699 -422 658 -428 671 -428 b 736 -383 713 -421 719 -412 b 756 -331 754 -354 756 -347 b 736 -262 756 -319 743 -281 b 700 -237 731 -247 715 -237 b 633 -242 679 -237 656 -242 b 488 -153 514 -242 488 -197 b 610 -39 488 -90 556 -39 b 690 15 644 -37 658 -29 b 721 92 718 54 721 65 b 701 193 721 115 713 163 b 644 217 697 204 682 217 b 400 207 564 217 482 207 b 344 265 364 207 344 218 b 386 324 344 306 356 321 b 615 338 421 326 539 332 b 685 421 649 340 685 356 b 621 493 685 457 665 492 b 371 501 571 496 435 496 b 335 557 343 504 335 521 b 374 603 335 585 342 600 l 621 622 b 675 665 651 625 665 639 b 706 776 686 697 706 750 b 696 806 706 788 703 794 b 604 872 654 865 650 872 b 107 842 481 872 257 853 b 71 806 88 840 71 822 b 40 63 61 558 40 156 b 179 -47 40 22 144 -47 l 353 -47 b 374 -61 367 -47 374 -54 b 363 -81 374 -68 369 -75 b 299 -224 324 -114 299 -161 b 328 -321 299 -256 306 -286 b 606 -428 393 -422 501 -428 z "},"":{"ha":754,"x_min":0,"x_max":0,"o":"m 40 63 b 179 -47 40 22 144 -47 b 610 -39 356 -47 524 -46 b 690 15 644 -37 658 -29 b 721 92 718 54 721 65 b 701 193 721 115 713 163 b 644 217 697 204 682 217 b 400 207 564 217 482 207 b 344 265 364 207 344 218 b 386 324 344 306 356 321 b 615 338 421 326 539 332 b 675 378 643 340 664 346 b 685 421 679 392 685 407 b 621 493 685 457 665 492 b 371 501 571 496 435 496 b 335 557 343 504 335 521 b 374 603 335 586 342 600 l 621 622 b 675 665 651 625 665 639 b 706 776 686 697 706 750 b 696 806 706 788 703 794 b 604 872 654 865 650 872 b 107 842 481 872 257 853 b 71 806 88 840 71 822 b 40 63 61 558 40 156 z m 660 1160 b 625 1226 660 1188 638 1219 b 564 1239 611 1235 581 1239 b 436 1119 525 1239 474 1156 b 399 1106 425 1110 413 1106 b 268 1222 360 1106 314 1178 b 232 1235 260 1231 249 1235 b 189 1224 222 1235 207 1231 b 142 1126 146 1207 142 1199 b 157 1096 142 1115 147 1106 b 344 924 211 1042 283 976 b 389 911 354 915 374 911 b 467 935 413 911 447 917 b 651 1138 524 994 596 1071 b 660 1160 657 1143 660 1151 z "},"":{"ha":754,"x_min":0,"x_max":0,"o":"m 40 63 b 179 -47 40 22 144 -47 b 610 -39 356 -47 524 -46 b 690 15 644 -37 658 -29 b 721 92 718 54 721 65 b 701 193 721 115 713 163 b 644 217 697 204 682 217 b 400 207 564 217 482 207 b 344 265 364 207 344 218 b 386 324 344 306 356 321 b 615 338 421 326 539 332 b 675 378 643 340 664 346 b 685 421 679 392 685 407 b 621 493 685 457 665 492 b 371 501 571 496 435 496 b 335 557 343 504 335 521 b 374 603 335 586 342 600 l 621 622 b 675 665 651 625 665 639 b 706 776 686 697 706 750 b 696 806 706 788 703 794 b 604 872 654 865 650 872 b 107 842 481 872 257 853 b 71 806 88 840 71 822 b 40 63 61 558 40 156 z m 660 1160 b 625 1226 660 1188 638 1219 b 564 1239 611 1235 581 1239 b 436 1119 525 1239 474 1156 b 399 1106 425 1110 413 1106 b 268 1222 360 1106 314 1178 b 232 1235 260 1231 249 1235 b 189 1224 222 1235 207 1231 b 142 1126 146 1207 142 1199 b 157 1096 142 1115 147 1106 b 344 924 211 1042 283 976 b 389 911 354 915 374 911 b 467 935 413 911 447 917 b 651 1138 524 994 596 1071 b 660 1160 657 1143 660 1151 z "},"":{"ha":871,"x_min":0,"x_max":0,"o":"m 458 -39 b 729 3 558 -39 643 -21 b 786 47 765 11 783 29 b 818 450 803 183 818 406 b 782 506 818 476 815 501 b 572 521 747 508 607 521 b 486 464 517 521 499 499 b 474 413 478 442 474 425 b 565 308 474 356 565 368 b 463 215 565 233 531 215 b 293 406 356 215 293 290 b 531 625 293 564 388 625 b 606 624 553 625 578 624 b 707 664 665 624 686 626 l 739 721 b 749 751 744 732 749 743 b 732 792 749 764 743 779 l 678 851 b 539 881 654 876 629 881 b 25 442 269 881 25 729 b 88 151 25 338 32 229 b 458 -39 160 35 289 -39 z m 479 906 b 722 1049 583 906 678 960 b 744 1143 738 1081 744 1113 b 674 1235 744 1169 732 1235 b 593 1140 614 1235 608 1185 b 478 1050 571 1085 533 1050 b 357 1149 419 1050 382 1083 b 281 1238 342 1194 342 1238 b 194 1158 221 1238 194 1207 b 226 1042 194 1113 207 1074 b 479 906 278 950 381 906 z "},"":{"ha":871,"x_min":0,"x_max":0,"o":"m 458 -39 b 729 3 558 -39 643 -21 b 786 47 765 11 783 29 b 818 450 803 183 818 406 b 782 506 818 476 815 501 b 572 521 747 508 607 521 b 486 464 517 521 499 499 b 474 413 478 442 474 425 b 565 308 474 356 565 368 b 463 215 565 233 531 215 b 293 406 356 215 293 290 b 531 625 293 564 388 625 b 606 624 553 625 578 624 b 707 664 665 624 686 626 l 739 721 b 749 751 744 732 749 743 b 732 792 749 764 743 779 l 678 851 b 539 881 654 876 629 881 b 25 442 269 881 25 729 b 88 151 25 338 32 229 b 458 -39 160 35 289 -39 z m 479 906 b 722 1049 583 906 678 960 b 744 1143 738 1081 744 1113 b 674 1235 744 1169 732 1235 b 593 1140 614 1235 608 1185 b 478 1050 571 1085 533 1050 b 357 1149 419 1050 382 1083 b 281 1238 342 1194 342 1238 b 194 1158 221 1238 194 1207 b 226 1042 194 1113 207 1074 b 479 906 278 950 381 906 z "},"":{"ha":871,"x_min":0,"x_max":0,"o":"m 458 -39 b 729 3 558 -39 643 -21 b 786 47 765 11 783 29 b 818 450 803 183 818 406 b 782 506 818 476 815 501 b 572 521 747 508 607 521 b 486 464 517 521 499 499 b 474 413 478 442 474 425 b 565 308 474 356 565 368 b 463 215 565 233 531 215 b 293 406 356 215 293 290 b 531 625 293 564 388 625 b 606 624 553 625 578 624 b 707 664 665 624 686 626 l 739 721 b 749 751 744 732 749 743 b 732 792 749 764 743 779 l 678 851 b 539 881 654 876 629 881 b 25 442 269 881 25 729 b 88 151 25 338 32 229 b 458 -39 160 35 289 -39 z m 497 956 b 554 971 524 956 540 961 b 583 1090 568 985 583 1006 b 547 1163 583 1122 568 1149 b 419 1174 532 1172 511 1174 b 331 1076 339 1174 331 1143 b 363 978 331 1038 332 1003 b 497 956 388 961 415 956 z "},"":{"ha":871,"x_min":0,"x_max":0,"o":"m 458 -39 b 729 3 558 -39 643 -21 b 786 47 765 11 783 29 b 818 450 803 183 818 406 b 782 506 818 476 815 501 b 572 521 747 508 607 521 b 486 464 517 521 499 499 b 474 413 478 442 474 425 b 565 308 474 356 565 368 b 463 215 565 233 531 215 b 293 406 356 215 293 290 b 531 625 293 564 388 625 b 606 624 553 625 578 624 b 707 664 665 624 686 626 l 739 721 b 749 751 744 732 749 743 b 732 792 749 764 743 779 l 678 851 b 539 881 654 876 629 881 b 25 442 269 881 25 729 b 88 151 25 338 32 229 b 458 -39 160 35 289 -39 z m 497 956 b 554 971 524 956 540 961 b 583 1090 568 985 583 1006 b 547 1163 583 1122 568 1149 b 419 1174 532 1172 511 1174 b 331 1076 339 1174 331 1143 b 363 978 331 1038 332 1003 b 497 956 388 961 415 956 z "},"":{"ha":871,"x_min":0,"x_max":0,"o":"m 458 -39 b 729 3 558 -39 643 -21 b 786 47 765 11 783 29 b 818 450 803 183 818 406 b 782 506 818 476 815 501 b 572 521 747 508 607 521 b 486 464 517 521 499 499 b 474 413 478 442 474 425 b 565 308 474 356 565 368 b 463 215 565 233 531 215 b 293 406 356 215 293 290 b 531 625 293 564 388 625 b 606 624 553 625 578 624 b 707 664 665 624 686 626 l 739 721 b 749 751 744 732 749 743 b 732 792 749 764 743 779 l 678 851 b 539 881 654 876 629 881 b 25 442 269 881 25 729 b 88 151 25 338 32 229 b 458 -39 160 35 289 -39 z m 307 -368 b 369 -428 307 -396 326 -428 b 428 -412 383 -428 411 -426 b 599 -167 499 -357 599 -226 b 579 -101 599 -153 597 -140 b 396 -64 563 -69 504 -64 b 326 -97 361 -64 354 -68 b 294 -154 300 -126 294 -133 b 326 -247 294 -175 326 -225 b 307 -368 326 -287 307 -328 z "},"":{"ha":871,"x_min":0,"x_max":0,"o":"m 458 -39 b 729 3 558 -39 643 -21 b 786 47 765 11 783 29 b 818 450 803 183 818 406 b 782 506 818 476 815 501 b 572 521 747 508 607 521 b 486 464 517 521 499 499 b 474 413 478 442 474 425 b 565 308 474 356 565 368 b 463 215 565 233 531 215 b 293 406 356 215 293 290 b 531 625 293 564 388 625 b 606 624 553 625 578 624 b 707 664 665 624 686 626 l 739 721 b 749 751 744 732 749 743 b 732 792 749 764 743 779 l 678 851 b 539 881 654 876 629 881 b 25 442 269 881 25 729 b 88 151 25 338 32 229 b 458 -39 160 35 289 -39 z m 307 -368 b 369 -428 307 -396 326 -428 b 428 -412 383 -428 411 -426 b 599 -167 499 -357 599 -226 b 579 -101 599 -153 597 -140 b 396 -64 563 -69 504 -64 b 326 -97 361 -64 354 -68 b 294 -154 300 -126 294 -133 b 326 -247 294 -175 326 -225 b 307 -368 326 -287 307 -328 z "},"":{"ha":868,"x_min":0,"x_max":0,"o":"m 0 649 b 53 544 0 603 53 588 b 67 96 56 371 61 154 b 165 10 71 54 118 31 b 197 3 176 4 186 3 b 258 18 219 3 240 11 b 324 78 306 38 322 49 b 328 303 326 156 328 271 b 363 336 328 319 342 336 b 514 319 471 336 500 331 b 531 285 524 313 529 301 l 544 31 b 643 -19 547 -11 610 -19 b 788 60 671 -19 782 -6 b 814 536 793 126 803 356 b 844 607 815 579 821 590 b 868 689 865 621 868 664 b 822 765 868 744 822 739 b 783 829 822 794 814 817 b 694 853 751 842 725 853 b 629 844 681 853 658 850 b 547 788 558 829 547 819 b 521 750 547 769 546 750 l 358 750 b 328 778 338 750 328 758 l 328 817 b 232 871 328 865 267 871 b 117 839 200 871 188 869 b 49 768 56 813 49 797 b 18 726 49 738 26 743 b 0 649 8 707 0 663 z m 438 522 b 328 557 375 522 328 526 b 360 586 328 578 342 586 l 517 586 b 547 558 539 586 547 575 b 488 522 547 532 515 522 z "},"":{"ha":868,"x_min":0,"x_max":0,"o":"m 0 649 b 53 544 0 603 53 588 b 67 96 56 371 61 154 b 165 10 71 54 118 31 b 197 3 176 4 186 3 b 258 18 219 3 240 11 b 324 78 306 38 322 49 b 328 303 326 156 328 271 b 363 336 328 319 342 336 b 514 319 471 336 500 331 b 531 285 524 313 529 301 l 544 31 b 643 -19 547 -11 610 -19 b 788 60 671 -19 782 -6 b 814 536 793 126 803 356 b 844 607 815 579 821 590 b 868 689 865 621 868 664 b 822 765 868 744 822 739 b 783 829 822 794 814 817 b 694 853 751 842 725 853 b 629 844 681 853 658 850 b 547 788 558 829 547 819 b 521 750 547 769 546 750 l 358 750 b 328 778 338 750 328 758 l 328 817 b 232 871 328 865 267 871 b 117 839 200 871 188 869 b 49 768 56 813 49 797 b 18 726 49 738 26 743 b 0 649 8 707 0 663 z m 438 522 b 328 557 375 522 328 526 b 360 586 328 578 342 586 l 517 586 b 547 558 539 586 547 575 b 488 522 547 532 515 522 z "},"":{"ha":479,"x_min":0,"x_max":0,"o":"m 94 117 b 171 18 94 72 104 64 b 265 -29 239 -26 250 -29 b 331 1 279 -29 290 -26 b 399 79 396 47 399 53 b 382 743 399 350 389 600 b 335 832 379 786 368 801 b 264 869 300 863 293 869 b 193 854 253 869 233 865 b 110 783 129 838 111 824 b 94 117 104 706 94 264 z m -46 1047 b 10 983 -46 1019 -22 983 b 481 994 185 983 340 988 b 518 1019 501 994 513 1003 b 532 1088 528 1042 532 1065 b 513 1135 532 1115 525 1126 b 403 1149 496 1149 490 1149 b 10 1144 243 1149 114 1149 b -28 1125 -11 1143 -21 1142 b -46 1047 -37 1106 -46 1061 z "},"":{"ha":479,"x_min":0,"x_max":0,"o":"m 94 117 b 171 18 94 72 104 64 b 265 -29 239 -26 250 -29 b 331 1 279 -29 290 -26 b 399 79 396 47 399 53 b 382 743 399 350 389 600 b 335 832 379 786 368 801 b 264 869 300 863 293 869 b 193 854 253 869 233 865 b 110 783 129 838 111 824 b 94 117 104 706 94 264 z m -46 1047 b 10 983 -46 1019 -22 983 b 481 994 185 983 340 988 b 518 1019 501 994 513 1003 b 532 1088 528 1042 532 1065 b 513 1135 532 1115 525 1126 b 403 1149 496 1149 490 1149 b 10 1144 243 1149 114 1149 b -28 1125 -11 1143 -21 1142 b -46 1047 -37 1106 -46 1061 z "},"":{"ha":426,"x_min":0,"x_max":0,"o":"m 65 117 b 142 18 65 72 75 64 b 236 -29 210 -26 221 -29 b 301 1 250 -29 261 -26 b 369 79 367 47 369 53 b 353 743 369 350 360 600 b 306 832 350 786 339 801 b 235 869 271 863 264 869 b 164 854 224 869 204 865 b 81 783 100 838 82 824 b 65 117 75 706 65 264 z m 224 906 b 467 1049 328 906 422 960 b 489 1143 482 1081 489 1113 b 418 1235 489 1169 476 1235 b 338 1140 358 1235 353 1185 b 222 1050 315 1085 278 1050 b 101 1149 164 1050 126 1083 b 25 1238 86 1194 86 1238 b -61 1158 -35 1238 -61 1207 b -29 1042 -61 1113 -49 1074 b 224 906 22 950 125 906 z "},"":{"ha":426,"x_min":0,"x_max":0,"o":"m 65 117 b 142 18 65 72 75 64 b 236 -29 210 -26 221 -29 b 301 1 250 -29 261 -26 b 369 79 367 47 369 53 b 353 743 369 350 360 600 b 306 832 350 786 339 801 b 235 869 271 863 264 869 b 164 854 224 869 204 865 b 81 783 100 838 82 824 b 65 117 75 706 65 264 z m 224 906 b 467 1049 328 906 422 960 b 489 1143 482 1081 489 1113 b 418 1235 489 1169 476 1235 b 338 1140 358 1235 353 1185 b 222 1050 315 1085 278 1050 b 101 1149 164 1050 126 1083 b 25 1238 86 1194 86 1238 b -61 1158 -35 1238 -61 1207 b -29 1042 -61 1113 -49 1074 b 224 906 22 950 125 906 z "},"":{"ha":426,"x_min":0,"x_max":0,"o":"m 257 -428 b 350 -422 311 -428 322 -428 b 389 -383 364 -421 371 -412 b 407 -331 406 -354 407 -347 b 389 -262 407 -319 396 -281 b 353 -237 383 -247 368 -237 b 285 -242 331 -237 307 -242 b 140 -153 165 -242 140 -197 b 214 -46 140 -112 160 -75 b 369 79 340 25 369 42 b 353 743 369 350 360 600 b 306 832 350 786 339 801 b 235 869 271 863 264 869 b 164 854 224 869 204 865 b 81 783 100 838 82 824 b 65 117 75 706 65 264 b 128 28 65 72 75 64 b 144 4 140 19 144 11 b 121 -15 144 -4 133 -11 b -50 -224 25 -50 -50 -117 b -19 -321 -50 -256 -43 -286 b 257 -428 46 -422 154 -428 z "},"":{"ha":426,"x_min":0,"x_max":0,"o":"m 257 -428 b 350 -422 311 -428 322 -428 b 389 -383 364 -421 371 -412 b 407 -331 406 -354 407 -347 b 389 -262 407 -319 396 -281 b 353 -237 383 -247 368 -237 b 285 -242 331 -237 307 -242 b 140 -153 165 -242 140 -197 b 214 -46 140 -112 160 -75 b 369 79 340 25 369 42 b 353 743 369 350 360 600 b 306 832 350 786 339 801 b 235 869 271 863 264 869 b 164 854 224 869 204 865 b 81 783 100 838 82 824 b 65 117 75 706 65 264 b 128 28 65 72 75 64 b 144 4 140 19 144 11 b 121 -15 144 -4 133 -11 b -50 -224 25 -50 -50 -117 b -19 -321 -50 -256 -43 -286 b 257 -428 46 -422 154 -428 z "},"":{"ha":426,"x_min":0,"x_max":0,"o":"m 65 117 b 142 18 65 72 75 64 b 236 -29 210 -26 221 -29 b 301 1 250 -29 261 -26 b 369 79 367 47 369 53 b 353 743 369 350 360 600 b 306 832 350 786 339 801 b 235 869 271 863 264 869 b 164 854 224 869 204 865 b 81 783 100 838 82 824 b 65 117 75 706 65 264 z m 254 956 b 311 971 281 956 297 961 b 340 1090 325 985 340 1006 b 304 1163 340 1122 325 1149 b 176 1174 289 1172 268 1174 b 88 1076 96 1174 88 1143 b 119 978 88 1038 89 1003 b 254 956 144 961 172 956 z "},"":{"ha":426,"x_min":0,"x_max":0,"o":"m 65 117 b 142 18 65 72 75 64 b 236 -29 210 -26 221 -29 b 301 1 250 -29 261 -26 b 369 79 367 47 369 53 b 353 743 369 350 360 600 b 306 832 350 786 339 801 b 235 869 271 863 264 869 b 164 854 224 869 204 865 b 81 783 100 838 82 824 b 65 117 75 706 65 264 z "},"":{"ha":921,"x_min":0,"x_max":0,"o":"m 65 117 b 142 18 65 72 75 64 b 236 -29 210 -26 221 -29 b 301 1 250 -29 261 -26 b 369 79 367 47 369 53 b 353 743 369 350 360 600 b 306 832 350 786 339 801 b 235 869 271 863 264 869 b 164 854 224 869 204 865 b 81 783 100 838 82 824 b 65 117 75 706 65 264 z m 324 -260 b 336 -315 324 -282 329 -299 b 401 -364 350 -342 368 -364 b 638 -344 435 -364 560 -353 b 769 -264 692 -339 736 -312 b 831 -115 824 -187 831 -161 b 844 801 831 78 844 760 b 771 883 844 849 838 857 b 703 901 735 899 718 901 b 606 874 674 901 660 897 b 524 794 536 844 524 838 b 535 -36 524 478 535 221 b 467 -111 535 -71 510 -96 b 378 -142 438 -124 408 -129 b 336 -183 358 -149 343 -164 b 324 -260 326 -218 324 -233 z "},"":{"ha":921,"x_min":0,"x_max":0,"o":"m 65 117 b 142 18 65 72 75 64 b 236 -29 210 -26 221 -29 b 301 1 250 -29 261 -26 b 369 79 367 47 369 53 b 353 743 369 350 360 600 b 306 832 350 786 339 801 b 235 869 271 863 264 869 b 164 854 224 869 204 865 b 81 783 100 838 82 824 b 65 117 75 706 65 264 z m 324 -260 b 336 -315 324 -282 329 -299 b 401 -364 350 -342 368 -364 b 638 -344 435 -364 560 -353 b 769 -264 692 -339 736 -312 b 831 -115 824 -187 831 -161 b 844 801 831 78 844 760 b 771 883 844 849 838 857 b 703 901 735 899 718 901 b 606 874 674 901 660 897 b 524 794 536 844 524 838 b 535 -36 524 478 535 221 b 467 -111 535 -71 510 -96 b 378 -142 438 -124 408 -129 b 336 -183 358 -149 343 -164 b 324 -260 326 -218 324 -233 z "},"":{"ha":847,"x_min":0,"x_max":0,"o":"m 379 311 b 415 283 399 311 410 301 b 497 4 444 193 471 90 b 536 -37 501 -11 517 -32 b 611 -51 561 -44 586 -47 b 694 -58 643 -57 671 -58 b 767 -32 714 -58 733 -53 b 828 32 811 -4 828 10 b 818 72 828 40 826 50 b 678 415 778 183 719 311 b 668 456 668 440 668 449 b 678 490 668 468 669 474 b 824 751 722 576 772 658 b 836 789 833 768 836 775 b 768 875 836 825 792 871 b 626 893 676 890 635 892 b 572 872 590 893 578 881 b 421 599 519 779 471 690 b 385 574 411 582 399 574 b 357 618 363 574 357 600 b 367 779 357 672 367 726 b 249 869 367 836 299 869 b 172 863 238 869 217 868 b 88 813 107 854 90 843 b 31 114 72 657 31 269 b 76 17 31 65 63 32 b 154 -35 97 -7 133 -35 b 253 -3 179 -35 226 -15 b 351 75 335 33 351 46 b 347 283 351 101 347 240 b 379 311 347 301 365 311 z m 250 -368 b 313 -428 250 -396 269 -428 b 371 -412 326 -428 354 -426 b 542 -167 442 -357 542 -226 b 522 -101 542 -153 540 -140 b 339 -64 506 -69 447 -64 b 269 -97 304 -64 297 -68 b 238 -154 243 -126 238 -133 b 269 -247 238 -175 269 -225 b 250 -368 269 -287 250 -328 z "},"":{"ha":847,"x_min":0,"x_max":0,"o":"m 379 311 b 415 283 399 311 410 301 b 497 4 444 193 471 90 b 536 -37 501 -11 517 -32 b 611 -51 561 -44 586 -47 b 694 -58 643 -57 671 -58 b 767 -32 714 -58 733 -53 b 828 32 811 -4 828 10 b 818 72 828 40 826 50 b 678 415 778 183 719 311 b 668 456 668 440 668 449 b 678 490 668 468 669 474 b 824 751 722 576 772 658 b 836 789 833 768 836 775 b 768 875 836 825 792 871 b 626 893 676 890 635 892 b 572 872 590 893 578 881 b 421 599 519 779 471 690 b 385 574 411 582 399 574 b 357 618 363 574 357 600 b 367 779 357 672 367 726 b 249 869 367 836 299 869 b 172 863 238 869 217 868 b 88 813 107 854 90 843 b 31 114 72 657 31 269 b 76 17 31 65 63 32 b 154 -35 97 -7 133 -35 b 253 -3 179 -35 226 -15 b 351 75 335 33 351 46 b 347 283 351 101 347 240 b 379 311 347 301 365 311 z m 250 -368 b 313 -428 250 -396 269 -428 b 371 -412 326 -428 354 -426 b 542 -167 442 -357 542 -226 b 522 -101 542 -153 540 -140 b 339 -64 506 -69 447 -64 b 269 -97 304 -64 297 -68 b 238 -154 243 -126 238 -133 b 269 -247 238 -175 269 -225 b 250 -368 269 -287 250 -328 z "},"":{"ha":744,"x_min":0,"x_max":0,"o":"m 43 126 b 140 6 43 57 75 11 b 617 -14 263 -4 457 -14 b 672 22 650 -14 667 8 b 714 144 701 97 714 133 b 701 190 714 154 713 164 b 632 256 683 240 665 256 b 340 253 574 256 368 253 b 303 307 311 253 303 281 b 326 786 303 356 326 703 b 290 844 326 822 304 840 b 183 875 257 857 210 875 b 100 847 154 875 126 860 b 68 801 82 839 68 821 b 43 126 64 742 43 243 z m 188 1018 b 265 926 188 972 224 926 b 304 939 281 926 293 931 b 506 1072 374 988 443 1033 b 532 1126 528 1086 532 1107 b 421 1228 532 1210 485 1228 b 367 1210 403 1228 389 1226 b 200 1065 318 1172 261 1128 b 188 1018 189 1056 188 1044 z "},"":{"ha":744,"x_min":0,"x_max":0,"o":"m 43 126 b 140 6 43 57 75 11 b 617 -14 263 -4 457 -14 b 672 22 650 -14 667 8 b 714 144 701 97 714 133 b 701 190 714 154 713 164 b 632 256 683 240 665 256 b 340 253 574 256 368 253 b 303 307 311 253 303 281 b 326 786 303 356 326 703 b 290 844 326 822 304 840 b 183 875 257 857 210 875 b 100 847 154 875 126 860 b 68 801 82 839 68 821 b 43 126 64 742 43 243 z m 188 1018 b 265 926 188 972 224 926 b 304 939 281 926 293 931 b 506 1072 374 988 443 1033 b 532 1126 528 1086 532 1107 b 421 1228 532 1210 485 1228 b 367 1210 403 1228 389 1226 b 200 1065 318 1172 261 1128 b 188 1018 189 1056 188 1044 z "},"":{"ha":744,"x_min":0,"x_max":0,"o":"m 43 126 b 140 6 43 57 75 11 b 617 -14 263 -4 457 -14 b 672 22 650 -14 667 8 b 714 144 701 97 714 133 b 701 190 714 154 713 164 b 632 256 683 240 665 256 b 340 253 574 256 368 253 b 303 307 311 253 303 281 b 326 786 303 356 326 703 b 290 844 326 822 304 840 b 183 875 257 857 210 875 b 100 847 154 875 126 860 b 68 801 82 839 68 821 b 43 126 64 742 43 243 z m 210 -368 b 272 -428 210 -396 229 -428 b 331 -412 286 -428 314 -426 b 501 -167 401 -357 501 -226 b 482 -101 501 -153 500 -140 b 299 -64 465 -69 407 -64 b 229 -97 264 -64 257 -68 b 197 -154 203 -126 197 -133 b 229 -247 197 -175 229 -225 b 210 -368 229 -287 210 -328 z "},"":{"ha":744,"x_min":0,"x_max":0,"o":"m 43 126 b 140 6 43 57 75 11 b 617 -14 263 -4 457 -14 b 672 22 650 -14 667 8 b 714 144 701 97 714 133 b 701 190 714 154 713 164 b 632 256 683 240 665 256 b 340 253 574 256 368 253 b 303 307 311 253 303 281 b 326 786 303 356 326 703 b 290 844 326 822 304 840 b 183 875 257 857 210 875 b 100 847 154 875 126 860 b 68 801 82 839 68 821 b 43 126 64 742 43 243 z m 210 -368 b 272 -428 210 -396 229 -428 b 331 -412 286 -428 314 -426 b 501 -167 401 -357 501 -226 b 482 -101 501 -153 500 -140 b 299 -64 465 -69 407 -64 b 229 -97 264 -64 257 -68 b 197 -154 203 -126 197 -133 b 229 -247 197 -175 229 -225 b 210 -368 229 -287 210 -328 z "},"":{"ha":744,"x_min":0,"x_max":0,"o":"m 43 126 b 140 6 43 57 75 11 b 617 -14 263 -4 457 -14 b 672 22 650 -14 667 8 b 714 144 701 97 714 133 b 701 190 714 154 713 164 b 632 256 683 240 665 256 b 340 253 574 256 368 253 b 303 307 311 253 303 281 b 326 786 303 356 326 703 b 290 844 326 822 304 840 b 183 875 257 857 210 875 b 100 847 154 875 126 860 b 68 801 82 839 68 821 b 43 126 64 742 43 243 z m 368 1031 b 371 988 368 1018 369 1007 l 389 768 b 481 694 393 731 444 694 b 543 713 501 694 511 697 b 606 768 586 733 604 743 l 621 985 b 624 1046 622 1003 624 1029 b 563 1106 624 1074 610 1106 l 439 1106 b 368 1031 389 1106 368 1072 z "},"":{"ha":744,"x_min":0,"x_max":0,"o":"m 43 126 b 140 6 43 57 75 11 b 617 -14 263 -4 457 -14 b 672 22 650 -14 667 8 b 714 144 701 97 714 133 b 701 190 714 154 713 164 b 632 256 683 240 665 256 b 340 253 574 256 368 253 b 303 307 311 253 303 281 b 326 786 303 356 326 703 b 290 844 326 822 304 840 b 183 875 257 857 210 875 b 100 847 154 875 126 860 b 68 801 82 839 68 821 b 43 126 64 742 43 243 z m 368 1031 b 371 988 368 1018 369 1007 l 389 768 b 481 694 393 731 444 694 b 543 713 501 694 511 697 b 606 768 586 733 604 743 l 621 985 b 624 1046 622 1003 624 1029 b 563 1106 624 1074 610 1106 l 439 1106 b 368 1031 389 1106 368 1072 z "},"":{"ha":744,"x_min":0,"x_max":0,"o":"m 43 126 b 140 6 43 57 75 11 b 617 -14 263 -4 457 -14 b 672 22 650 -14 667 8 b 714 144 701 97 714 133 b 701 190 714 154 713 164 b 632 256 683 240 665 256 b 340 253 574 256 368 253 b 303 307 311 253 303 281 b 326 786 303 356 326 703 b 290 844 326 822 304 840 b 183 875 257 857 210 875 b 100 847 154 875 126 860 b 68 801 82 839 68 821 b 43 126 64 742 43 243 z m 532 346 b 589 361 558 346 575 351 b 618 481 603 375 618 396 b 582 553 618 513 603 539 b 454 564 567 563 546 564 b 365 467 374 564 365 533 b 397 368 365 428 367 393 b 532 346 422 351 450 346 z "},"":{"ha":744,"x_min":0,"x_max":0,"o":"m 43 126 b 140 6 43 57 75 11 b 617 -14 263 -4 457 -14 b 672 22 650 -14 667 8 b 714 144 701 97 714 133 b 701 190 714 154 713 164 b 632 256 683 240 665 256 b 340 253 574 256 368 253 b 303 307 311 253 303 281 b 326 786 303 356 326 703 b 290 844 326 822 304 840 b 183 875 257 857 210 875 b 100 847 154 875 126 860 b 68 801 82 839 68 821 b 43 126 64 742 43 243 z m 532 346 b 589 361 558 346 575 351 b 618 481 603 375 618 396 b 582 553 618 513 603 539 b 454 564 567 563 546 564 b 365 467 374 564 365 533 b 397 368 365 428 367 393 b 532 346 422 351 450 346 z "},"":{"ha":772,"x_min":0,"x_max":0,"o":"m -6 456 b 53 410 -4 449 18 410 b 78 378 76 410 78 399 b 71 126 75 269 71 169 b 168 6 71 57 104 11 b 644 -14 290 -4 485 -14 b 700 22 679 -14 694 8 b 742 144 729 97 742 133 b 729 190 742 154 740 164 b 660 256 711 240 693 256 b 368 253 601 256 396 253 b 331 307 339 253 331 281 b 339 471 331 326 333 393 b 375 539 340 497 349 528 b 478 611 469 578 478 579 b 404 733 478 656 456 733 b 372 728 393 733 381 728 b 354 786 356 728 354 751 b 318 844 354 822 332 840 b 211 875 285 857 238 875 b 96 801 163 875 97 843 l 89 644 b 54 594 88 621 75 604 l -1 571 b -19 535 -12 565 -19 550 b -6 456 -19 506 -11 469 z "},"":{"ha":772,"x_min":0,"x_max":0,"o":"m -6 456 b 53 410 -4 449 18 410 b 78 378 76 410 78 399 b 71 126 75 269 71 169 b 168 6 71 57 104 11 b 644 -14 290 -4 485 -14 b 700 22 679 -14 694 8 b 742 144 729 97 742 133 b 729 190 742 154 740 164 b 660 256 711 240 693 256 b 368 253 601 256 396 253 b 331 307 339 253 331 281 b 339 471 331 326 333 393 b 375 539 340 497 349 528 b 478 611 469 578 478 579 b 404 733 478 656 456 733 b 372 728 393 733 381 728 b 354 786 356 728 354 751 b 318 844 354 822 332 840 b 211 875 285 857 238 875 b 96 801 163 875 97 843 l 89 644 b 54 594 88 621 75 604 l -1 571 b -19 535 -12 565 -19 550 b -6 456 -19 506 -11 469 z "},"":{"ha":844,"x_min":0,"x_max":0,"o":"m 322 281 b 353 263 335 281 346 274 b 543 -31 417 164 478 60 b 664 -76 564 -60 638 -76 b 733 -60 686 -76 711 -68 b 783 -11 758 -49 783 -39 b 779 747 783 132 782 704 b 744 806 779 765 772 779 b 692 833 724 826 714 833 b 631 815 679 833 665 829 b 561 760 574 793 563 783 b 556 497 557 681 556 556 b 528 472 556 482 542 472 b 514 476 521 472 519 472 b 492 497 507 481 493 496 l 288 794 b 226 838 263 829 244 838 b 158 818 211 838 193 832 b 69 743 86 790 71 774 b 49 96 51 214 49 118 b 86 39 49 76 65 54 b 147 15 115 19 125 15 b 211 25 167 15 178 18 b 292 90 272 40 292 50 b 290 242 292 133 290 189 b 322 281 290 265 303 281 z m 308 1018 b 386 926 308 972 344 926 b 425 939 401 926 414 931 b 626 1072 494 988 564 1033 b 653 1126 649 1086 653 1107 b 542 1228 653 1210 606 1228 b 488 1210 524 1228 510 1226 b 321 1065 439 1172 382 1128 b 308 1018 310 1056 308 1044 z "},"":{"ha":844,"x_min":0,"x_max":0,"o":"m 322 281 b 353 263 335 281 346 274 b 543 -31 417 164 478 60 b 664 -76 564 -60 638 -76 b 733 -60 686 -76 711 -68 b 783 -11 758 -49 783 -39 b 779 747 783 132 782 704 b 744 806 779 765 772 779 b 692 833 724 826 714 833 b 631 815 679 833 665 829 b 561 760 574 793 563 783 b 556 497 557 681 556 556 b 528 472 556 482 542 472 b 514 476 521 472 519 472 b 492 497 507 481 493 496 l 288 794 b 226 838 263 829 244 838 b 158 818 211 838 193 832 b 69 743 86 790 71 774 b 49 96 51 214 49 118 b 86 39 49 76 65 54 b 147 15 115 19 125 15 b 211 25 167 15 178 18 b 292 90 272 40 292 50 b 290 242 292 133 290 189 b 322 281 290 265 303 281 z m 308 1018 b 386 926 308 972 344 926 b 425 939 401 926 414 931 b 626 1072 494 988 564 1033 b 653 1126 649 1086 653 1107 b 542 1228 653 1210 606 1228 b 488 1210 524 1228 510 1226 b 321 1065 439 1172 382 1128 b 308 1018 310 1056 308 1044 z "},"":{"ha":844,"x_min":0,"x_max":0,"o":"m 322 281 b 353 263 335 281 346 274 b 543 -31 417 164 478 60 b 664 -76 564 -60 638 -76 b 733 -60 686 -76 711 -68 b 783 -11 758 -49 783 -39 b 779 747 783 132 782 704 b 744 806 779 765 772 779 b 692 833 724 826 714 833 b 631 815 679 833 665 829 b 561 760 574 793 563 783 b 556 497 557 681 556 556 b 528 472 556 482 542 472 b 514 476 521 472 519 472 b 492 497 507 481 493 496 l 288 794 b 226 838 263 829 244 838 b 158 818 211 838 193 832 b 69 743 86 790 71 774 b 49 96 51 214 49 118 b 86 39 49 76 65 54 b 147 15 115 19 125 15 b 211 25 167 15 178 18 b 292 90 272 40 292 50 b 290 242 292 133 290 189 b 322 281 290 265 303 281 z m 246 -368 b 308 -428 246 -396 265 -428 b 367 -412 322 -428 350 -426 b 538 -167 438 -357 538 -226 b 518 -101 538 -153 536 -140 b 335 -64 501 -69 443 -64 b 265 -97 300 -64 293 -68 b 233 -154 239 -126 233 -133 b 265 -247 233 -175 265 -225 b 246 -368 265 -287 246 -328 z "},"":{"ha":844,"x_min":0,"x_max":0,"o":"m 322 281 b 353 263 335 281 346 274 b 543 -31 417 164 478 60 b 664 -76 564 -60 638 -76 b 733 -60 686 -76 711 -68 b 783 -11 758 -49 783 -39 b 779 747 783 132 782 704 b 744 806 779 765 772 779 b 692 833 724 826 714 833 b 631 815 679 833 665 829 b 561 760 574 793 563 783 b 556 497 557 681 556 556 b 528 472 556 482 542 472 b 514 476 521 472 519 472 b 492 497 507 481 493 496 l 288 794 b 226 838 263 829 244 838 b 158 818 211 838 193 832 b 69 743 86 790 71 774 b 49 96 51 214 49 118 b 86 39 49 76 65 54 b 147 15 115 19 125 15 b 211 25 167 15 178 18 b 292 90 272 40 292 50 b 290 242 292 133 290 189 b 322 281 290 265 303 281 z m 246 -368 b 308 -428 246 -396 265 -428 b 367 -412 322 -428 350 -426 b 538 -167 438 -357 538 -226 b 518 -101 538 -153 536 -140 b 335 -64 501 -69 443 -64 b 265 -97 300 -64 293 -68 b 233 -154 239 -126 233 -133 b 265 -247 233 -175 265 -225 b 246 -368 265 -287 246 -328 z "},"":{"ha":844,"x_min":0,"x_max":0,"o":"m 322 281 b 353 263 335 281 346 274 b 543 -31 417 164 478 60 b 664 -76 564 -60 638 -76 b 733 -60 686 -76 711 -68 b 783 -11 758 -49 783 -39 b 779 747 783 132 782 704 b 744 806 779 765 772 779 b 692 833 724 826 714 833 b 631 815 679 833 665 829 b 561 760 574 793 563 783 b 556 497 557 681 556 556 b 528 472 556 482 542 472 b 514 476 521 472 519 472 b 492 497 507 481 493 496 l 288 794 b 226 838 263 829 244 838 b 158 818 211 838 193 832 b 69 743 86 790 71 774 b 49 96 51 214 49 118 b 86 39 49 76 65 54 b 147 15 115 19 125 15 b 211 25 167 15 178 18 b 292 90 272 40 292 50 b 290 242 292 133 290 189 b 322 281 290 265 303 281 z m 682 1160 b 647 1226 682 1188 660 1219 b 586 1239 633 1235 603 1239 b 458 1119 547 1239 496 1156 b 421 1106 447 1110 435 1106 b 290 1222 382 1106 336 1178 b 254 1235 282 1231 271 1235 b 211 1224 244 1235 229 1231 b 164 1126 168 1207 164 1199 b 179 1096 164 1115 169 1106 b 367 924 233 1042 306 976 b 411 911 376 915 396 911 b 489 935 435 911 469 917 b 674 1138 546 994 618 1071 b 682 1160 679 1143 682 1151 z "},"":{"ha":844,"x_min":0,"x_max":0,"o":"m 322 281 b 353 263 335 281 346 274 b 543 -31 417 164 478 60 b 664 -76 564 -60 638 -76 b 733 -60 686 -76 711 -68 b 783 -11 758 -49 783 -39 b 779 747 783 132 782 704 b 744 806 779 765 772 779 b 692 833 724 826 714 833 b 631 815 679 833 665 829 b 561 760 574 793 563 783 b 556 497 557 681 556 556 b 528 472 556 482 542 472 b 514 476 521 472 519 472 b 492 497 507 481 493 496 l 288 794 b 226 838 263 829 244 838 b 158 818 211 838 193 832 b 69 743 86 790 71 774 b 49 96 51 214 49 118 b 86 39 49 76 65 54 b 147 15 115 19 125 15 b 211 25 167 15 178 18 b 292 90 272 40 292 50 b 290 242 292 133 290 189 b 322 281 290 265 303 281 z m 682 1160 b 647 1226 682 1188 660 1219 b 586 1239 633 1235 603 1239 b 458 1119 547 1239 496 1156 b 421 1106 447 1110 435 1106 b 290 1222 382 1106 336 1178 b 254 1235 282 1231 271 1235 b 211 1224 244 1235 229 1231 b 164 1126 168 1207 164 1199 b 179 1096 164 1115 169 1106 b 367 924 233 1042 306 976 b 411 911 376 915 396 911 b 489 935 435 911 469 917 b 674 1138 546 994 618 1071 b 682 1160 679 1143 682 1151 z "},"":{"ha":844,"x_min":0,"x_max":0,"o":"m 322 281 b 353 263 335 281 344 272 b 500 1 488 93 500 50 b 432 -99 500 -53 482 -79 b 310 -167 390 -115 322 -118 b 296 -256 303 -192 296 -226 b 313 -312 296 -276 299 -287 b 394 -360 333 -350 356 -360 b 589 -353 475 -360 550 -357 b 699 -279 629 -349 636 -342 b 783 -81 779 -199 783 -185 b 779 747 783 132 782 704 b 692 833 779 765 739 833 b 631 815 679 833 665 829 b 561 760 574 793 563 783 b 556 497 557 681 556 556 b 528 472 556 482 542 472 b 492 497 513 472 499 490 l 288 794 b 226 838 263 829 244 838 b 158 818 211 838 193 832 b 69 743 86 790 71 774 b 49 96 51 214 49 118 b 147 15 49 49 122 15 b 211 25 167 15 178 18 b 292 90 272 40 292 50 b 290 242 292 133 290 189 b 322 281 290 265 303 281 z "},"":{"ha":844,"x_min":0,"x_max":0,"o":"m 322 281 b 353 263 335 281 344 272 b 500 1 488 93 500 50 b 432 -99 500 -53 482 -79 b 310 -167 390 -115 322 -118 b 296 -256 303 -192 296 -226 b 313 -312 296 -276 299 -287 b 394 -360 333 -350 356 -360 b 589 -353 475 -360 550 -357 b 699 -279 629 -349 636 -342 b 783 -81 779 -199 783 -185 b 779 747 783 132 782 704 b 692 833 779 765 739 833 b 631 815 679 833 665 829 b 561 760 574 793 563 783 b 556 497 557 681 556 556 b 528 472 556 482 542 472 b 492 497 513 472 499 490 l 288 794 b 226 838 263 829 244 838 b 158 818 211 838 193 832 b 69 743 86 790 71 774 b 49 96 51 214 49 118 b 147 15 49 49 122 15 b 211 25 167 15 178 18 b 292 90 272 40 292 50 b 290 242 292 133 290 189 b 322 281 290 265 303 281 z "},"":{"ha":867,"x_min":0,"x_max":0,"o":"m 422 -57 b 839 435 715 -57 839 125 b 429 881 839 710 722 881 b 32 363 164 881 0 669 b 422 -57 54 135 182 -57 z m 290 431 b 440 625 290 526 335 625 b 579 426 538 625 579 517 b 442 229 579 346 536 229 b 290 431 335 229 290 346 z m 144 1047 b 200 983 144 1019 168 983 b 671 994 375 983 531 988 b 708 1019 692 994 703 1003 b 722 1088 718 1042 722 1065 b 703 1135 722 1115 715 1126 b 593 1149 686 1149 681 1149 b 200 1144 433 1149 304 1149 b 163 1125 179 1143 169 1142 b 144 1047 153 1106 144 1061 z "},"":{"ha":867,"x_min":0,"x_max":0,"o":"m 422 -57 b 839 435 715 -57 839 125 b 429 881 839 710 722 881 b 32 363 164 881 0 669 b 422 -57 54 135 182 -57 z m 290 431 b 440 625 290 526 335 625 b 579 426 538 625 579 517 b 442 229 579 346 536 229 b 290 431 335 229 290 346 z m 144 1047 b 200 983 144 1019 168 983 b 671 994 375 983 531 988 b 708 1019 692 994 703 1003 b 722 1088 718 1042 722 1065 b 703 1135 722 1115 715 1126 b 593 1149 686 1149 681 1149 b 200 1144 433 1149 304 1149 b 163 1125 179 1143 169 1142 b 144 1047 153 1106 144 1061 z "},"":{"ha":867,"x_min":0,"x_max":0,"o":"m 422 -57 b 839 435 715 -57 839 125 b 429 881 839 710 722 881 b 32 363 164 881 0 669 b 422 -57 54 135 182 -57 z m 290 431 b 440 625 290 526 335 625 b 579 426 538 625 579 517 b 442 229 579 346 536 229 b 290 431 335 229 290 346 z m 443 906 b 686 1049 547 906 642 960 b 708 1143 701 1081 708 1113 b 638 1235 708 1169 696 1235 b 557 1140 578 1235 572 1185 b 442 1050 535 1085 497 1050 b 321 1149 383 1050 346 1083 b 244 1238 306 1194 306 1238 b 158 1158 185 1238 158 1207 b 190 1042 158 1113 171 1074 b 443 906 242 950 344 906 z "},"":{"ha":867,"x_min":0,"x_max":0,"o":"m 422 -57 b 839 435 715 -57 839 125 b 429 881 839 710 722 881 b 32 363 164 881 0 669 b 422 -57 54 135 182 -57 z m 290 431 b 440 625 290 526 335 625 b 579 426 538 625 579 517 b 442 229 579 346 536 229 b 290 431 335 229 290 346 z m 443 906 b 686 1049 547 906 642 960 b 708 1143 701 1081 708 1113 b 638 1235 708 1169 696 1235 b 557 1140 578 1235 572 1185 b 442 1050 535 1085 497 1050 b 321 1149 383 1050 346 1083 b 244 1238 306 1194 306 1238 b 158 1158 185 1238 158 1207 b 190 1042 158 1113 171 1074 b 443 906 242 950 344 906 z "},"":{"ha":867,"x_min":0,"x_max":0,"o":"m 422 -57 b 839 435 715 -57 839 125 b 429 881 839 710 722 881 b 32 363 164 881 0 669 b 422 -57 54 135 182 -57 z m 290 431 b 440 625 290 526 335 625 b 579 426 538 625 579 517 b 442 229 579 346 536 229 b 290 431 335 229 290 346 z m 486 1006 b 561 915 486 961 522 915 b 597 926 575 915 588 919 b 790 1061 664 976 731 1021 b 815 1114 811 1075 815 1096 b 710 1217 815 1199 771 1217 b 658 1199 692 1217 678 1214 b 499 1054 613 1161 557 1115 b 486 1006 489 1043 486 1033 z m 167 1028 b 240 938 167 983 201 938 b 278 949 254 938 268 940 b 469 1083 343 999 410 1043 b 496 1136 490 1097 496 1118 b 389 1239 496 1221 450 1239 b 339 1221 371 1239 358 1236 b 178 1076 292 1183 238 1138 b 167 1028 168 1065 167 1056 z "},"":{"ha":867,"x_min":0,"x_max":0,"o":"m 422 -57 b 839 435 715 -57 839 125 b 429 881 839 710 722 881 b 32 363 164 881 0 669 b 422 -57 54 135 182 -57 z m 290 431 b 440 625 290 526 335 625 b 579 426 538 625 579 517 b 442 229 579 346 536 229 b 290 431 335 229 290 346 z m 486 1006 b 561 915 486 961 522 915 b 597 926 575 915 588 919 b 790 1061 664 976 731 1021 b 815 1114 811 1075 815 1096 b 710 1217 815 1199 771 1217 b 658 1199 692 1217 678 1214 b 499 1054 613 1161 557 1115 b 486 1006 489 1043 486 1033 z m 167 1028 b 240 938 167 983 201 938 b 278 949 254 938 268 940 b 469 1083 343 999 410 1043 b 496 1136 490 1097 496 1118 b 389 1239 496 1221 450 1239 b 339 1221 371 1239 358 1236 b 178 1076 292 1183 238 1138 b 167 1028 168 1065 167 1056 z "},"":{"ha":1300,"x_min":0,"x_max":0,"o":"m 422 -57 b 599 -36 488 -57 542 -36 b 786 -47 643 -36 693 -47 b 1156 -39 901 -47 1069 -46 b 1236 15 1190 -37 1204 -29 b 1267 92 1264 54 1267 65 b 1247 193 1267 115 1258 163 b 1190 217 1243 204 1228 217 b 946 207 1110 217 1028 207 b 890 265 910 207 890 218 b 932 324 890 306 901 321 b 1161 338 967 326 1085 332 b 1231 421 1194 340 1231 356 b 1167 493 1231 457 1211 492 b 917 501 1117 496 981 496 b 881 557 889 504 881 521 b 919 603 881 585 888 600 l 1167 622 b 1221 665 1197 625 1211 639 b 1251 776 1232 697 1251 750 b 1242 806 1251 788 1249 794 b 1150 872 1200 865 1196 872 b 721 847 1044 872 864 860 b 686 846 708 846 697 846 b 429 881 613 846 535 881 b 28 436 186 881 28 701 b 422 -57 28 178 156 -57 z m 290 431 b 440 625 290 526 335 625 b 579 426 538 625 579 517 b 442 229 579 346 536 229 b 290 431 335 229 290 346 z "},"":{"ha":1300,"x_min":0,"x_max":0,"o":"m 422 -57 b 599 -36 488 -57 542 -36 b 786 -47 643 -36 693 -47 b 1156 -39 901 -47 1069 -46 b 1236 15 1190 -37 1204 -29 b 1267 92 1264 54 1267 65 b 1247 193 1267 115 1258 163 b 1190 217 1243 204 1228 217 b 946 207 1110 217 1028 207 b 890 265 910 207 890 218 b 932 324 890 306 901 321 b 1161 338 967 326 1085 332 b 1231 421 1194 340 1231 356 b 1167 493 1231 457 1211 492 b 917 501 1117 496 981 496 b 881 557 889 504 881 521 b 919 603 881 585 888 600 l 1167 622 b 1221 665 1197 625 1211 639 b 1251 776 1232 697 1251 750 b 1242 806 1251 788 1249 794 b 1150 872 1200 865 1196 872 b 721 847 1044 872 864 860 b 686 846 708 846 697 846 b 429 881 613 846 535 881 b 28 436 186 881 28 701 b 422 -57 28 178 156 -57 z m 290 431 b 440 625 290 526 335 625 b 579 426 538 625 579 517 b 442 229 579 346 536 229 b 290 431 335 229 290 346 z "},"":{"ha":865,"x_min":0,"x_max":0,"o":"m 408 306 b 449 278 433 306 444 296 b 503 39 471 197 482 108 b 625 -81 535 -71 561 -81 b 771 -21 707 -81 714 -78 b 824 49 821 29 824 36 b 813 90 824 65 822 76 b 722 267 779 144 750 201 b 693 361 699 325 693 343 b 738 432 693 382 703 393 b 814 621 779 478 814 539 b 686 833 814 708 763 788 b 476 881 625 871 550 881 b 140 856 364 881 250 865 b 97 817 119 853 99 838 b 36 128 83 700 36 228 b 61 54 36 97 43 79 b 132 6 92 13 100 6 b 310 32 163 6 263 21 b 342 83 331 38 342 61 b 333 242 342 138 333 190 b 408 306 333 289 358 306 z m 331 567 b 374 633 331 593 332 633 b 518 618 478 633 497 632 b 542 567 533 607 542 592 b 493 497 542 535 525 504 b 378 485 478 493 396 485 b 331 567 335 485 331 503 z m 318 1018 b 396 926 318 972 354 926 b 435 939 411 926 424 931 b 636 1072 504 988 574 1033 b 663 1126 658 1086 663 1107 b 551 1228 663 1210 615 1228 b 497 1210 533 1228 519 1226 b 331 1065 449 1172 392 1128 b 318 1018 319 1056 318 1044 z "},"":{"ha":865,"x_min":0,"x_max":0,"o":"m 408 306 b 449 278 433 306 444 296 b 503 39 471 197 482 108 b 625 -81 535 -71 561 -81 b 771 -21 707 -81 714 -78 b 824 49 821 29 824 36 b 813 90 824 65 822 76 b 722 267 779 144 750 201 b 693 361 699 325 693 343 b 738 432 693 382 703 393 b 814 621 779 478 814 539 b 686 833 814 708 763 788 b 476 881 625 871 550 881 b 140 856 364 881 250 865 b 97 817 119 853 99 838 b 36 128 83 700 36 228 b 61 54 36 97 43 79 b 132 6 92 13 100 6 b 310 32 163 6 263 21 b 342 83 331 38 342 61 b 333 242 342 138 333 190 b 408 306 333 289 358 306 z m 331 567 b 374 633 331 593 332 633 b 518 618 478 633 497 632 b 542 567 533 607 542 592 b 493 497 542 535 525 504 b 378 485 478 493 396 485 b 331 567 335 485 331 503 z m 318 1018 b 396 926 318 972 354 926 b 435 939 411 926 424 931 b 636 1072 504 988 574 1033 b 663 1126 658 1086 663 1107 b 551 1228 663 1210 615 1228 b 497 1210 533 1228 519 1226 b 331 1065 449 1172 392 1128 b 318 1018 319 1056 318 1044 z "},"":{"ha":865,"x_min":0,"x_max":0,"o":"m 408 306 b 449 278 433 306 444 296 b 503 39 471 197 482 108 b 625 -81 535 -71 561 -81 b 771 -21 707 -81 714 -78 b 824 49 821 29 824 36 b 813 90 824 65 822 76 b 722 267 779 144 750 201 b 693 361 699 325 693 343 b 738 432 693 382 703 393 b 814 621 779 478 814 539 b 686 833 814 708 763 788 b 476 881 625 871 550 881 b 140 856 364 881 250 865 b 97 817 119 853 99 838 b 36 128 83 700 36 228 b 61 54 36 97 43 79 b 132 6 92 13 100 6 b 310 32 163 6 263 21 b 342 83 331 38 342 61 b 333 242 342 138 333 190 b 408 306 333 289 358 306 z m 331 567 b 374 633 331 593 332 633 b 518 618 478 633 497 632 b 542 567 533 607 542 592 b 493 497 542 535 525 504 b 378 485 478 493 396 485 b 331 567 335 485 331 503 z m 235 -368 b 297 -428 235 -396 254 -428 b 356 -412 311 -428 339 -426 b 526 -167 426 -357 526 -226 b 507 -101 526 -153 525 -140 b 324 -64 490 -69 432 -64 b 254 -97 289 -64 282 -68 b 222 -154 228 -126 222 -133 b 254 -247 222 -175 254 -225 b 235 -368 254 -287 235 -328 z "},"":{"ha":865,"x_min":0,"x_max":0,"o":"m 408 306 b 449 278 433 306 444 296 b 503 39 471 197 482 108 b 625 -81 535 -71 561 -81 b 771 -21 707 -81 714 -78 b 824 49 821 29 824 36 b 813 90 824 65 822 76 b 722 267 779 144 750 201 b 693 361 699 325 693 343 b 738 432 693 382 703 393 b 814 621 779 478 814 539 b 686 833 814 708 763 788 b 476 881 625 871 550 881 b 140 856 364 881 250 865 b 97 817 119 853 99 838 b 36 128 83 700 36 228 b 61 54 36 97 43 79 b 132 6 92 13 100 6 b 310 32 163 6 263 21 b 342 83 331 38 342 61 b 333 242 342 138 333 190 b 408 306 333 289 358 306 z m 331 567 b 374 633 331 593 332 633 b 518 618 478 633 497 632 b 542 567 533 607 542 592 b 493 497 542 535 525 504 b 378 485 478 493 396 485 b 331 567 335 485 331 503 z m 235 -368 b 297 -428 235 -396 254 -428 b 356 -412 311 -428 339 -426 b 526 -167 426 -357 526 -226 b 507 -101 526 -153 525 -140 b 324 -64 490 -69 432 -64 b 254 -97 289 -64 282 -68 b 222 -154 228 -126 222 -133 b 254 -247 222 -175 254 -225 b 235 -368 254 -287 235 -328 z "},"":{"ha":865,"x_min":0,"x_max":0,"o":"m 408 306 b 449 278 433 306 444 296 b 503 39 471 197 482 108 b 625 -81 535 -71 561 -81 b 771 -21 707 -81 714 -78 b 824 49 821 29 824 36 b 813 90 824 65 822 76 b 722 267 779 144 750 201 b 693 361 699 325 693 343 b 738 432 693 382 703 393 b 814 621 779 478 814 539 b 686 833 814 708 763 788 b 476 881 625 871 550 881 b 140 856 364 881 250 865 b 97 817 119 853 99 838 b 36 128 83 700 36 228 b 61 54 36 97 43 79 b 132 6 92 13 100 6 b 310 32 163 6 263 21 b 342 83 331 38 342 61 b 333 242 342 138 333 190 b 408 306 333 289 358 306 z m 331 567 b 374 633 331 593 332 633 b 518 618 478 633 497 632 b 542 567 533 607 542 592 b 493 497 542 535 525 504 b 378 485 478 493 396 485 b 331 567 335 485 331 503 z m 697 1160 b 663 1226 697 1188 675 1219 b 601 1239 649 1235 618 1239 b 474 1119 563 1239 511 1156 b 436 1106 463 1110 450 1106 b 306 1222 397 1106 351 1178 b 269 1235 297 1231 286 1235 b 226 1224 260 1235 244 1231 b 179 1126 183 1207 179 1199 b 194 1096 179 1115 185 1106 b 382 924 249 1042 321 976 b 426 911 392 915 411 911 b 504 935 450 911 485 917 b 689 1138 561 994 633 1071 b 697 1160 694 1143 697 1151 z "},"":{"ha":865,"x_min":0,"x_max":0,"o":"m 408 306 b 449 278 433 306 444 296 b 503 39 471 197 482 108 b 625 -81 535 -71 561 -81 b 771 -21 707 -81 714 -78 b 824 49 821 29 824 36 b 813 90 824 65 822 76 b 722 267 779 144 750 201 b 693 361 699 325 693 343 b 738 432 693 382 703 393 b 814 621 779 478 814 539 b 686 833 814 708 763 788 b 476 881 625 871 550 881 b 140 856 364 881 250 865 b 97 817 119 853 99 838 b 36 128 83 700 36 228 b 61 54 36 97 43 79 b 132 6 92 13 100 6 b 310 32 163 6 263 21 b 342 83 331 38 342 61 b 333 242 342 138 333 190 b 408 306 333 289 358 306 z m 331 567 b 374 633 331 593 332 633 b 518 618 478 633 497 632 b 542 567 533 607 542 592 b 493 497 542 535 525 504 b 378 485 478 493 396 485 b 331 567 335 485 331 503 z m 697 1160 b 663 1226 697 1188 675 1219 b 601 1239 649 1235 618 1239 b 474 1119 563 1239 511 1156 b 436 1106 463 1110 450 1106 b 306 1222 397 1106 351 1178 b 269 1235 297 1231 286 1235 b 226 1224 260 1235 244 1231 b 179 1126 183 1207 179 1199 b 194 1096 179 1115 185 1106 b 382 924 249 1042 321 976 b 426 911 392 915 411 911 b 504 935 450 911 485 917 b 689 1138 561 994 633 1071 b 697 1160 694 1143 697 1151 z "},"":{"ha":624,"x_min":0,"x_max":0,"o":"m 79 -237 b 167 -243 107 -240 138 -243 b 422 -165 257 -243 351 -222 b 550 94 507 -99 550 -6 b 349 585 550 301 349 474 b 422 653 349 626 372 643 b 536 676 457 660 503 653 b 563 775 551 686 563 753 b 499 879 563 804 528 872 b 406 888 478 883 443 888 b 193 839 339 888 250 874 b 63 615 111 789 63 704 b 257 135 63 433 257 283 b 186 31 257 90 229 47 b 22 -32 128 6 42 14 b 4 -133 11 -60 4 -103 b 35 -212 4 -151 22 -189 b 79 -237 44 -228 56 -233 z m 185 1017 b 263 926 185 972 222 926 b 303 938 278 926 290 931 b 504 1072 371 988 442 1032 b 531 1125 526 1086 531 1107 b 419 1228 531 1210 483 1228 b 365 1210 400 1228 386 1225 b 197 1065 317 1172 260 1126 b 185 1017 188 1054 185 1044 z "},"":{"ha":624,"x_min":0,"x_max":0,"o":"m 79 -237 b 167 -243 107 -240 138 -243 b 422 -165 257 -243 351 -222 b 550 94 507 -99 550 -6 b 349 585 550 301 349 474 b 422 653 349 626 372 643 b 536 676 457 660 503 653 b 563 775 551 686 563 753 b 499 879 563 804 528 872 b 406 888 478 883 443 888 b 193 839 339 888 250 874 b 63 615 111 789 63 704 b 257 135 63 433 257 283 b 186 31 257 90 229 47 b 22 -32 128 6 42 14 b 4 -133 11 -60 4 -103 b 35 -212 4 -151 22 -189 b 79 -237 44 -228 56 -233 z m 185 1017 b 263 926 185 972 222 926 b 303 938 278 926 290 931 b 504 1072 371 988 442 1032 b 531 1125 526 1086 531 1107 b 419 1228 531 1210 483 1228 b 365 1210 400 1228 386 1225 b 197 1065 317 1172 260 1126 b 185 1017 188 1054 185 1044 z "},"":{"ha":624,"x_min":0,"x_max":0,"o":"m 79 -51 b 167 -57 107 -54 138 -57 b 422 21 257 -57 351 -36 b 550 281 507 88 550 181 b 349 643 550 488 349 578 b 422 711 349 685 372 700 b 536 735 457 718 503 711 b 563 833 551 744 563 811 b 499 938 563 863 528 931 b 406 946 478 942 443 946 b 193 897 339 946 250 932 b 63 674 111 847 63 763 b 257 321 63 496 257 411 b 186 217 257 276 229 233 b 22 154 128 192 42 200 b 4 54 11 126 4 83 b 35 -25 4 35 22 -3 b 79 -51 44 -42 56 -47 z m 151 -368 b 214 -428 151 -396 171 -428 b 272 -412 228 -428 256 -426 b 443 -167 343 -357 443 -226 b 424 -101 443 -153 442 -140 b 240 -64 407 -69 349 -64 b 171 -97 206 -64 199 -68 b 140 -154 144 -126 140 -133 b 171 -247 140 -175 171 -225 b 151 -368 171 -287 151 -328 z "},"":{"ha":624,"x_min":0,"x_max":0,"o":"m 79 -51 b 167 -57 107 -54 138 -57 b 422 21 257 -57 351 -36 b 550 281 507 88 550 181 b 349 643 550 488 349 578 b 422 711 349 685 372 700 b 536 735 457 718 503 711 b 563 833 551 744 563 811 b 499 938 563 863 528 931 b 406 946 478 942 443 946 b 193 897 339 946 250 932 b 63 674 111 847 63 763 b 257 321 63 496 257 411 b 186 217 257 276 229 233 b 22 154 128 192 42 200 b 4 54 11 126 4 83 b 35 -25 4 35 22 -3 b 79 -51 44 -42 56 -47 z m 151 -368 b 214 -428 151 -396 171 -428 b 272 -412 228 -428 256 -426 b 443 -167 343 -357 443 -226 b 424 -101 443 -153 442 -140 b 240 -64 407 -69 349 -64 b 171 -97 206 -64 199 -68 b 140 -154 144 -126 140 -133 b 171 -247 140 -175 171 -225 b 151 -368 171 -287 151 -328 z "},"":{"ha":624,"x_min":0,"x_max":0,"o":"m 593 1160 b 560 1225 593 1188 571 1218 b 499 1239 546 1233 514 1239 b 369 1118 460 1239 407 1154 b 333 1104 360 1110 347 1104 b 203 1222 294 1104 247 1176 b 167 1233 194 1231 183 1233 b 124 1224 156 1233 140 1231 b 75 1125 81 1207 75 1197 b 90 1096 75 1115 82 1104 b 278 924 146 1042 218 975 b 324 911 289 915 307 911 b 400 935 347 911 382 915 b 586 1138 457 994 531 1071 b 593 1160 592 1143 593 1151 z m 79 -237 b 167 -243 107 -240 138 -243 b 422 -165 257 -243 351 -222 b 550 94 507 -99 550 -6 b 349 585 550 301 349 474 b 422 653 349 626 372 643 b 536 676 457 660 503 653 b 563 775 551 686 563 753 b 499 879 563 804 528 872 b 406 888 478 883 443 888 b 193 839 339 888 250 874 b 63 615 111 789 63 704 b 257 135 63 433 257 283 b 186 31 257 90 229 47 b 22 -32 128 6 42 14 b 4 -133 11 -60 4 -103 b 35 -212 4 -151 22 -189 b 79 -237 44 -228 56 -233 z "},"":{"ha":624,"x_min":0,"x_max":0,"o":"m 593 1160 b 560 1225 593 1188 571 1218 b 499 1239 546 1233 514 1239 b 369 1118 460 1239 407 1154 b 333 1104 360 1110 347 1104 b 203 1222 294 1104 247 1176 b 167 1233 194 1231 183 1233 b 124 1224 156 1233 140 1231 b 75 1125 81 1207 75 1197 b 90 1096 75 1115 82 1104 b 278 924 146 1042 218 975 b 324 911 289 915 307 911 b 400 935 347 911 382 915 b 586 1138 457 994 531 1071 b 593 1160 592 1143 593 1151 z m 79 -237 b 167 -243 107 -240 138 -243 b 422 -165 257 -243 351 -222 b 550 94 507 -99 550 -6 b 349 585 550 301 349 474 b 422 653 349 626 372 643 b 536 676 457 660 503 653 b 563 775 551 686 563 753 b 499 879 563 804 528 872 b 406 888 478 883 443 888 b 193 839 339 888 250 874 b 63 615 111 789 63 704 b 257 135 63 433 257 283 b 186 31 257 90 229 47 b 22 -32 128 6 42 14 b 4 -133 11 -60 4 -103 b 35 -212 4 -151 22 -189 b 79 -237 44 -228 56 -233 z "},"":{"ha":819,"x_min":0,"x_max":0,"o":"m 392 -31 b 479 -8 418 -31 442 -22 b 550 44 542 14 550 21 b 540 508 550 232 540 369 b 586 569 540 547 550 569 b 715 567 618 569 679 567 b 775 650 749 567 758 586 b 789 722 782 674 789 699 b 754 801 789 753 785 765 b 654 857 718 846 708 857 b 118 844 461 857 289 851 b 58 806 90 843 72 829 b 28 736 46 785 28 763 b 50 656 28 726 33 710 b 72 586 57 632 64 608 b 126 558 81 564 108 558 b 221 563 158 558 190 563 b 283 508 269 563 283 549 b 269 65 283 467 269 182 b 325 -3 269 38 282 24 b 392 -31 364 -25 375 -31 z m 271 -368 b 333 -428 271 -396 290 -428 b 392 -412 347 -428 375 -426 b 563 -167 463 -357 563 -226 b 543 -101 563 -153 561 -140 b 360 -64 526 -69 468 -64 b 290 -97 325 -64 318 -68 b 258 -154 264 -126 258 -133 b 290 -247 258 -175 290 -225 b 271 -368 290 -287 271 -328 z "},"":{"ha":819,"x_min":0,"x_max":0,"o":"m 392 -31 b 479 -8 418 -31 442 -22 b 550 44 542 14 550 21 b 540 508 550 232 540 369 b 586 569 540 547 550 569 b 715 567 618 569 679 567 b 775 650 749 567 758 586 b 789 722 782 674 789 699 b 754 801 789 753 785 765 b 654 857 718 846 708 857 b 118 844 461 857 289 851 b 58 806 90 843 72 829 b 28 736 46 785 28 763 b 50 656 28 726 33 710 b 72 586 57 632 64 608 b 126 558 81 564 108 558 b 221 563 158 558 190 563 b 283 508 269 563 283 549 b 269 65 283 467 269 182 b 325 -3 269 38 282 24 b 392 -31 364 -25 375 -31 z m 271 -368 b 333 -428 271 -396 290 -428 b 392 -412 347 -428 375 -426 b 563 -167 463 -357 563 -226 b 543 -101 563 -153 561 -140 b 360 -64 526 -69 468 -64 b 290 -97 325 -64 318 -68 b 258 -154 264 -126 258 -133 b 290 -247 258 -175 290 -225 b 271 -368 290 -287 271 -328 z "},"":{"ha":819,"x_min":0,"x_max":0,"o":"m 392 -31 b 479 -8 418 -31 442 -22 b 550 44 542 14 550 21 b 540 508 550 232 540 369 b 586 569 540 547 550 569 b 715 567 618 569 679 567 b 775 650 749 567 758 586 b 789 722 782 674 789 699 b 754 801 789 753 785 765 b 654 857 718 846 708 857 b 118 844 461 857 289 851 b 58 806 90 843 72 829 b 28 736 46 785 28 763 b 50 656 28 726 33 710 b 72 586 57 632 64 608 b 126 558 81 564 108 558 b 221 563 158 558 190 563 b 283 508 269 563 283 549 b 269 65 283 467 269 182 b 325 -3 269 38 282 24 b 392 -31 364 -25 375 -31 z m 668 1160 b 633 1226 668 1188 646 1219 b 572 1239 619 1235 589 1239 b 444 1119 533 1239 482 1156 b 407 1106 433 1110 421 1106 b 276 1222 368 1106 322 1178 b 240 1235 268 1231 257 1235 b 197 1224 231 1235 215 1231 b 150 1126 154 1207 150 1199 b 165 1096 150 1115 156 1106 b 353 924 219 1042 292 976 b 397 911 363 915 382 911 b 475 935 421 911 456 917 b 660 1138 532 994 604 1071 b 668 1160 665 1143 668 1151 z "},"":{"ha":819,"x_min":0,"x_max":0,"o":"m 392 -31 b 479 -8 418 -31 442 -22 b 550 44 542 14 550 21 b 540 508 550 232 540 369 b 586 569 540 547 550 569 b 715 567 618 569 679 567 b 775 650 749 567 758 586 b 789 722 782 674 789 699 b 754 801 789 753 785 765 b 654 857 718 846 708 857 b 118 844 461 857 289 851 b 58 806 90 843 72 829 b 28 736 46 785 28 763 b 50 656 28 726 33 710 b 72 586 57 632 64 608 b 126 558 81 564 108 558 b 221 563 158 558 190 563 b 283 508 269 563 283 549 b 269 65 283 467 269 182 b 325 -3 269 38 282 24 b 392 -31 364 -25 375 -31 z m 668 1160 b 633 1226 668 1188 646 1219 b 572 1239 619 1235 589 1239 b 444 1119 533 1239 482 1156 b 407 1106 433 1110 421 1106 b 276 1222 368 1106 322 1178 b 240 1235 268 1231 257 1235 b 197 1224 231 1235 215 1231 b 150 1126 154 1207 150 1199 b 165 1096 150 1115 156 1106 b 353 924 219 1042 292 976 b 397 911 363 915 382 911 b 475 935 421 911 456 917 b 660 1138 532 994 604 1071 b 668 1160 665 1143 668 1151 z "},"":{"ha":819,"x_min":0,"x_max":0,"o":"m 129 389 b 185 325 129 361 153 325 l 244 325 b 275 293 268 325 275 313 b 269 65 275 206 269 121 b 325 -3 269 38 282 24 b 392 -31 364 -25 375 -31 b 479 -8 418 -31 442 -22 b 550 44 542 14 550 21 b 543 293 550 140 547 215 b 579 333 543 319 554 333 b 657 336 607 333 631 336 b 707 429 699 336 707 396 b 688 478 707 457 700 468 b 578 492 672 490 665 492 b 540 514 557 492 540 494 b 586 569 540 540 550 569 b 715 567 618 569 679 567 b 775 650 749 567 758 586 b 789 722 782 674 789 699 b 754 801 789 753 785 765 b 654 857 718 846 708 857 b 118 844 461 857 289 851 b 58 806 90 843 72 829 b 28 736 46 785 28 763 b 72 586 28 732 39 676 b 126 558 81 564 108 558 b 221 563 158 558 190 563 b 283 514 269 563 283 540 b 185 486 283 496 265 486 b 147 467 163 486 156 483 b 129 389 138 446 129 404 z "},"":{"ha":819,"x_min":0,"x_max":0,"o":"m 129 389 b 185 325 129 361 153 325 l 244 325 b 275 293 268 325 275 313 b 269 65 275 206 269 121 b 325 -3 269 38 282 24 b 392 -31 364 -25 375 -31 b 479 -8 418 -31 442 -22 b 550 44 542 14 550 21 b 543 293 550 140 547 215 b 579 333 543 319 554 333 b 657 336 607 333 631 336 b 707 429 699 336 707 396 b 688 478 707 457 700 468 b 578 492 672 490 665 492 b 540 514 557 492 540 494 b 586 569 540 540 550 569 b 715 567 618 569 679 567 b 775 650 749 567 758 586 b 789 722 782 674 789 699 b 754 801 789 753 785 765 b 654 857 718 846 708 857 b 118 844 461 857 289 851 b 58 806 90 843 72 829 b 28 736 46 785 28 763 b 72 586 28 732 39 676 b 126 558 81 564 108 558 b 221 563 158 558 190 563 b 283 514 269 563 283 540 b 185 486 283 496 265 486 b 147 467 163 486 156 483 b 129 389 138 446 129 404 z "},"":{"ha":901,"x_min":0,"x_max":0,"o":"m 129 13 b 288 -60 204 -51 232 -60 b 729 -35 413 -60 686 -42 b 807 7 743 -32 769 -24 b 847 107 844 38 847 51 b 829 781 842 374 836 578 b 751 847 829 819 810 829 b 675 865 708 860 697 865 b 603 836 650 865 635 860 b 563 757 568 808 563 794 b 574 250 563 581 574 415 b 444 190 574 204 506 190 b 344 257 378 190 344 204 b 346 783 344 372 346 682 b 276 856 346 829 331 838 b 226 865 256 863 243 865 b 158 851 204 865 194 863 b 56 765 68 822 60 810 b 42 176 51 693 42 374 b 129 13 42 100 44 85 z m 144 1042 b 233 940 144 1004 192 940 b 340 1007 278 940 283 1007 b 435 981 367 1007 408 990 b 596 939 486 963 538 938 b 686 972 629 939 661 950 b 756 1085 713 996 756 1046 b 674 1164 756 1125 711 1164 b 560 1099 631 1164 622 1099 b 319 1169 488 1099 408 1169 b 181 1110 271 1169 217 1146 b 144 1042 163 1092 144 1065 z "},"":{"ha":901,"x_min":0,"x_max":0,"o":"m 129 13 b 288 -60 204 -51 232 -60 b 729 -35 413 -60 686 -42 b 807 7 743 -32 769 -24 b 847 107 844 38 847 51 b 829 781 842 374 836 578 b 751 847 829 819 810 829 b 675 865 708 860 697 865 b 603 836 650 865 635 860 b 563 757 568 808 563 794 b 574 250 563 581 574 415 b 444 190 574 204 506 190 b 344 257 378 190 344 204 b 346 783 344 372 346 682 b 276 856 346 829 331 838 b 226 865 256 863 243 865 b 158 851 204 865 194 863 b 56 765 68 822 60 810 b 42 176 51 693 42 374 b 129 13 42 100 44 85 z m 144 1042 b 233 940 144 1004 192 940 b 340 1007 278 940 283 1007 b 435 981 367 1007 408 990 b 596 939 486 963 538 938 b 686 972 629 939 661 950 b 756 1085 713 996 756 1046 b 674 1164 756 1125 711 1164 b 560 1099 631 1164 622 1099 b 319 1169 488 1099 408 1169 b 181 1110 271 1169 217 1146 b 144 1042 163 1092 144 1065 z "},"":{"ha":901,"x_min":0,"x_max":0,"o":"m 129 13 b 288 -60 204 -51 232 -60 b 729 -35 413 -60 686 -42 b 807 7 743 -32 769 -24 b 847 107 844 38 847 51 b 829 781 842 374 836 578 b 751 847 829 819 810 829 b 675 865 708 860 697 865 b 603 836 650 865 635 860 b 563 757 568 808 563 794 b 574 250 563 581 574 415 b 444 190 574 204 506 190 b 344 257 378 190 344 204 b 346 783 344 372 346 682 b 276 856 346 829 331 838 b 226 865 256 863 243 865 b 158 851 204 865 194 863 b 56 765 68 822 60 810 b 42 176 51 693 42 374 b 129 13 42 100 44 85 z m 161 1047 b 217 983 161 1019 185 983 b 688 994 392 983 547 988 b 725 1019 708 994 719 1003 b 739 1088 735 1042 739 1065 b 719 1135 739 1115 732 1126 b 610 1149 703 1149 697 1149 b 217 1144 450 1149 321 1149 b 179 1125 196 1143 186 1142 b 161 1047 169 1106 161 1061 z "},"":{"ha":901,"x_min":0,"x_max":0,"o":"m 129 13 b 288 -60 204 -51 232 -60 b 729 -35 413 -60 686 -42 b 807 7 743 -32 769 -24 b 847 107 844 38 847 51 b 829 781 842 374 836 578 b 751 847 829 819 810 829 b 675 865 708 860 697 865 b 603 836 650 865 635 860 b 563 757 568 808 563 794 b 574 250 563 581 574 415 b 444 190 574 204 506 190 b 344 257 378 190 344 204 b 346 783 344 372 346 682 b 276 856 346 829 331 838 b 226 865 256 863 243 865 b 158 851 204 865 194 863 b 56 765 68 822 60 810 b 42 176 51 693 42 374 b 129 13 42 100 44 85 z m 161 1047 b 217 983 161 1019 185 983 b 688 994 392 983 547 988 b 725 1019 708 994 719 1003 b 739 1088 735 1042 739 1065 b 719 1135 739 1115 732 1126 b 610 1149 703 1149 697 1149 b 217 1144 450 1149 321 1149 b 179 1125 196 1143 186 1142 b 161 1047 169 1106 161 1061 z "},"":{"ha":901,"x_min":0,"x_max":0,"o":"m 129 13 b 288 -60 204 -51 232 -60 b 729 -35 413 -60 686 -42 b 807 7 743 -32 769 -24 b 847 107 844 38 847 51 b 829 781 842 374 836 578 b 751 847 829 819 810 829 b 675 865 708 860 697 865 b 603 836 650 865 635 860 b 563 757 568 808 563 794 b 574 250 563 581 574 415 b 444 190 574 204 506 190 b 344 257 378 190 344 204 b 346 783 344 372 346 682 b 276 856 346 829 331 838 b 226 865 256 863 243 865 b 158 851 204 865 194 863 b 56 765 68 822 60 810 b 42 176 51 693 42 374 b 129 13 42 100 44 85 z m 460 906 b 703 1049 564 906 658 960 b 725 1143 718 1081 725 1113 b 654 1235 725 1169 713 1235 b 574 1140 594 1235 589 1185 b 458 1050 551 1085 514 1050 b 338 1149 400 1050 363 1083 b 261 1238 322 1194 322 1238 b 175 1158 201 1238 175 1207 b 207 1042 175 1113 188 1074 b 460 906 258 950 361 906 z "}}}
